Asap-Bold.ufo
<glyph name="exclam" format="2">
  <advance width="294"/>
  <unicode hex="0021"/>
  <outline>
    <contour>
      <point x="142" y="222" type="curve" smooth="yes"/>
      <point x="153" y="222" type="line" smooth="yes"/>
      <point x="194" y="222"/>
      <point x="201" y="233"/>
      <point x="204" y="254" type="curve"/>
      <point x="221" y="394"/>
      <point x="237" y="534"/>
      <point x="254" y="674" type="curve"/>
      <point x="254" y="692"/>
      <point x="233" y="702"/>
      <point x="194" y="702" type="curve" smooth="yes"/>
      <point x="151" y="702" type="line" smooth="yes"/>
      <point x="109" y="702"/>
      <point x="91" y="691"/>
      <point x="91" y="670" type="curve" smooth="yes"/>
      <point x="91" y="254" type="line" smooth="yes"/>
      <point x="91" y="233"/>
      <point x="101" y="222"/>
    </contour>
    <contour>
      <point x="131" y="-2" type="curve" smooth="yes"/>
      <point x="163" y="-2" type="line" smooth="yes"/>
      <point x="205" y="-2"/>
      <point x="223" y="9"/>
      <point x="223" y="30" type="curve" smooth="yes"/>
      <point x="223" y="122" type="line" smooth="yes"/>
      <point x="223" y="143"/>
      <point x="205" y="154"/>
      <point x="163" y="154" type="curve" smooth="yes"/>
      <point x="131" y="154" type="line" smooth="yes"/>
      <point x="89" y="154"/>
      <point x="71" y="143"/>
      <point x="71" y="122" type="curve" smooth="yes"/>
      <point x="71" y="30" type="line" smooth="yes"/>
      <point x="71" y="9"/>
      <point x="89" y="-2"/>
    </contour>
  </outline>
</glyph>
<glyph name="numbersign" format="2">
  <advance width="534"/>
  <unicode hex="0023"/>
  <outline>
    <contour>
      <point x="98" y="-2" type="curve" smooth="yes"/>
      <point x="111" y="-2" type="line" smooth="yes"/>
      <point x="144" y="-2"/>
      <point x="162" y="8"/>
      <point x="166" y="29" type="curve" smooth="yes"/>
      <point x="195" y="183" type="line"/>
      <point x="289" y="183" type="line"/>
      <point x="263" y="42"/>
      <point x="259" y="27"/>
      <point x="259" y="21" type="curve" smooth="yes"/>
      <point x="259" y="4"/>
      <point x="273" y="-2"/>
      <point x="305" y="-2" type="curve" smooth="yes"/>
      <point x="318" y="-2" type="line" smooth="yes"/>
      <point x="351" y="-2"/>
      <point x="369" y="8"/>
      <point x="373" y="29" type="curve" smooth="yes"/>
      <point x="402" y="183" type="line"/>
      <point x="464" y="183" type="line" smooth="yes"/>
      <point x="485" y="183"/>
      <point x="494" y="198"/>
      <point x="494" y="233" type="curve" smooth="yes"/>
      <point x="494" y="243" type="line" smooth="yes"/>
      <point x="494" y="278"/>
      <point x="485" y="293"/>
      <point x="464" y="293" type="curve" smooth="yes"/>
      <point x="422" y="293" type="line"/>
      <point x="443" y="403" type="line"/>
      <point x="496" y="403" type="line" smooth="yes"/>
      <point x="517" y="403"/>
      <point x="526" y="418"/>
      <point x="526" y="453" type="curve" smooth="yes"/>
      <point x="526" y="463" type="line" smooth="yes"/>
      <point x="526" y="498"/>
      <point x="517" y="513"/>
      <point x="496" y="513" type="curve" smooth="yes"/>
      <point x="463" y="513" type="line"/>
      <point x="490" y="664" type="line"/>
      <point x="490" y="678"/>
      <point x="476" y="686"/>
      <point x="445" y="686" type="curve" smooth="yes"/>
      <point x="432" y="686" type="line" smooth="yes"/>
      <point x="399" y="686"/>
      <point x="380" y="676"/>
      <point x="376" y="655" type="curve" smooth="yes"/>
      <point x="350" y="513" type="line"/>
      <point x="256" y="513" type="line"/>
      <point x="283" y="664" type="line"/>
      <point x="283" y="678"/>
      <point x="269" y="686"/>
      <point x="238" y="686" type="curve" smooth="yes"/>
      <point x="225" y="686" type="line" smooth="yes"/>
      <point x="192" y="686"/>
      <point x="173" y="676"/>
      <point x="169" y="655" type="curve" smooth="yes"/>
      <point x="143" y="513" type="line"/>
      <point x="75" y="513" type="line" smooth="yes"/>
      <point x="54" y="513"/>
      <point x="45" y="498"/>
      <point x="45" y="463" type="curve" smooth="yes"/>
      <point x="45" y="453" type="line" smooth="yes"/>
      <point x="45" y="418"/>
      <point x="54" y="403"/>
      <point x="75" y="403" type="curve" smooth="yes"/>
      <point x="123" y="403" type="line"/>
      <point x="102" y="293" type="line"/>
      <point x="39" y="293" type="line" smooth="yes"/>
      <point x="18" y="293"/>
      <point x="9" y="278"/>
      <point x="9" y="243" type="curve" smooth="yes"/>
      <point x="9" y="233" type="line" smooth="yes"/>
      <point x="9" y="198"/>
      <point x="18" y="183"/>
      <point x="39" y="183" type="curve" smooth="yes"/>
      <point x="82" y="183" type="line"/>
      <point x="56" y="42"/>
      <point x="52" y="27"/>
      <point x="52" y="21" type="curve" smooth="yes"/>
      <point x="52" y="4"/>
      <point x="66" y="-2"/>
    </contour>
    <contour>
      <point x="215" y="293" type="line"/>
      <point x="236" y="403" type="line"/>
      <point x="330" y="403" type="line"/>
      <point x="309" y="293" type="line"/>
    </contour>
  </outline>
</glyph>
<glyph name="dollar" format="2">
  <advance width="500"/>
  <unicode hex="0024"/>
  <outline>
    <contour>
      <point x="254" y="-7" type="curve" smooth="yes"/>
      <point x="409" y="-7"/>
      <point x="482" y="73"/>
      <point x="482" y="207" type="curve" smooth="yes"/>
      <point x="482" y="323"/>
      <point x="380" y="386"/>
      <point x="296" y="422" type="curve" smooth="yes"/>
      <point x="235" y="448"/>
      <point x="183" y="470"/>
      <point x="183" y="517" type="curve" smooth="yes"/>
      <point x="183" y="552"/>
      <point x="211" y="576"/>
      <point x="252" y="576" type="curve" smooth="yes"/>
      <point x="301" y="576"/>
      <point x="334" y="569"/>
      <point x="357" y="562" type="curve" smooth="yes"/>
      <point x="376" y="556"/>
      <point x="390" y="551"/>
      <point x="397" y="551" type="curve" smooth="yes"/>
      <point x="421" y="551"/>
      <point x="452" y="611"/>
      <point x="452" y="638" type="curve" smooth="yes"/>
      <point x="452" y="649"/>
      <point x="443" y="661"/>
      <point x="427" y="672" type="curve" smooth="yes"/>
      <point x="397" y="692"/>
      <point x="342" y="708"/>
      <point x="273" y="708" type="curve" smooth="yes"/>
      <point x="131" y="708"/>
      <point x="35" y="628"/>
      <point x="35" y="503" type="curve" smooth="yes"/>
      <point x="35" y="394"/>
      <point x="135" y="325"/>
      <point x="220" y="292" type="curve" smooth="yes"/>
      <point x="282" y="268"/>
      <point x="336" y="249"/>
      <point x="336" y="196" type="curve" smooth="yes"/>
      <point x="336" y="140"/>
      <point x="298" y="123"/>
      <point x="239" y="123" type="curve" smooth="yes"/>
      <point x="199" y="123"/>
      <point x="152" y="136"/>
      <point x="112" y="158" type="curve" smooth="yes"/>
      <point x="99" y="165"/>
      <point x="89" y="169"/>
      <point x="83" y="169" type="curve" smooth="yes"/>
      <point x="62" y="169"/>
      <point x="21" y="111"/>
      <point x="21" y="80" type="curve" smooth="yes"/>
      <point x="21" y="65"/>
      <point x="36" y="47"/>
      <point x="65" y="31" type="curve" smooth="yes"/>
      <point x="104" y="10"/>
      <point x="167" y="-7"/>
    </contour>
    <contour>
      <point x="260" y="-81" type="curve" smooth="yes"/>
      <point x="265" y="-81" type="line" smooth="yes"/>
      <point x="282" y="-81"/>
      <point x="291" y="-73"/>
      <point x="291" y="-56" type="curve" smooth="yes"/>
      <point x="291" y="743" type="line" smooth="yes"/>
      <point x="291" y="760"/>
      <point x="282" y="768"/>
      <point x="265" y="768" type="curve" smooth="yes"/>
      <point x="260" y="768" type="line" smooth="yes"/>
      <point x="243" y="768"/>
      <point x="234" y="760"/>
      <point x="234" y="743" type="curve" smooth="yes"/>
      <point x="234" y="-56" type="line" smooth="yes"/>
      <point x="234" y="-73"/>
      <point x="243" y="-81"/>
    </contour>
  </outline>
</glyph>
<glyph name="percent" format="2">
  <advance width="765"/>
  <unicode hex="0025"/>
  <outline>
    <contour>
      <point x="168" y="-2" type="curve" smooth="yes"/>
      <point x="212" y="-2" type="line" smooth="yes"/>
      <point x="233" y="-2"/>
      <point x="246" y="8"/>
      <point x="256" y="26" type="curve" smooth="yes"/>
      <point x="613" y="674" type="line" smooth="yes"/>
      <point x="616" y="680"/>
      <point x="618" y="685"/>
      <point x="618" y="688" type="curve" smooth="yes"/>
      <point x="618" y="696"/>
      <point x="611" y="702"/>
      <point x="597" y="702" type="curve" smooth="yes"/>
      <point x="553" y="702" type="line" smooth="yes"/>
      <point x="532" y="702"/>
      <point x="519" y="692"/>
      <point x="509" y="674" type="curve" smooth="yes"/>
      <point x="152" y="26" type="line" smooth="yes"/>
      <point x="149" y="20"/>
      <point x="147" y="15"/>
      <point x="147" y="11" type="curve" smooth="yes"/>
      <point x="147" y="4"/>
      <point x="154" y="-2"/>
    </contour>
    <contour>
      <point x="576" y="-8" type="curve" smooth="yes"/>
      <point x="646" y="-8"/>
      <point x="726" y="21"/>
      <point x="726" y="160" type="curve" smooth="yes"/>
      <point x="726" y="299"/>
      <point x="646" y="328"/>
      <point x="576" y="328" type="curve" smooth="yes"/>
      <point x="506" y="328"/>
      <point x="426" y="299"/>
      <point x="426" y="160" type="curve" smooth="yes"/>
      <point x="426" y="21"/>
      <point x="506" y="-8"/>
    </contour>
    <contour>
      <point x="576" y="74" type="curve" smooth="yes"/>
      <point x="537" y="74"/>
      <point x="528" y="121"/>
      <point x="528" y="160" type="curve" smooth="yes"/>
      <point x="528" y="199"/>
      <point x="537" y="242"/>
      <point x="576" y="242" type="curve" smooth="yes"/>
      <point x="615" y="242"/>
      <point x="623" y="199"/>
      <point x="623" y="160" type="curve" smooth="yes"/>
      <point x="623" y="121"/>
      <point x="615" y="74"/>
    </contour>
    <contour>
      <point x="189" y="372" type="curve" smooth="yes"/>
      <point x="259" y="372"/>
      <point x="339" y="401"/>
      <point x="339" y="540" type="curve" smooth="yes"/>
      <point x="339" y="679"/>
      <point x="259" y="708"/>
      <point x="189" y="708" type="curve" smooth="yes"/>
      <point x="119" y="708"/>
      <point x="39" y="679"/>
      <point x="39" y="540" type="curve" smooth="yes"/>
      <point x="39" y="401"/>
      <point x="119" y="372"/>
    </contour>
    <contour>
      <point x="189" y="454" type="curve" smooth="yes"/>
      <point x="150" y="454"/>
      <point x="141" y="501"/>
      <point x="141" y="540" type="curve" smooth="yes"/>
      <point x="141" y="579"/>
      <point x="150" y="622"/>
      <point x="189" y="622" type="curve" smooth="yes"/>
      <point x="228" y="622"/>
      <point x="236" y="579"/>
      <point x="236" y="540" type="curve" smooth="yes"/>
      <point x="236" y="501"/>
      <point x="228" y="454"/>
    </contour>
  </outline>
</glyph>
<glyph name="quotesingle" format="2">
  <advance width="192"/>
  <unicode hex="0027"/>
  <outline>
    <contour>
      <point x="87" y="464" type="curve" smooth="yes"/>
      <point x="105" y="464" type="line" smooth="yes"/>
      <point x="126" y="464"/>
      <point x="136" y="473"/>
      <point x="139" y="494" type="curve" smooth="yes"/>
      <point x="161" y="670" type="line" smooth="yes"/>
      <point x="164" y="691"/>
      <point x="143" y="702"/>
      <point x="101" y="702" type="curve" smooth="yes"/>
      <point x="91" y="702" type="line" smooth="yes"/>
      <point x="49" y="702"/>
      <point x="28" y="691"/>
      <point x="31" y="670" type="curve" smooth="yes"/>
      <point x="53" y="494" type="line" smooth="yes"/>
      <point x="56" y="473"/>
      <point x="66" y="464"/>
    </contour>
  </outline>
</glyph>
<glyph name="parenleft" format="2">
  <advance width="301"/>
  <unicode hex="0028"/>
  <outline>
    <contour>
      <point x="228" y="-208" type="curve" smooth="yes"/>
      <point x="248" y="-208"/>
      <point x="285" y="-185"/>
      <point x="285" y="-162" type="curve" smooth="yes"/>
      <point x="285" y="-156"/>
      <point x="284" y="-149"/>
      <point x="280" y="-142" type="curve" smooth="yes"/>
      <point x="196" y="8.5"/>
      <point x="168" y="138"/>
      <point x="168" y="287" type="curve" smooth="yes"/>
      <point x="168" y="437"/>
      <point x="199" y="565"/>
      <point x="280" y="717" type="curve" smooth="yes"/>
      <point x="284" y="724"/>
      <point x="285" y="731"/>
      <point x="285" y="737" type="curve" smooth="yes"/>
      <point x="285" y="760"/>
      <point x="248" y="783"/>
      <point x="228" y="783" type="curve" smooth="yes"/>
      <point x="218" y="783"/>
      <point x="209" y="778"/>
      <point x="201" y="767" type="curve" smooth="yes"/>
      <point x="102" y="629.5"/>
      <point x="51" y="461"/>
      <point x="51" y="287" type="curve" smooth="yes"/>
      <point x="51" y="113"/>
      <point x="104" y="-53"/>
      <point x="201" y="-192" type="curve" smooth="yes"/>
      <point x="209" y="-203"/>
      <point x="218" y="-208"/>
    </contour>
  </outline>
</glyph>
<glyph name="parenright" format="2">
  <advance width="301"/>
  <unicode hex="0029"/>
  <outline>
    <contour>
      <point x="70" y="-208" type="curve" smooth="yes"/>
      <point x="80" y="-208"/>
      <point x="89" y="-203"/>
      <point x="97" y="-192" type="curve" smooth="yes"/>
      <point x="196" y="-54.5"/>
      <point x="247" y="113"/>
      <point x="247" y="287" type="curve" smooth="yes"/>
      <point x="247" y="461"/>
      <point x="194" y="628"/>
      <point x="97" y="767" type="curve" smooth="yes"/>
      <point x="89" y="778"/>
      <point x="80" y="783"/>
      <point x="70" y="783" type="curve" smooth="yes"/>
      <point x="50" y="783"/>
      <point x="13" y="760"/>
      <point x="13" y="737" type="curve" smooth="yes"/>
      <point x="13" y="731"/>
      <point x="14" y="724"/>
      <point x="18" y="717" type="curve" smooth="yes"/>
      <point x="102" y="566.5"/>
      <point x="130" y="437"/>
      <point x="130" y="287" type="curve" smooth="yes"/>
      <point x="130" y="138"/>
      <point x="99" y="10"/>
      <point x="18" y="-142" type="curve" smooth="yes"/>
      <point x="14" y="-149"/>
      <point x="13" y="-156"/>
      <point x="13" y="-162" type="curve" smooth="yes"/>
      <point x="13" y="-185"/>
      <point x="50" y="-208"/>
    </contour>
  </outline>
</glyph>
<glyph name="asterisk" format="2">
  <advance width="373"/>
  <unicode hex="002A"/>
  <outline>
    <contour>
      <point x="105" y="411" type="curve" smooth="yes"/>
      <point x="112" y="411"/>
      <point x="120" y="415"/>
      <point x="128" y="426" type="curve" smooth="yes"/>
      <point x="187" y="509" type="line"/>
      <point x="246" y="426" type="line" smooth="yes"/>
      <point x="253" y="416"/>
      <point x="261" y="411"/>
      <point x="269" y="411" type="curve" smooth="yes"/>
      <point x="282" y="411"/>
      <point x="302" y="428"/>
      <point x="302" y="440" type="curve" smooth="yes"/>
      <point x="302" y="446"/>
      <point x="300" y="453"/>
      <point x="294" y="460" type="curve"/>
      <point x="237" y="539" type="line"/>
      <point x="313" y="563" type="line" smooth="yes"/>
      <point x="328" y="568"/>
      <point x="335" y="574"/>
      <point x="335" y="586" type="curve" smooth="yes"/>
      <point x="335" y="610"/>
      <point x="319" y="623"/>
      <point x="306" y="623" type="curve" smooth="yes"/>
      <point x="302" y="623"/>
      <point x="298" y="623"/>
      <point x="293" y="621" type="curve" smooth="yes"/>
      <point x="218" y="596" type="line"/>
      <point x="218" y="678" type="line" smooth="yes"/>
      <point x="218" y="699"/>
      <point x="209" y="708"/>
      <point x="188" y="708" type="curve" smooth="yes"/>
      <point x="167" y="708"/>
      <point x="158" y="699"/>
      <point x="158" y="678" type="curve" smooth="yes"/>
      <point x="158" y="596" type="line"/>
      <point x="81" y="621" type="line" smooth="yes"/>
      <point x="76" y="623"/>
      <point x="71" y="623"/>
      <point x="67" y="623" type="curve" smooth="yes"/>
      <point x="46" y="623"/>
      <point x="39" y="600"/>
      <point x="39" y="586" type="curve" smooth="yes"/>
      <point x="39" y="575"/>
      <point x="46" y="568"/>
      <point x="61" y="563" type="curve" smooth="yes"/>
      <point x="136" y="539" type="line"/>
      <point x="80" y="460" type="line"/>
      <point x="74" y="453"/>
      <point x="71" y="446"/>
      <point x="71" y="440" type="curve" smooth="yes"/>
      <point x="71" y="428"/>
      <point x="91" y="411"/>
    </contour>
  </outline>
</glyph>
<glyph name="plus" format="2">
  <advance width="560"/>
  <unicode hex="002B"/>
  <outline>
    <contour>
      <point x="272" y="0" type="curve" smooth="yes"/>
      <point x="286" y="0" type="line" smooth="yes"/>
      <point x="321" y="0"/>
      <point x="336" y="9"/>
      <point x="336" y="30" type="curve" smooth="yes"/>
      <point x="336" y="182" type="line"/>
      <point x="490" y="182" type="line" smooth="yes"/>
      <point x="511" y="182"/>
      <point x="520" y="197"/>
      <point x="520" y="232" type="curve" smooth="yes"/>
      <point x="520" y="239" type="line" smooth="yes"/>
      <point x="520" y="274"/>
      <point x="511" y="289"/>
      <point x="490" y="289" type="curve" smooth="yes"/>
      <point x="336" y="289" type="line"/>
      <point x="336" y="443" type="line" smooth="yes"/>
      <point x="336" y="464"/>
      <point x="321" y="473"/>
      <point x="286" y="473" type="curve" smooth="yes"/>
      <point x="272" y="473" type="line" smooth="yes"/>
      <point x="237" y="473"/>
      <point x="222" y="464"/>
      <point x="222" y="443" type="curve" smooth="yes"/>
      <point x="222" y="289" type="line"/>
      <point x="70" y="289" type="line" smooth="yes"/>
      <point x="49" y="289"/>
      <point x="40" y="274"/>
      <point x="40" y="239" type="curve" smooth="yes"/>
      <point x="40" y="232" type="line" smooth="yes"/>
      <point x="40" y="197"/>
      <point x="49" y="182"/>
      <point x="70" y="182" type="curve"/>
      <point x="222" y="182" type="line"/>
      <point x="222" y="30" type="line" smooth="yes"/>
      <point x="222" y="9"/>
      <point x="237" y="0"/>
    </contour>
  </outline>
</glyph>
<glyph name="comma" format="2">
  <advance width="198"/>
  <unicode hex="002C"/>
  <outline>
    <contour>
      <point x="33" y="-125" type="curve" smooth="yes"/>
      <point x="77" y="-125"/>
      <point x="171" y="-2"/>
      <point x="171" y="110" type="curve" smooth="yes"/>
      <point x="171" y="135"/>
      <point x="153" y="154"/>
      <point x="111" y="154" type="curve" smooth="yes"/>
      <point x="92" y="154" type="line" smooth="yes"/>
      <point x="50" y="154"/>
      <point x="32" y="137"/>
      <point x="32" y="110" type="curve" smooth="yes"/>
      <point x="32" y="12"/>
      <point x="9" y="-38"/>
      <point x="-3" y="-70" type="curve" smooth="yes"/>
      <point x="-8" y="-83"/>
      <point x="-12" y="-94"/>
      <point x="-12" y="-103" type="curve" smooth="yes"/>
      <point x="-12" y="-119"/>
      <point x="15" y="-125"/>
    </contour>
  </outline>
</glyph>
<glyph name="period" format="2">
  <advance width="198"/>
  <unicode hex="002E"/>
  <outline>
    <contour>
      <point x="83" y="-2" type="curve" smooth="yes"/>
      <point x="115" y="-2" type="line" smooth="yes"/>
      <point x="157" y="-2"/>
      <point x="175" y="9"/>
      <point x="175" y="30" type="curve" smooth="yes"/>
      <point x="175" y="122" type="line" smooth="yes"/>
      <point x="175" y="143"/>
      <point x="157" y="154"/>
      <point x="115" y="154" type="curve" smooth="yes"/>
      <point x="83" y="154" type="line" smooth="yes"/>
      <point x="41" y="154"/>
      <point x="23" y="143"/>
      <point x="23" y="122" type="curve" smooth="yes"/>
      <point x="23" y="30" type="line" smooth="yes"/>
      <point x="23" y="9"/>
      <point x="41" y="-2"/>
    </contour>
  </outline>
</glyph>
<glyph name="slash" format="2">
  <advance width="422"/>
  <unicode hex="002F"/>
  <outline>
    <contour>
      <point x="49" y="-79" type="curve" smooth="yes"/>
      <point x="67" y="-79" type="line" smooth="yes"/>
      <point x="98" y="-79"/>
      <point x="117" y="-75"/>
      <point x="125" y="-54" type="curve" smooth="yes"/>
      <point x="415" y="664" type="line" smooth="yes"/>
      <point x="421" y="678"/>
      <point x="422" y="682"/>
      <point x="422" y="686" type="curve" smooth="yes"/>
      <point x="422" y="696"/>
      <point x="406" y="702"/>
      <point x="369" y="702" type="curve" smooth="yes"/>
      <point x="356" y="702" type="line" smooth="yes"/>
      <point x="325" y="702"/>
      <point x="305" y="696"/>
      <point x="297" y="677" type="curve" smooth="yes"/>
      <point x="8" y="-41" type="line" smooth="yes"/>
      <point x="4" y="-51"/>
      <point x="0" y="-60"/>
      <point x="0" y="-63" type="curve" smooth="yes"/>
      <point x="0" y="-73"/>
      <point x="14" y="-79"/>
    </contour>
  </outline>
</glyph>
<glyph name="zero" format="2">
  <advance width="535"/>
  <unicode hex="0030"/>
  <outline>
    <contour>
      <point x="268" y="-8" type="curve" smooth="yes"/>
      <point x="416" y="-8"/>
      <point x="505" y="125"/>
      <point x="505" y="350" type="curve" smooth="yes"/>
      <point x="505" y="575"/>
      <point x="416" y="708"/>
      <point x="268" y="708" type="curve" smooth="yes"/>
      <point x="120" y="708"/>
      <point x="31" y="575"/>
      <point x="31" y="350" type="curve" smooth="yes"/>
      <point x="31" y="125"/>
      <point x="120" y="-8"/>
    </contour>
    <contour>
      <point x="268" y="109" type="curve" smooth="yes"/>
      <point x="212" y="109"/>
      <point x="181" y="191"/>
      <point x="181" y="350" type="curve" smooth="yes"/>
      <point x="181" y="509"/>
      <point x="212" y="591"/>
      <point x="268" y="591" type="curve" smooth="yes"/>
      <point x="324" y="591"/>
      <point x="355" y="509"/>
      <point x="355" y="350" type="curve" smooth="yes"/>
      <point x="355" y="191"/>
      <point x="324" y="109"/>
    </contour>
  </outline>
</glyph>
<glyph name="one" format="2">
  <advance width="535"/>
  <unicode hex="0031"/>
  <outline>
    <contour>
      <point x="84" y="0" type="curve" smooth="yes"/>
      <point x="462" y="0" type="line" smooth="yes"/>
      <point x="483" y="0"/>
      <point x="492" y="15"/>
      <point x="492" y="50" type="curve" smooth="yes"/>
      <point x="492" y="67" type="line" smooth="yes"/>
      <point x="492" y="102"/>
      <point x="483" y="117"/>
      <point x="462" y="117" type="curve" smooth="yes"/>
      <point x="365" y="117" type="line"/>
      <point x="365" y="680" type="line" smooth="yes"/>
      <point x="365" y="692"/>
      <point x="340" y="704"/>
      <point x="324" y="704" type="curve"/>
      <point x="75" y="658" type="line" smooth="yes"/>
      <point x="58" y="655"/>
      <point x="49" y="645"/>
      <point x="49" y="630" type="curve" smooth="yes"/>
      <point x="49" y="602"/>
      <point x="55" y="546"/>
      <point x="81" y="546" type="curve"/>
      <point x="217" y="566" type="line"/>
      <point x="217" y="117" type="line"/>
      <point x="84" y="117" type="line" smooth="yes"/>
      <point x="63" y="117"/>
      <point x="54" y="102"/>
      <point x="54" y="67" type="curve" smooth="yes"/>
      <point x="54" y="50" type="line" smooth="yes"/>
      <point x="54" y="15"/>
      <point x="63" y="0"/>
    </contour>
  </outline>
</glyph>
<glyph name="two" format="2">
  <advance width="535"/>
  <unicode hex="0032"/>
  <outline>
    <contour>
      <point x="63" y="0" type="curve"/>
      <point x="461" y="0" type="line" smooth="yes"/>
      <point x="482" y="0"/>
      <point x="491" y="15"/>
      <point x="491" y="50" type="curve" smooth="yes"/>
      <point x="491" y="67" type="line" smooth="yes"/>
      <point x="491" y="102"/>
      <point x="482" y="117"/>
      <point x="461" y="117" type="curve" smooth="yes"/>
      <point x="230" y="117" type="line"/>
      <point x="418" y="349" type="line" smooth="yes"/>
      <point x="454" y="393"/>
      <point x="479" y="448"/>
      <point x="479" y="512" type="curve" smooth="yes"/>
      <point x="479" y="626"/>
      <point x="402" y="708"/>
      <point x="261" y="708" type="curve" smooth="yes"/>
      <point x="167" y="708"/>
      <point x="62" y="675"/>
      <point x="62" y="616" type="curve" smooth="yes"/>
      <point x="62" y="590"/>
      <point x="88" y="547"/>
      <point x="119" y="547" type="curve" smooth="yes"/>
      <point x="137" y="547"/>
      <point x="172" y="590"/>
      <point x="236" y="590" type="curve" smooth="yes"/>
      <point x="289" y="590"/>
      <point x="329" y="563"/>
      <point x="329" y="509" type="curve" smooth="yes"/>
      <point x="329" y="472"/>
      <point x="313" y="440"/>
      <point x="291" y="413" type="curve" smooth="yes"/>
      <point x="38" y="103" type="line" smooth="yes"/>
      <point x="36" y="100"/>
      <point x="35" y="95"/>
      <point x="35" y="88" type="curve" smooth="yes"/>
      <point x="35" y="59"/>
      <point x="48" y="0"/>
    </contour>
  </outline>
</glyph>
<glyph name="four" format="2">
  <advance width="535"/>
  <unicode hex="0034"/>
  <outline>
    <contour>
      <point x="362" y="-2" type="curve" smooth="yes"/>
      <point x="390" y="-2" type="line" smooth="yes"/>
      <point x="432" y="-2"/>
      <point x="450" y="9"/>
      <point x="450" y="30" type="curve" smooth="yes"/>
      <point x="450" y="142" type="line"/>
      <point x="488" y="142" type="line" smooth="yes"/>
      <point x="509" y="142"/>
      <point x="518" y="157"/>
      <point x="518" y="192" type="curve" smooth="yes"/>
      <point x="518" y="209" type="line" smooth="yes"/>
      <point x="518" y="244"/>
      <point x="509" y="259"/>
      <point x="488" y="259" type="curve" smooth="yes"/>
      <point x="450" y="259" type="line"/>
      <point x="450" y="670" type="line" smooth="yes"/>
      <point x="450" y="691"/>
      <point x="432" y="702"/>
      <point x="390" y="702" type="curve" smooth="yes"/>
      <point x="363" y="702" type="line" smooth="yes"/>
      <point x="334" y="702"/>
      <point x="314" y="700"/>
      <point x="302" y="683" type="curve" smooth="yes"/>
      <point x="5" y="246" type="line" smooth="yes"/>
      <point x="4" y="244"/>
      <point x="3" y="240"/>
      <point x="3" y="235" type="curve" smooth="yes"/>
      <point x="3" y="208"/>
      <point x="23" y="142"/>
      <point x="40" y="142" type="curve"/>
      <point x="302" y="142" type="line"/>
      <point x="302" y="30" type="line" smooth="yes"/>
      <point x="302" y="9"/>
      <point x="320" y="-2"/>
    </contour>
    <contour>
      <point x="152" y="259" type="line"/>
      <point x="309" y="507" type="line"/>
      <point x="313" y="506" type="line"/>
      <point x="307" y="484"/>
      <point x="302" y="444"/>
      <point x="302" y="413" type="curve" smooth="yes"/>
      <point x="302" y="259" type="line"/>
    </contour>
  </outline>
</glyph>
<glyph name="five" format="2">
  <advance width="535"/>
  <unicode hex="0035"/>
  <outline>
    <contour>
      <point x="234" y="-8" type="curve" smooth="yes"/>
      <point x="355" y="-8"/>
      <point x="490" y="47"/>
      <point x="490" y="216" type="curve" smooth="yes"/>
      <point x="490" y="388"/>
      <point x="390" y="440"/>
      <point x="239" y="440" type="curve" smooth="yes"/>
      <point x="213" y="440" type="line"/>
      <point x="223" y="583" type="line"/>
      <point x="425" y="583" type="line" smooth="yes"/>
      <point x="446" y="583"/>
      <point x="455" y="595"/>
      <point x="455" y="623" type="curve" smooth="yes"/>
      <point x="455" y="650" type="line" smooth="yes"/>
      <point x="455" y="685"/>
      <point x="446" y="700"/>
      <point x="425" y="700" type="curve" smooth="yes"/>
      <point x="130" y="700" type="line" smooth="yes"/>
      <point x="101" y="700"/>
      <point x="90" y="688"/>
      <point x="88" y="660" type="curve" smooth="yes"/>
      <point x="69" y="363" type="line"/>
      <point x="69" y="335"/>
      <point x="77" y="323"/>
      <point x="106" y="323" type="curve" smooth="yes"/>
      <point x="215" y="323" type="line" smooth="yes"/>
      <point x="307" y="323"/>
      <point x="340" y="282"/>
      <point x="340" y="212" type="curve" smooth="yes"/>
      <point x="340" y="147"/>
      <point x="298" y="109"/>
      <point x="233" y="109" type="curve" smooth="yes"/>
      <point x="153" y="109"/>
      <point x="103" y="143"/>
      <point x="92" y="143" type="curve" smooth="yes"/>
      <point x="69" y="143"/>
      <point x="38" y="82"/>
      <point x="38" y="64" type="curve" smooth="yes"/>
      <point x="38" y="24"/>
      <point x="121" y="-8"/>
    </contour>
  </outline>
</glyph>
<glyph name="seven" format="2">
  <advance width="535"/>
  <unicode hex="0037"/>
  <outline>
    <contour>
      <point x="144" y="-2" type="curve" smooth="yes"/>
      <point x="181" y="-2" type="line" smooth="yes"/>
      <point x="210" y="-2"/>
      <point x="232" y="2"/>
      <point x="239" y="18" type="curve" smooth="yes"/>
      <point x="502" y="597" type="line" smooth="yes"/>
      <point x="503" y="600"/>
      <point x="504" y="605"/>
      <point x="504" y="610" type="curve" smooth="yes"/>
      <point x="504" y="641"/>
      <point x="485" y="700"/>
      <point x="474" y="700" type="curve" smooth="yes"/>
      <point x="78" y="700" type="line" smooth="yes"/>
      <point x="57" y="700"/>
      <point x="48" y="685"/>
      <point x="48" y="650" type="curve" smooth="yes"/>
      <point x="48" y="633" type="line" smooth="yes"/>
      <point x="48" y="598"/>
      <point x="57" y="583"/>
      <point x="78" y="583" type="curve" smooth="yes"/>
      <point x="339" y="583" type="line"/>
      <point x="91" y="36" type="line" smooth="yes"/>
      <point x="87" y="28"/>
      <point x="85" y="22"/>
      <point x="85" y="17" type="curve" smooth="yes"/>
      <point x="85" y="5"/>
      <point x="104" y="-2"/>
    </contour>
  </outline>
</glyph>
<glyph name="nine" format="2">
  <advance width="535"/>
  <unicode hex="0039"/>
  <outline>
    <contour>
      <point x="147" y="-5" type="curve" smooth="yes"/>
      <point x="161" y="-5"/>
      <point x="501" y="62"/>
      <point x="501" y="446" type="curve" smooth="yes"/>
      <point x="501" y="639"/>
      <point x="378" y="707"/>
      <point x="265" y="707" type="curve" smooth="yes"/>
      <point x="152" y="707"/>
      <point x="30" y="645"/>
      <point x="30" y="483" type="curve" smooth="yes"/>
      <point x="30" y="321"/>
      <point x="153" y="271"/>
      <point x="227" y="271" type="curve" smooth="yes"/>
      <point x="256" y="271"/>
      <point x="288" y="275"/>
      <point x="327" y="296" type="curve"/>
      <point x="294" y="197"/>
      <point x="208" y="126"/>
      <point x="110" y="99" type="curve" smooth="yes"/>
      <point x="99" y="96"/>
      <point x="97" y="92"/>
      <point x="97" y="78" type="curve" smooth="yes"/>
      <point x="97" y="58"/>
      <point x="113" y="-5"/>
    </contour>
    <contour>
      <point x="270" y="388" type="curve" smooth="yes"/>
      <point x="212" y="388"/>
      <point x="179" y="426"/>
      <point x="179" y="487" type="curve" smooth="yes"/>
      <point x="179" y="548"/>
      <point x="217" y="590"/>
      <point x="264" y="590" type="curve" smooth="yes"/>
      <point x="311" y="590"/>
      <point x="350" y="557"/>
      <point x="350" y="458" type="curve" smooth="yes"/>
      <point x="350" y="442"/>
      <point x="350" y="427"/>
      <point x="349" y="412" type="curve"/>
      <point x="324" y="398"/>
      <point x="297" y="388"/>
    </contour>
  </outline>
</glyph>
<glyph name="colon" format="2">
  <advance width="198"/>
  <unicode hex="003A"/>
  <outline>
    <contour>
      <point x="83" y="369" type="curve" smooth="yes"/>
      <point x="115" y="369" type="line" smooth="yes"/>
      <point x="157" y="369"/>
      <point x="175" y="380"/>
      <point x="175" y="401" type="curve" smooth="yes"/>
      <point x="175" y="493" type="line" smooth="yes"/>
      <point x="175" y="514"/>
      <point x="157" y="525"/>
      <point x="115" y="525" type="curve" smooth="yes"/>
      <point x="83" y="525" type="line" smooth="yes"/>
      <point x="41" y="525"/>
      <point x="23" y="514"/>
      <point x="23" y="493" type="curve" smooth="yes"/>
      <point x="23" y="401" type="line" smooth="yes"/>
      <point x="23" y="380"/>
      <point x="41" y="369"/>
    </contour>
    <contour>
      <point x="83" y="-2" type="curve" smooth="yes"/>
      <point x="115" y="-2" type="line" smooth="yes"/>
      <point x="157" y="-2"/>
      <point x="175" y="9"/>
      <point x="175" y="30" type="curve" smooth="yes"/>
      <point x="175" y="122" type="line" smooth="yes"/>
      <point x="175" y="143"/>
      <point x="157" y="154"/>
      <point x="115" y="154" type="curve" smooth="yes"/>
      <point x="83" y="154" type="line" smooth="yes"/>
      <point x="41" y="154"/>
      <point x="23" y="143"/>
      <point x="23" y="122" type="curve" smooth="yes"/>
      <point x="23" y="30" type="line" smooth="yes"/>
      <point x="23" y="9"/>
      <point x="41" y="-2"/>
    </contour>
  </outline>
</glyph>
<glyph name="semicolon" format="2">
  <advance width="198"/>
  <unicode hex="003B"/>
  <outline>
    <contour>
      <point x="83" y="369" type="curve" smooth="yes"/>
      <point x="115" y="369" type="line" smooth="yes"/>
      <point x="157" y="369"/>
      <point x="175" y="380"/>
      <point x="175" y="401" type="curve" smooth="yes"/>
      <point x="175" y="493" type="line" smooth="yes"/>
      <point x="175" y="514"/>
      <point x="157" y="525"/>
      <point x="115" y="525" type="curve" smooth="yes"/>
      <point x="83" y="525" type="line" smooth="yes"/>
      <point x="41" y="525"/>
      <point x="23" y="514"/>
      <point x="23" y="493" type="curve" smooth="yes"/>
      <point x="23" y="401" type="line" smooth="yes"/>
      <point x="23" y="380"/>
      <point x="41" y="369"/>
    </contour>
    <component base="comma"/>
  </outline>
</glyph>
<glyph name="less" format="2">
  <advance width="560"/>
  <unicode hex="003C"/>
  <outline>
    <contour>
      <point x="504" y="10" type="curve" smooth="yes"/>
      <point x="500" y="10"/>
      <point x="495" y="11"/>
      <point x="489" y="14" type="curve" smooth="yes"/>
      <point x="69" y="194" type="line" smooth="yes"/>
      <point x="49" y="203"/>
      <point x="41" y="214"/>
      <point x="41" y="236" type="curve" smooth="yes"/>
      <point x="41" y="255" type="line" smooth="yes"/>
      <point x="41" y="276"/>
      <point x="49" y="288"/>
      <point x="69" y="297" type="curve" smooth="yes"/>
      <point x="488" y="476" type="line" smooth="yes"/>
      <point x="494" y="479"/>
      <point x="499" y="479"/>
      <point x="503" y="479" type="curve" smooth="yes"/>
      <point x="512" y="479"/>
      <point x="518" y="467"/>
      <point x="518" y="438" type="curve" smooth="yes"/>
      <point x="518" y="422" type="line" smooth="yes"/>
      <point x="518" y="391"/>
      <point x="510" y="370"/>
      <point x="488" y="361" type="curve" smooth="yes"/>
      <point x="196" y="245" type="line"/>
      <point x="489" y="129" type="line" smooth="yes"/>
      <point x="511" y="120"/>
      <point x="519" y="99"/>
      <point x="519" y="68" type="curve" smooth="yes"/>
      <point x="519" y="52" type="line" smooth="yes"/>
      <point x="519" y="23"/>
      <point x="513" y="10"/>
    </contour>
  </outline>
</glyph>
<glyph name="equal" format="2">
  <advance width="560"/>
  <unicode hex="003D"/>
  <outline>
    <contour>
      <point x="70" y="267" type="curve" smooth="yes"/>
      <point x="490" y="267" type="line" smooth="yes"/>
      <point x="511" y="267"/>
      <point x="520" y="282"/>
      <point x="520" y="317" type="curve" smooth="yes"/>
      <point x="520" y="324" type="line" smooth="yes"/>
      <point x="520" y="359"/>
      <point x="511" y="374"/>
      <point x="490" y="374" type="curve" smooth="yes"/>
      <point x="70" y="374" type="line" smooth="yes"/>
      <point x="49" y="374"/>
      <point x="40" y="359"/>
      <point x="40" y="324" type="curve" smooth="yes"/>
      <point x="40" y="317" type="line" smooth="yes"/>
      <point x="40" y="282"/>
      <point x="49" y="267"/>
    </contour>
    <contour>
      <point x="70" y="87" type="curve" smooth="yes"/>
      <point x="490" y="87" type="line" smooth="yes"/>
      <point x="511" y="87"/>
      <point x="520" y="102"/>
      <point x="520" y="137" type="curve" smooth="yes"/>
      <point x="520" y="144" type="line" smooth="yes"/>
      <point x="520" y="179"/>
      <point x="511" y="194"/>
      <point x="490" y="194" type="curve" smooth="yes"/>
      <point x="70" y="194" type="line" smooth="yes"/>
      <point x="49" y="194"/>
      <point x="40" y="179"/>
      <point x="40" y="144" type="curve" smooth="yes"/>
      <point x="40" y="137" type="line" smooth="yes"/>
      <point x="40" y="102"/>
      <point x="49" y="87"/>
    </contour>
  </outline>
</glyph>
<glyph name="greater" format="2">
  <advance width="560"/>
  <unicode hex="003E"/>
  <outline>
    <contour>
      <point x="55" y="10" type="curve" smooth="yes"/>
      <point x="59" y="10"/>
      <point x="64" y="11"/>
      <point x="70" y="14" type="curve" smooth="yes"/>
      <point x="490" y="194" type="line" smooth="yes"/>
      <point x="510" y="203"/>
      <point x="518" y="214"/>
      <point x="518" y="236" type="curve" smooth="yes"/>
      <point x="518" y="255" type="line" smooth="yes"/>
      <point x="518" y="276"/>
      <point x="510" y="288"/>
      <point x="490" y="297" type="curve" smooth="yes"/>
      <point x="71" y="476" type="line" smooth="yes"/>
      <point x="65" y="479"/>
      <point x="60" y="479"/>
      <point x="56" y="479" type="curve" smooth="yes"/>
      <point x="47" y="479"/>
      <point x="41" y="467"/>
      <point x="41" y="438" type="curve" smooth="yes"/>
      <point x="41" y="422" type="line" smooth="yes"/>
      <point x="41" y="391"/>
      <point x="49" y="370"/>
      <point x="71" y="361" type="curve" smooth="yes"/>
      <point x="363" y="245" type="line"/>
      <point x="70" y="129" type="line" smooth="yes"/>
      <point x="48" y="120"/>
      <point x="40" y="99"/>
      <point x="40" y="68" type="curve" smooth="yes"/>
      <point x="40" y="52" type="line" smooth="yes"/>
      <point x="40" y="23"/>
      <point x="46" y="10"/>
    </contour>
  </outline>
</glyph>
<glyph name="question" format="2">
  <advance width="445"/>
  <unicode hex="003F"/>
  <outline>
    <contour>
      <point x="167" y="222" type="curve" smooth="yes"/>
      <point x="190" y="222" type="line" smooth="yes"/>
      <point x="223" y="222"/>
      <point x="239" y="228"/>
      <point x="243" y="249" type="curve" smooth="yes"/>
      <point x="252" y="294"/>
      <point x="294" y="325"/>
      <point x="335" y="362" type="curve" smooth="yes"/>
      <point x="381" y="403"/>
      <point x="429" y="449"/>
      <point x="429" y="530" type="curve" smooth="yes"/>
      <point x="429" y="640"/>
      <point x="346" y="708"/>
      <point x="212" y="708" type="curve" smooth="yes"/>
      <point x="134" y="708"/>
      <point x="24" y="686"/>
      <point x="24" y="627" type="curve" smooth="yes"/>
      <point x="24" y="606"/>
      <point x="59" y="545"/>
      <point x="87" y="545" type="curve" smooth="yes"/>
      <point x="101" y="545"/>
      <point x="141" y="576"/>
      <point x="199" y="576" type="curve" smooth="yes"/>
      <point x="250" y="576"/>
      <point x="273" y="555"/>
      <point x="273" y="520" type="curve" smooth="yes"/>
      <point x="273" y="487"/>
      <point x="228" y="448"/>
      <point x="186" y="399" type="curve" smooth="yes"/>
      <point x="151" y="358"/>
      <point x="118" y="309"/>
      <point x="118" y="251" type="curve" smooth="yes"/>
      <point x="118" y="230"/>
      <point x="132" y="222"/>
    </contour>
    <contour>
      <point x="162" y="-2" type="curve" smooth="yes"/>
      <point x="194" y="-2" type="line" smooth="yes"/>
      <point x="236" y="-2"/>
      <point x="254" y="9"/>
      <point x="254" y="30" type="curve" smooth="yes"/>
      <point x="254" y="122" type="line" smooth="yes"/>
      <point x="254" y="143"/>
      <point x="236" y="154"/>
      <point x="194" y="154" type="curve" smooth="yes"/>
      <point x="162" y="154" type="line" smooth="yes"/>
      <point x="120" y="154"/>
      <point x="102" y="143"/>
      <point x="102" y="122" type="curve" smooth="yes"/>
      <point x="102" y="30" type="line" smooth="yes"/>
      <point x="102" y="9"/>
      <point x="120" y="-2"/>
    </contour>
  </outline>
</glyph>
<glyph name="at" format="2">
  <advance width="974"/>
  <unicode hex="0040"/>
  <outline>
    <contour>
      <point x="420" y="-123" type="curve" smooth="yes"/>
      <point x="471" y="-123"/>
      <point x="588" y="-112"/>
      <point x="588" y="-73" type="curve" smooth="yes"/>
      <point x="588" y="-50"/>
      <point x="583" y="-40"/>
      <point x="574" y="-40" type="curve" smooth="yes"/>
      <point x="550" y="-40"/>
      <point x="517" y="-69"/>
      <point x="420" y="-69" type="curve" smooth="yes"/>
      <point x="264" y="-69"/>
      <point x="158" y="56"/>
      <point x="158" y="240" type="curve" smooth="yes"/>
      <point x="158" y="472"/>
      <point x="328" y="654"/>
      <point x="544" y="654" type="curve" smooth="yes"/>
      <point x="705" y="654"/>
      <point x="813" y="546"/>
      <point x="813" y="383" type="curve" smooth="yes"/>
      <point x="813" y="252"/>
      <point x="754" y="141"/>
      <point x="684" y="141" type="curve" smooth="yes"/>
      <point x="660" y="141"/>
      <point x="649" y="153"/>
      <point x="649" y="177" type="curve" smooth="yes"/>
      <point x="649" y="195"/>
      <point x="680" y="472"/>
      <point x="680" y="477" type="curve" smooth="yes"/>
      <point x="680" y="493"/>
      <point x="667" y="503"/>
      <point x="633" y="503" type="curve" smooth="yes"/>
      <point x="621" y="503" type="line" smooth="yes"/>
      <point x="584" y="503"/>
      <point x="576" y="491"/>
      <point x="569" y="463" type="curve"/>
      <point x="552" y="480"/>
      <point x="515" y="508"/>
      <point x="467" y="508" type="curve" smooth="yes"/>
      <point x="358" y="508"/>
      <point x="282" y="400"/>
      <point x="282" y="239" type="curve" smooth="yes"/>
      <point x="282" y="121"/>
      <point x="336" y="58"/>
      <point x="417" y="58" type="curve" smooth="yes"/>
      <point x="483" y="58"/>
      <point x="534" y="106"/>
      <point x="545" y="161" type="curve"/>
      <point x="526" y="177" type="line"/>
      <point x="526" y="145" type="line" smooth="yes"/>
      <point x="526" y="106"/>
      <point x="566" y="58"/>
      <point x="644" y="58" type="curve" smooth="yes"/>
      <point x="775" y="58"/>
      <point x="877" y="202"/>
      <point x="877" y="383" type="curve" smooth="yes"/>
      <point x="877" y="579"/>
      <point x="745" y="708"/>
      <point x="544" y="708" type="curve" smooth="yes"/>
      <point x="291" y="708"/>
      <point x="94" y="503"/>
      <point x="94" y="240" type="curve" smooth="yes"/>
      <point x="94" y="24"/>
      <point x="226" y="-123"/>
    </contour>
    <contour>
      <point x="464" y="159" type="curve" smooth="yes"/>
      <point x="426" y="159"/>
      <point x="407" y="189"/>
      <point x="407" y="247" type="curve" smooth="yes"/>
      <point x="407" y="354"/>
      <point x="440" y="410"/>
      <point x="496" y="410" type="curve" smooth="yes"/>
      <point x="519" y="410"/>
      <point x="536" y="400"/>
      <point x="550" y="387" type="curve"/>
      <point x="537" y="327"/>
      <point x="533" y="267"/>
      <point x="529" y="207" type="curve"/>
      <point x="512" y="181"/>
      <point x="491" y="159"/>
    </contour>
  </outline>
</glyph>
<glyph name="A" format="2">
  <advance width="613"/>
  <unicode hex="0041"/>
  <anchor x="307" y="0" name="bottom"/>
  <anchor x="590" y="0" name="ogonek"/>
  <anchor x="307" y="700" name="top"/>
  <outline>
    <contour>
      <point x="61" y="-2" type="curve" smooth="yes"/>
      <point x="101" y="-2" type="line" smooth="yes"/>
      <point x="125" y="-2"/>
      <point x="142" y="4"/>
      <point x="147" y="19" type="curve" smooth="yes"/>
      <point x="187" y="141" type="line"/>
      <point x="423" y="141" type="line"/>
      <point x="463" y="19" type="line" smooth="yes"/>
      <point x="468" y="3"/>
      <point x="490" y="-2"/>
      <point x="519" y="-2" type="curve" smooth="yes"/>
      <point x="563" y="-2" type="line" smooth="yes"/>
      <point x="598" y="-2"/>
      <point x="613" y="6"/>
      <point x="613" y="20" type="curve" smooth="yes"/>
      <point x="613" y="25"/>
      <point x="612" y="31"/>
      <point x="610" y="38" type="curve" smooth="yes"/>
      <point x="390" y="681" type="line" smooth="yes"/>
      <point x="385" y="695"/>
      <point x="366.5" y="702"/>
      <point x="333" y="702" type="curve" smooth="yes"/>
      <point x="281" y="702" type="line" smooth="yes"/>
      <point x="247.5" y="702"/>
      <point x="229" y="695"/>
      <point x="224" y="681" type="curve" smooth="yes"/>
      <point x="4" y="38" type="line" smooth="yes"/>
      <point x="2" y="31"/>
      <point x="0" y="25"/>
      <point x="0" y="20" type="curve" smooth="yes"/>
      <point x="0" y="6"/>
      <point x="19" y="-2"/>
    </contour>
    <contour>
      <point x="230" y="273" type="line"/>
      <point x="289" y="451" type="line" smooth="yes"/>
      <point x="296.5" y="472"/>
      <point x="300" y="494"/>
      <point x="304" y="515" type="curve"/>
      <point x="308" y="515" type="line"/>
      <point x="312" y="494"/>
      <point x="316" y="472"/>
      <point x="323" y="451" type="curve" smooth="yes"/>
      <point x="380" y="273" type="line"/>
    </contour>
  </outline>
</glyph>
<glyph name="C" format="2">
  <advance width="619"/>
  <unicode hex="0043"/>
  <anchor x="343" y="0" name="bottom"/>
  <anchor x="368" y="700" name="top"/>
  <outline>
    <contour>
      <point x="374" y="-8" type="curve" smooth="yes"/>
      <point x="429" y="-8"/>
      <point x="514" y="3"/>
      <point x="562" y="30" type="curve" smooth="yes"/>
      <point x="583" y="42"/>
      <point x="597" y="57"/>
      <point x="597" y="76" type="curve" smooth="yes"/>
      <point x="597" y="93"/>
      <point x="570" y="163"/>
      <point x="538" y="163" type="curve" smooth="yes"/>
      <point x="523" y="163"/>
      <point x="469" y="123"/>
      <point x="374" y="123" type="curve" smooth="yes"/>
      <point x="259" y="123"/>
      <point x="203" y="201"/>
      <point x="203" y="351" type="curve" smooth="yes"/>
      <point x="203" y="501"/>
      <point x="258" y="576"/>
      <point x="376" y="576" type="curve" smooth="yes"/>
      <point x="471" y="576"/>
      <point x="511" y="544"/>
      <point x="523" y="544" type="curve" smooth="yes"/>
      <point x="548" y="544"/>
      <point x="588" y="610"/>
      <point x="588" y="638" type="curve" smooth="yes"/>
      <point x="588" y="650"/>
      <point x="578" y="661"/>
      <point x="562" y="670" type="curve" smooth="yes"/>
      <point x="522" y="694"/>
      <point x="442" y="708"/>
      <point x="379" y="708" type="curve" smooth="yes"/>
      <point x="157" y="708"/>
      <point x="45" y="590"/>
      <point x="45" y="352" type="curve" smooth="yes"/>
      <point x="45" y="105"/>
      <point x="150" y="-8"/>
    </contour>
  </outline>
</glyph>
<glyph name="E" format="2">
  <advance width="546"/>
  <unicode hex="0045"/>
  <anchor x="295" y="0" name="bottom"/>
  <anchor x="475" y="0" name="ogonek"/>
  <anchor x="286" y="700" name="top"/>
  <outline>
    <contour>
      <point x="117" y="0" type="curve" smooth="yes"/>
      <point x="469" y="0" type="line" smooth="yes"/>
      <point x="490" y="0"/>
      <point x="499" y="15"/>
      <point x="499" y="50" type="curve" smooth="yes"/>
      <point x="499" y="81" type="line" smooth="yes"/>
      <point x="499" y="116"/>
      <point x="490" y="131"/>
      <point x="469" y="131" type="curve" smooth="yes"/>
      <point x="231" y="131" type="line"/>
      <point x="231" y="293" type="line"/>
      <point x="441" y="293" type="line" smooth="yes"/>
      <point x="462" y="293"/>
      <point x="471" y="308"/>
      <point x="471" y="343" type="curve" smooth="yes"/>
      <point x="471" y="374" type="line" smooth="yes"/>
      <point x="471" y="409"/>
      <point x="462" y="424"/>
      <point x="441" y="424" type="curve" smooth="yes"/>
      <point x="231" y="424" type="line"/>
      <point x="231" y="569" type="line"/>
      <point x="468" y="569" type="line" smooth="yes"/>
      <point x="489" y="569"/>
      <point x="498" y="584"/>
      <point x="498" y="619" type="curve" smooth="yes"/>
      <point x="498" y="650" type="line" smooth="yes"/>
      <point x="498" y="685"/>
      <point x="489" y="700"/>
      <point x="468" y="700" type="curve" smooth="yes"/>
      <point x="117" y="700" type="line" smooth="yes"/>
      <point x="89" y="700"/>
      <point x="77" y="688"/>
      <point x="77" y="660" type="curve" smooth="yes"/>
      <point x="77" y="40" type="line" smooth="yes"/>
      <point x="77" y="12"/>
      <point x="89" y="0"/>
    </contour>
  </outline>
</glyph>
<glyph name="F" format="2">
  <advance width="503"/>
  <unicode hex="0046"/>
  <anchor x="153" y="0" name="bottom"/>
  <anchor x="283" y="700" name="top"/>
  <outline>
    <contour>
      <point x="136" y="-2" type="curve" smooth="yes"/>
      <point x="170" y="-2" type="line" smooth="yes"/>
      <point x="212" y="-2"/>
      <point x="230" y="9"/>
      <point x="230" y="30" type="curve" smooth="yes"/>
      <point x="230" y="262" type="line"/>
      <point x="438" y="262" type="line" smooth="yes"/>
      <point x="459" y="262"/>
      <point x="468" y="277"/>
      <point x="468" y="312" type="curve" smooth="yes"/>
      <point x="468" y="343" type="line" smooth="yes"/>
      <point x="468" y="378"/>
      <point x="459" y="393"/>
      <point x="438" y="393" type="curve" smooth="yes"/>
      <point x="230" y="393" type="line"/>
      <point x="230" y="569" type="line"/>
      <point x="445" y="569" type="line" smooth="yes"/>
      <point x="466" y="569"/>
      <point x="475" y="584"/>
      <point x="475" y="619" type="curve" smooth="yes"/>
      <point x="475" y="650" type="line" smooth="yes"/>
      <point x="475" y="685"/>
      <point x="466" y="700"/>
      <point x="445" y="700" type="curve" smooth="yes"/>
      <point x="116" y="700" type="line" smooth="yes"/>
      <point x="88" y="700"/>
      <point x="76" y="688"/>
      <point x="76" y="660" type="curve" smooth="yes"/>
      <point x="76" y="30" type="line" smooth="yes"/>
      <point x="76" y="9"/>
      <point x="94" y="-2"/>
    </contour>
  </outline>
</glyph>
<glyph name="H" format="2">
  <advance width="733"/>
  <unicode hex="0048"/>
  <anchor x="366" y="0" name="bottom"/>
  <anchor x="366" y="543" name="center"/>
  <anchor x="366" y="700" name="top"/>
  <outline>
    <contour>
      <point x="137" y="-2" type="curve" smooth="yes"/>
      <point x="172" y="-2" type="line" smooth="yes"/>
      <point x="214" y="-2"/>
      <point x="232" y="9"/>
      <point x="232" y="30" type="curve" smooth="yes"/>
      <point x="232" y="291" type="line"/>
      <point x="502" y="291" type="line"/>
      <point x="502" y="30" type="line" smooth="yes"/>
      <point x="502" y="9"/>
      <point x="520" y="-2"/>
      <point x="562" y="-2" type="curve" smooth="yes"/>
      <point x="597" y="-2" type="line" smooth="yes"/>
      <point x="639" y="-2"/>
      <point x="657" y="9"/>
      <point x="657" y="30" type="curve" smooth="yes"/>
      <point x="657" y="670" type="line" smooth="yes"/>
      <point x="657" y="691"/>
      <point x="639" y="702"/>
      <point x="597" y="702" type="curve" smooth="yes"/>
      <point x="562" y="702" type="line" smooth="yes"/>
      <point x="520" y="702"/>
      <point x="502" y="691"/>
      <point x="502" y="670" type="curve" smooth="yes"/>
      <point x="502" y="423" type="line"/>
      <point x="232" y="423" type="line"/>
      <point x="232" y="670" type="line" smooth="yes"/>
      <point x="232" y="691"/>
      <point x="214" y="702"/>
      <point x="172" y="702" type="curve" smooth="yes"/>
      <point x="137" y="702" type="line" smooth="yes"/>
      <point x="95" y="702"/>
      <point x="77" y="691"/>
      <point x="77" y="670" type="curve" smooth="yes"/>
      <point x="77" y="30" type="line" smooth="yes"/>
      <point x="77" y="9"/>
      <point x="95" y="-2"/>
    </contour>
  </outline>
</glyph>
<glyph name="J" format="2">
  <advance width="402"/>
  <unicode hex="004A"/>
  <anchor x="258" y="700" name="top"/>
  <outline>
    <contour>
      <point x="124" y="-8" type="curve" smooth="yes"/>
      <point x="273" y="-8"/>
      <point x="336" y="75"/>
      <point x="336" y="202" type="curve" smooth="yes"/>
      <point x="336" y="670" type="line" smooth="yes"/>
      <point x="336" y="691"/>
      <point x="318" y="703"/>
      <point x="276" y="703" type="curve" smooth="yes"/>
      <point x="241" y="703" type="line" smooth="yes"/>
      <point x="199" y="703"/>
      <point x="181" y="691"/>
      <point x="181" y="670" type="curve" smooth="yes"/>
      <point x="181" y="227" type="line" smooth="yes"/>
      <point x="181" y="154"/>
      <point x="157" y="123"/>
      <point x="97" y="123" type="curve" smooth="yes"/>
      <point x="65" y="123"/>
      <point x="51" y="131"/>
      <point x="41" y="131" type="curve"/>
      <point x="10" y="128"/>
      <point x="0" y="56"/>
      <point x="0" y="38" type="curve" smooth="yes"/>
      <point x="0" y="-5"/>
      <point x="100" y="-8"/>
    </contour>
  </outline>
</glyph>
<glyph name="M" format="2">
  <advance width="843"/>
  <unicode hex="004D"/>
  <outline>
    <contour>
      <point x="407" y="167" type="curve" smooth="yes"/>
      <point x="436" y="167" type="line" smooth="yes"/>
      <point x="455" y="167"/>
      <point x="467" y="174"/>
      <point x="476" y="186" type="curve"/>
      <point x="599" y="406" type="line" smooth="yes"/>
      <point x="607" y="419"/>
      <point x="614" y="431"/>
      <point x="621" y="445" type="curve"/>
      <point x="625" y="444" type="line"/>
      <point x="625" y="428"/>
      <point x="625" y="412"/>
      <point x="625" y="395" type="curve" smooth="yes"/>
      <point x="625" y="30" type="line" smooth="yes"/>
      <point x="625" y="9"/>
      <point x="643" y="-2"/>
      <point x="685" y="-2" type="curve" smooth="yes"/>
      <point x="714" y="-2" type="line" smooth="yes"/>
      <point x="756" y="-2"/>
      <point x="774" y="9"/>
      <point x="774" y="30" type="curve" smooth="yes"/>
      <point x="774" y="670" type="line" smooth="yes"/>
      <point x="774" y="691"/>
      <point x="756" y="702"/>
      <point x="714" y="702" type="curve" smooth="yes"/>
      <point x="662" y="702" type="line" smooth="yes"/>
      <point x="633" y="702"/>
      <point x="610" y="695"/>
      <point x="599" y="675" type="curve" smooth="yes"/>
      <point x="430" y="379" type="line" smooth="yes"/>
      <point x="427" y="373"/>
      <point x="424" y="368"/>
      <point x="421" y="362" type="curve"/>
      <point x="418" y="368"/>
      <point x="414" y="373"/>
      <point x="411" y="379" type="curve" smooth="yes"/>
      <point x="245" y="675" type="line" smooth="yes"/>
      <point x="234" y="695"/>
      <point x="211" y="702"/>
      <point x="182" y="702" type="curve" smooth="yes"/>
      <point x="129" y="702" type="line" smooth="yes"/>
      <point x="87" y="702"/>
      <point x="69" y="691"/>
      <point x="69" y="670" type="curve" smooth="yes"/>
      <point x="69" y="30" type="line" smooth="yes"/>
      <point x="69" y="9"/>
      <point x="87" y="-2"/>
      <point x="129" y="-2" type="curve" smooth="yes"/>
      <point x="158" y="-2" type="line" smooth="yes"/>
      <point x="200" y="-2"/>
      <point x="218" y="9"/>
      <point x="218" y="30" type="curve" smooth="yes"/>
      <point x="218" y="395" type="line" smooth="yes"/>
      <point x="218" y="412"/>
      <point x="218" y="428"/>
      <point x="218" y="444" type="curve"/>
      <point x="222" y="445" type="line"/>
      <point x="229" y="431"/>
      <point x="236" y="419"/>
      <point x="244" y="406" type="curve" smooth="yes"/>
      <point x="367" y="186" type="line"/>
      <point x="376" y="174"/>
      <point x="388" y="167"/>
    </contour>
  </outline>
</glyph>
<glyph name="N" format="2">
  <advance width="719"/>
  <unicode hex="004E"/>
  <anchor x="360" y="0" name="bottom"/>
  <anchor x="360" y="700" name="top"/>
  <outline>
    <contour>
      <point x="129" y="-2" type="curve" smooth="yes"/>
      <point x="158" y="-2" type="line" smooth="yes"/>
      <point x="200" y="-2"/>
      <point x="218" y="9"/>
      <point x="218" y="30" type="curve" smooth="yes"/>
      <point x="218" y="367" type="line" smooth="yes"/>
      <point x="218" y="396"/>
      <point x="218" y="412"/>
      <point x="216" y="435" type="curve"/>
      <point x="220" y="436" type="line"/>
      <point x="231" y="415"/>
      <point x="242" y="397"/>
      <point x="256" y="377" type="curve" smooth="yes"/>
      <point x="486" y="25" type="line" smooth="yes"/>
      <point x="501" y="2"/>
      <point x="523" y="-2"/>
      <point x="552" y="-2" type="curve" smooth="yes"/>
      <point x="590" y="-2" type="line" smooth="yes"/>
      <point x="632" y="-2"/>
      <point x="650" y="9"/>
      <point x="650" y="30" type="curve" smooth="yes"/>
      <point x="650" y="670" type="line" smooth="yes"/>
      <point x="650" y="691"/>
      <point x="632" y="702"/>
      <point x="590" y="702" type="curve" smooth="yes"/>
      <point x="561" y="702" type="line" smooth="yes"/>
      <point x="519" y="702"/>
      <point x="501" y="691"/>
      <point x="501" y="670" type="curve" smooth="yes"/>
      <point x="501" y="338" type="line" smooth="yes"/>
      <point x="501" y="309"/>
      <point x="501" y="293"/>
      <point x="503" y="270" type="curve"/>
      <point x="499" y="269" type="line"/>
      <point x="488" y="290"/>
      <point x="477" y="308"/>
      <point x="463" y="328" type="curve" smooth="yes"/>
      <point x="238" y="675" type="line" smooth="yes"/>
      <point x="223" y="698"/>
      <point x="201" y="702"/>
      <point x="172" y="702" type="curve" smooth="yes"/>
      <point x="129" y="702" type="line" smooth="yes"/>
      <point x="87" y="702"/>
      <point x="69" y="691"/>
      <point x="69" y="670" type="curve" smooth="yes"/>
      <point x="69" y="30" type="line" smooth="yes"/>
      <point x="69" y="9"/>
      <point x="87" y="-2"/>
    </contour>
  </outline>
</glyph>
<glyph name="O" format="2">
  <advance width="731"/>
  <unicode hex="004F"/>
  <anchor x="367" y="0" name="bottom"/>
  <anchor x="474" y="682" name="horn"/>
  <anchor x="431" y="0" name="ogonek"/>
  <anchor x="366" y="700" name="top"/>
  <outline>
    <contour>
      <point x="366" y="-8" type="curve" smooth="yes"/>
      <point x="572" y="-8"/>
      <point x="686" y="119"/>
      <point x="686" y="350" type="curve" smooth="yes"/>
      <point x="686" y="581"/>
      <point x="572" y="708"/>
      <point x="366" y="708" type="curve" smooth="yes"/>
      <point x="160" y="708"/>
      <point x="45" y="581"/>
      <point x="45" y="350" type="curve" smooth="yes"/>
      <point x="45" y="119"/>
      <point x="160" y="-8"/>
    </contour>
    <contour>
      <point x="366" y="123" type="curve" smooth="yes"/>
      <point x="259" y="123"/>
      <point x="203" y="203"/>
      <point x="203" y="350" type="curve" smooth="yes"/>
      <point x="203" y="497"/>
      <point x="259" y="576"/>
      <point x="366" y="576" type="curve" smooth="yes"/>
      <point x="473" y="576"/>
      <point x="528" y="497"/>
      <point x="528" y="350" type="curve" smooth="yes"/>
      <point x="528" y="203"/>
      <point x="473" y="123"/>
    </contour>
  </outline>
</glyph>
<glyph name="P" format="2">
  <advance width="570"/>
  <unicode hex="0050"/>
  <anchor x="146" y="0" name="bottom"/>
  <anchor x="285" y="700" name="top"/>
  <outline>
    <contour>
      <point x="129" y="-2" type="curve" smooth="yes"/>
      <point x="163" y="-2" type="line" smooth="yes"/>
      <point x="205" y="-2"/>
      <point x="223" y="9"/>
      <point x="223" y="30" type="curve" smooth="yes"/>
      <point x="223" y="262" type="line"/>
      <point x="329" y="262" type="line" smooth="yes"/>
      <point x="383" y="262"/>
      <point x="557" y="288"/>
      <point x="557" y="481" type="curve" smooth="yes"/>
      <point x="557" y="674"/>
      <point x="408" y="700"/>
      <point x="319" y="700" type="curve" smooth="yes"/>
      <point x="109" y="700" type="line" smooth="yes"/>
      <point x="81" y="700"/>
      <point x="69" y="688"/>
      <point x="69" y="660" type="curve" smooth="yes"/>
      <point x="69" y="30" type="line" smooth="yes"/>
      <point x="69" y="9"/>
      <point x="87" y="-2"/>
    </contour>
    <contour>
      <point x="223" y="394" type="line"/>
      <point x="223" y="569" type="line"/>
      <point x="312" y="569" type="line" smooth="yes"/>
      <point x="350" y="569"/>
      <point x="399" y="553"/>
      <point x="399" y="481" type="curve" smooth="yes"/>
      <point x="399" y="409"/>
      <point x="350" y="394"/>
      <point x="312" y="394" type="curve" smooth="yes"/>
    </contour>
  </outline>
</glyph>
<glyph name="U" format="2">
  <advance width="712"/>
  <unicode hex="0055"/>
  <anchor x="356" y="0" name="bottom"/>
  <anchor x="553" y="702" name="horn"/>
  <anchor x="426" y="0" name="ogonek"/>
  <anchor x="356" y="700" name="top"/>
  <outline>
    <contour>
      <point x="356" y="-8" type="curve" smooth="yes"/>
      <point x="539" y="-8"/>
      <point x="646" y="80"/>
      <point x="646" y="234" type="curve" smooth="yes"/>
      <point x="646" y="670" type="line" smooth="yes"/>
      <point x="646" y="691"/>
      <point x="628" y="702"/>
      <point x="586" y="702" type="curve" smooth="yes"/>
      <point x="553" y="702" type="line" smooth="yes"/>
      <point x="511" y="702"/>
      <point x="493" y="691"/>
      <point x="493" y="670" type="curve" smooth="yes"/>
      <point x="493" y="244" type="line" smooth="yes"/>
      <point x="493" y="174"/>
      <point x="437" y="123"/>
      <point x="356" y="123" type="curve" smooth="yes"/>
      <point x="275" y="123"/>
      <point x="220" y="174"/>
      <point x="220" y="244" type="curve" smooth="yes"/>
      <point x="220" y="670" type="line" smooth="yes"/>
      <point x="220" y="691"/>
      <point x="202" y="702"/>
      <point x="160" y="702" type="curve" smooth="yes"/>
      <point x="126" y="702" type="line" smooth="yes"/>
      <point x="84" y="702"/>
      <point x="66" y="691"/>
      <point x="66" y="670" type="curve" smooth="yes"/>
      <point x="66" y="234" type="line" smooth="yes"/>
      <point x="66" y="80"/>
      <point x="173" y="-8"/>
    </contour>
  </outline>
</glyph>
<glyph name="V" format="2">
  <advance width="617"/>
  <unicode hex="0056"/>
  <outline>
    <contour>
      <point x="283" y="-2" type="curve" smooth="yes"/>
      <point x="335" y="-2" type="line" smooth="yes"/>
      <point x="364" y="-2"/>
      <point x="386" y="3"/>
      <point x="391" y="19" type="curve" smooth="yes"/>
      <point x="607" y="662" type="line" smooth="yes"/>
      <point x="609" y="669"/>
      <point x="610" y="675"/>
      <point x="610" y="680" type="curve" smooth="yes"/>
      <point x="610" y="694"/>
      <point x="592" y="702"/>
      <point x="550" y="702" type="curve" smooth="yes"/>
      <point x="521" y="702" type="line" smooth="yes"/>
      <point x="492" y="702"/>
      <point x="469" y="694"/>
      <point x="462" y="673" type="curve" smooth="yes"/>
      <point x="334" y="276" type="line" smooth="yes"/>
      <point x="324" y="244"/>
      <point x="314" y="205"/>
      <point x="312" y="185" type="curve"/>
      <point x="308" y="185" type="line"/>
      <point x="306" y="205"/>
      <point x="296" y="244"/>
      <point x="286" y="276" type="curve" smooth="yes"/>
      <point x="162" y="673" type="line" smooth="yes"/>
      <point x="155" y="695"/>
      <point x="132" y="702"/>
      <point x="103" y="702" type="curve" smooth="yes"/>
      <point x="68" y="702" type="line" smooth="yes"/>
      <point x="26" y="702"/>
      <point x="7" y="694"/>
      <point x="7" y="680" type="curve" smooth="yes"/>
      <point x="7" y="675"/>
      <point x="9" y="669"/>
      <point x="11" y="662" type="curve" smooth="yes"/>
      <point x="227" y="19" type="line" smooth="yes"/>
      <point x="232" y="3"/>
      <point x="254" y="-2"/>
    </contour>
  </outline>
</glyph>
<glyph name="W" format="2">
  <advance width="910"/>
  <unicode hex="0057"/>
  <anchor x="459" y="700" name="top"/>
  <outline>
    <contour>
      <point x="225" y="-2" type="curve" smooth="yes"/>
      <point x="297" y="-2" type="line" smooth="yes"/>
      <point x="325" y="-2"/>
      <point x="349" y="5"/>
      <point x="354" y="25" type="curve" smooth="yes"/>
      <point x="430" y="337" type="line" smooth="yes"/>
      <point x="435" y="360"/>
      <point x="444" y="414"/>
      <point x="452" y="463" type="curve"/>
      <point x="456" y="463" type="line"/>
      <point x="466" y="400"/>
      <point x="475" y="346"/>
      <point x="477" y="337" type="curve" smooth="yes"/>
      <point x="551" y="24" type="line" smooth="yes"/>
      <point x="555" y="5"/>
      <point x="579" y="-2"/>
      <point x="607" y="-2" type="curve" smooth="yes"/>
      <point x="680" y="-2" type="line" smooth="yes"/>
      <point x="708" y="-2"/>
      <point x="732" y="5"/>
      <point x="737" y="24" type="curve" smooth="yes"/>
      <point x="898" y="661" type="line" smooth="yes"/>
      <point x="900" y="667"/>
      <point x="900" y="672"/>
      <point x="900" y="676" type="curve" smooth="yes"/>
      <point x="900" y="692"/>
      <point x="881" y="702"/>
      <point x="838" y="702" type="curve" smooth="yes"/>
      <point x="827" y="702" type="line" smooth="yes"/>
      <point x="788" y="702"/>
      <point x="765" y="692"/>
      <point x="760" y="671" type="curve" smooth="yes"/>
      <point x="683" y="351" type="line" smooth="yes"/>
      <point x="669" y="291"/>
      <point x="654" y="208"/>
      <point x="649" y="158" type="curve"/>
      <point x="645" y="158" type="line"/>
      <point x="642" y="202"/>
      <point x="628" y="285"/>
      <point x="614" y="349" type="curve" smooth="yes"/>
      <point x="535" y="681" type="line" smooth="yes"/>
      <point x="531" y="697"/>
      <point x="512" y="702"/>
      <point x="480" y="702" type="curve" smooth="yes"/>
      <point x="442" y="702" type="line" smooth="yes"/>
      <point x="410" y="702"/>
      <point x="391" y="697"/>
      <point x="387" y="681" type="curve" smooth="yes"/>
      <point x="305" y="350" type="line" smooth="yes"/>
      <point x="293" y="303"/>
      <point x="278" y="220"/>
      <point x="270" y="158" type="curve"/>
      <point x="266" y="158" type="line"/>
      <point x="263" y="215"/>
      <point x="251" y="297"/>
      <point x="240" y="349" type="curve" smooth="yes"/>
      <point x="165" y="671" type="line" smooth="yes"/>
      <point x="160" y="692"/>
      <point x="137" y="702"/>
      <point x="98" y="702" type="curve" smooth="yes"/>
      <point x="72" y="702" type="line" smooth="yes"/>
      <point x="29" y="702"/>
      <point x="10" y="692"/>
      <point x="10" y="676" type="curve" smooth="yes"/>
      <point x="10" y="672"/>
      <point x="11" y="667"/>
      <point x="12" y="661" type="curve" smooth="yes"/>
      <point x="169" y="24" type="line" smooth="yes"/>
      <point x="174" y="5"/>
      <point x="193" y="-2"/>
    </contour>
  </outline>
</glyph>
<glyph name="Y" format="2">
  <advance width="559"/>
  <unicode hex="0059"/>
  <anchor x="282" y="0" name="bottom"/>
  <anchor x="280" y="700" name="top"/>
  <outline>
    <contour>
      <point x="263" y="-2" type="curve" smooth="yes"/>
      <point x="297" y="-2" type="line" smooth="yes"/>
      <point x="339" y="-2"/>
      <point x="357" y="9"/>
      <point x="357" y="30" type="curve" smooth="yes"/>
      <point x="357" y="333" type="line"/>
      <point x="556" y="657" type="line" smooth="yes"/>
      <point x="562" y="667"/>
      <point x="565" y="676"/>
      <point x="565" y="682" type="curve" smooth="yes"/>
      <point x="565" y="694"/>
      <point x="546" y="702"/>
      <point x="502" y="702" type="curve" smooth="yes"/>
      <point x="466" y="702" type="line" smooth="yes"/>
      <point x="437" y="702"/>
      <point x="415" y="698"/>
      <point x="406" y="683" type="curve" smooth="yes"/>
      <point x="283" y="469" type="line"/>
      <point x="161" y="683" type="line" smooth="yes"/>
      <point x="152" y="698"/>
      <point x="130" y="702"/>
      <point x="101" y="702" type="curve" smooth="yes"/>
      <point x="58" y="702" type="line" smooth="yes"/>
      <point x="14" y="702"/>
      <point x="-6" y="694"/>
      <point x="-6" y="682" type="curve" smooth="yes"/>
      <point x="-6" y="676"/>
      <point x="-2" y="667"/>
      <point x="4" y="657" type="curve" smooth="yes"/>
      <point x="203" y="336" type="line"/>
      <point x="203" y="30" type="line" smooth="yes"/>
      <point x="203" y="9"/>
      <point x="221" y="-2"/>
    </contour>
  </outline>
</glyph>
<glyph name="Z" format="2">
  <advance width="616"/>
  <unicode hex="005A"/>
  <anchor x="299" y="0" name="bottom"/>
  <anchor x="308" y="700" name="top"/>
  <outline>
    <contour>
      <point x="66" y="0" type="curve"/>
      <point x="550" y="0" type="line" smooth="yes"/>
      <point x="571" y="0"/>
      <point x="580" y="15"/>
      <point x="580" y="50" type="curve" smooth="yes"/>
      <point x="580" y="81" type="line" smooth="yes"/>
      <point x="580" y="116"/>
      <point x="571" y="131"/>
      <point x="550" y="131" type="curve" smooth="yes"/>
      <point x="245" y="131" type="line"/>
      <point x="575" y="594" type="line" smooth="yes"/>
      <point x="579" y="599"/>
      <point x="580" y="604"/>
      <point x="580" y="608" type="curve" smooth="yes"/>
      <point x="580" y="634"/>
      <point x="559" y="700"/>
      <point x="543" y="700" type="curve" smooth="yes"/>
      <point x="86" y="700" type="line" smooth="yes"/>
      <point x="65" y="700"/>
      <point x="56" y="685"/>
      <point x="56" y="650" type="curve" smooth="yes"/>
      <point x="56" y="619" type="line" smooth="yes"/>
      <point x="56" y="584"/>
      <point x="65" y="569"/>
      <point x="86" y="569" type="curve" smooth="yes"/>
      <point x="364" y="569" type="line"/>
      <point x="29" y="99" type="line" smooth="yes"/>
      <point x="28" y="97"/>
      <point x="27" y="93"/>
      <point x="27" y="89" type="curve" smooth="yes"/>
      <point x="27" y="62"/>
      <point x="49" y="0"/>
    </contour>
  </outline>
</glyph>
<glyph name="backslash" format="2">
  <advance width="422"/>
  <unicode hex="005C"/>
  <outline>
    <contour>
      <point x="355" y="-79" type="curve" smooth="yes"/>
      <point x="373" y="-79" type="line" smooth="yes"/>
      <point x="408" y="-79"/>
      <point x="422" y="-73"/>
      <point x="422" y="-63" type="curve" smooth="yes"/>
      <point x="422" y="-60"/>
      <point x="418" y="-51"/>
      <point x="414" y="-41" type="curve" smooth="yes"/>
      <point x="125" y="677" type="line" smooth="yes"/>
      <point x="117" y="696"/>
      <point x="97" y="702"/>
      <point x="66" y="702" type="curve" smooth="yes"/>
      <point x="53" y="702" type="line" smooth="yes"/>
      <point x="16" y="702"/>
      <point x="0" y="696"/>
      <point x="0" y="686" type="curve" smooth="yes"/>
      <point x="0" y="682"/>
      <point x="1" y="678"/>
      <point x="7" y="664" type="curve" smooth="yes"/>
      <point x="297" y="-54" type="line" smooth="yes"/>
      <point x="305" y="-75"/>
      <point x="324" y="-79"/>
    </contour>
  </outline>
</glyph>
<glyph name="underscore" format="2">
  <advance width="535"/>
  <unicode hex="005F"/>
  <outline>
    <contour>
      <point x="10" y="-138" type="curve" smooth="yes"/>
      <point x="525" y="-138" type="line" smooth="yes"/>
      <point x="546" y="-138"/>
      <point x="555" y="-123"/>
      <point x="555" y="-88" type="curve" smooth="yes"/>
      <point x="555" y="-81" type="line" smooth="yes"/>
      <point x="555" y="-46"/>
      <point x="546" y="-31"/>
      <point x="525" y="-31" type="curve" smooth="yes"/>
      <point x="10" y="-31" type="line" smooth="yes"/>
      <point x="-11" y="-31"/>
      <point x="-20" y="-46"/>
      <point x="-20" y="-81" type="curve" smooth="yes"/>
      <point x="-20" y="-88" type="line" smooth="yes"/>
      <point x="-20" y="-123"/>
      <point x="-11" y="-138"/>
    </contour>
  </outline>
</glyph>
<glyph name="grave" format="2">
  <advance width="191"/>
  <unicode hex="0060"/>
  <outline>
    <contour>
      <point x="150" y="572" type="curve" smooth="yes"/>
      <point x="184" y="572"/>
      <point x="191" y="578"/>
      <point x="191" y="587" type="curve" smooth="yes"/>
      <point x="191" y="594"/>
      <point x="186" y="600"/>
      <point x="178" y="615" type="curve" smooth="yes"/>
      <point x="138" y="687" type="line" smooth="yes"/>
      <point x="125" y="711"/>
      <point x="115" y="718"/>
      <point x="53" y="718" type="curve" smooth="yes"/>
      <point x="14" y="718"/>
      <point x="0" y="714"/>
      <point x="0" y="701" type="curve" smooth="yes"/>
      <point x="0" y="690"/>
      <point x="7" y="678"/>
      <point x="19" y="665" type="curve" smooth="yes"/>
      <point x="76" y="602" type="line" smooth="yes"/>
      <point x="97" y="579"/>
      <point x="121" y="572"/>
    </contour>
  </outline>
</glyph>
<glyph name="c" format="2">
  <advance width="485"/>
  <unicode hex="0063"/>
  <anchor x="292" y="0" name="bottom"/>
  <anchor x="275" y="523" name="top"/>
  <outline>
    <contour>
      <point x="294" y="-8" type="curve" smooth="yes"/>
      <point x="327" y="-8"/>
      <point x="469" y="6"/>
      <point x="469" y="62" type="curve" smooth="yes"/>
      <point x="469" y="82"/>
      <point x="439" y="138"/>
      <point x="417" y="138" type="curve" smooth="yes"/>
      <point x="413" y="138"/>
      <point x="407" y="135"/>
      <point x="399" y="132" type="curve" smooth="yes"/>
      <point x="379.5" y="124.5"/>
      <point x="348" y="109"/>
      <point x="301" y="109" type="curve" smooth="yes"/>
      <point x="225" y="109"/>
      <point x="194" y="159"/>
      <point x="194" y="262" type="curve" smooth="yes"/>
      <point x="194" y="364"/>
      <point x="227" y="414"/>
      <point x="307" y="414" type="curve" smooth="yes"/>
      <point x="349" y="414"/>
      <point x="376" y="401"/>
      <point x="394" y="392" type="curve" smooth="yes"/>
      <point x="402" y="388"/>
      <point x="408" y="385"/>
      <point x="412" y="385" type="curve" smooth="yes"/>
      <point x="429" y="385"/>
      <point x="465" y="443"/>
      <point x="465" y="462" type="curve" smooth="yes"/>
      <point x="465" y="508"/>
      <point x="370" y="531"/>
      <point x="299" y="531" type="curve" smooth="yes"/>
      <point x="120" y="531"/>
      <point x="42" y="436"/>
      <point x="42" y="258" type="curve" smooth="yes"/>
      <point x="42" y="79"/>
      <point x="123" y="-8"/>
    </contour>
  </outline>
</glyph>
<glyph name="d" format="2">
  <advance width="565"/>
  <unicode hex="0064"/>
  <anchor x="291" y="0" name="bottom"/>
  <anchor x="417" y="630" name="center"/>
  <anchor x="283" y="752" name="top"/>
  <anchor x="518" y="750" name="topright"/>
  <outline>
    <contour>
      <point x="229" y="-8" type="curve" smooth="yes"/>
      <point x="291" y="-8"/>
      <point x="340" y="24"/>
      <point x="363" y="67" type="curve"/>
      <point x="369" y="41"/>
      <point x="371" y="-1"/>
      <point x="403" y="-1" type="curve" smooth="yes"/>
      <point x="428" y="-1"/>
      <point x="515" y="7"/>
      <point x="515" y="31" type="curve" smooth="yes"/>
      <point x="515" y="52"/>
      <point x="503" y="73"/>
      <point x="503" y="176" type="curve" smooth="yes"/>
      <point x="503" y="722" type="line" smooth="yes"/>
      <point x="503" y="743"/>
      <point x="485" y="754"/>
      <point x="443" y="754" type="curve" smooth="yes"/>
      <point x="415" y="754" type="line" smooth="yes"/>
      <point x="373" y="754"/>
      <point x="355" y="743"/>
      <point x="355" y="722" type="curve" smooth="yes"/>
      <point x="355" y="500" type="line"/>
      <point x="334" y="515"/>
      <point x="300" y="531"/>
      <point x="253" y="531" type="curve" smooth="yes"/>
      <point x="118" y="531"/>
      <point x="42" y="425"/>
      <point x="42" y="262" type="curve" smooth="yes"/>
      <point x="42" y="88"/>
      <point x="121" y="-8"/>
    </contour>
    <contour>
      <point x="273" y="113" type="curve" smooth="yes"/>
      <point x="218" y="113"/>
      <point x="192" y="165"/>
      <point x="192" y="262" type="curve" smooth="yes"/>
      <point x="192" y="362"/>
      <point x="222" y="414"/>
      <point x="285" y="414" type="curve" smooth="yes"/>
      <point x="316" y="414"/>
      <point x="339" y="404"/>
      <point x="355" y="395" type="curve"/>
      <point x="355" y="172" type="line"/>
      <point x="337" y="141"/>
      <point x="311" y="113"/>
    </contour>
  </outline>
</glyph>
<glyph name="g" format="2">
  <advance width="546"/>
  <unicode hex="0067"/>
  <anchor x="273" y="523" name="top"/>
  <outline>
    <contour>
      <point x="262" y="-212" type="curve" smooth="yes"/>
      <point x="417" y="-212"/>
      <point x="520" y="-145"/>
      <point x="520" y="-42" type="curve" smooth="yes"/>
      <point x="520" y="58"/>
      <point x="442" y="88"/>
      <point x="365" y="103" type="curve" smooth="yes"/>
      <point x="285" y="117"/>
      <point x="208" y="116"/>
      <point x="208" y="151" type="curve" smooth="yes"/>
      <point x="208" y="172"/>
      <point x="216" y="183"/>
      <point x="278" y="183" type="curve" smooth="yes"/>
      <point x="392" y="183"/>
      <point x="482" y="233"/>
      <point x="482" y="353" type="curve" smooth="yes"/>
      <point x="482" y="374"/>
      <point x="473" y="401"/>
      <point x="461" y="414" type="curve"/>
      <point x="463" y="418" type="line"/>
      <point x="473" y="414"/>
      <point x="503" y="409"/>
      <point x="511" y="409" type="curve" smooth="yes"/>
      <point x="527" y="409"/>
      <point x="535" y="423"/>
      <point x="535" y="456" type="curve" smooth="yes"/>
      <point x="535" y="473" type="line" smooth="yes"/>
      <point x="535" y="508"/>
      <point x="526" y="523"/>
      <point x="505" y="523" type="curve" smooth="yes"/>
      <point x="344" y="523" type="line"/>
      <point x="320" y="528"/>
      <point x="294" y="531"/>
      <point x="267" y="531" type="curve" smooth="yes"/>
      <point x="148" y="531"/>
      <point x="52" y="482"/>
      <point x="52" y="353" type="curve" smooth="yes"/>
      <point x="52" y="282"/>
      <point x="84" y="237"/>
      <point x="133" y="211" type="curve"/>
      <point x="95" y="189"/>
      <point x="73" y="158"/>
      <point x="73" y="121" type="curve" smooth="yes"/>
      <point x="73" y="88"/>
      <point x="88" y="60"/>
      <point x="116" y="46" type="curve"/>
      <point x="115" y="42" type="line"/>
      <point x="56" y="19"/>
      <point x="24" y="-22"/>
      <point x="24" y="-74" type="curve" smooth="yes"/>
      <point x="24" y="-165"/>
      <point x="101" y="-212"/>
    </contour>
    <contour>
      <point x="273" y="-95" type="curve" smooth="yes"/>
      <point x="199" y="-95"/>
      <point x="168" y="-77"/>
      <point x="168" y="-50" type="curve" smooth="yes"/>
      <point x="168" y="-30"/>
      <point x="187" y="-8"/>
      <point x="222" y="4" type="curve"/>
      <point x="336" y="-4"/>
      <point x="376" y="-15"/>
      <point x="376" y="-46" type="curve" smooth="yes"/>
      <point x="376" y="-76"/>
      <point x="342" y="-95"/>
    </contour>
    <contour>
      <point x="267" y="290" type="curve" smooth="yes"/>
      <point x="226" y="290"/>
      <point x="192" y="309"/>
      <point x="192" y="357" type="curve" smooth="yes"/>
      <point x="192" y="404"/>
      <point x="226" y="424"/>
      <point x="267" y="424" type="curve" smooth="yes"/>
      <point x="308" y="424"/>
      <point x="342" y="404"/>
      <point x="342" y="357" type="curve" smooth="yes"/>
      <point x="342" y="309"/>
      <point x="308" y="290"/>
    </contour>
  </outline>
</glyph>
<glyph name="h" format="2">
  <advance width="565"/>
  <unicode hex="0068"/>
  <anchor x="281" y="0" name="bottom"/>
  <anchor x="167" y="630" name="center"/>
  <anchor x="141" y="735" name="top"/>
  <outline>
    <contour>
      <point x="126" y="-2" type="curve" smooth="yes"/>
      <point x="154" y="-2" type="line" smooth="yes"/>
      <point x="196" y="-2"/>
      <point x="214" y="9"/>
      <point x="214" y="30" type="curve" smooth="yes"/>
      <point x="214" y="351" type="line"/>
      <point x="226" y="374"/>
      <point x="253" y="409"/>
      <point x="294" y="409" type="curve" smooth="yes"/>
      <point x="338" y="409"/>
      <point x="358" y="386"/>
      <point x="358" y="347" type="curve" smooth="yes"/>
      <point x="358" y="30" type="line" smooth="yes"/>
      <point x="358" y="9"/>
      <point x="376" y="-2"/>
      <point x="418" y="-2" type="curve" smooth="yes"/>
      <point x="446" y="-2" type="line" smooth="yes"/>
      <point x="488" y="-2"/>
      <point x="506" y="9"/>
      <point x="506" y="30" type="curve" smooth="yes"/>
      <point x="506" y="369" type="line" smooth="yes"/>
      <point x="506" y="480"/>
      <point x="455" y="531"/>
      <point x="355" y="531" type="curve" smooth="yes"/>
      <point x="295" y="531"/>
      <point x="245" y="500"/>
      <point x="214" y="463" type="curve"/>
      <point x="214" y="722" type="line" smooth="yes"/>
      <point x="214" y="743"/>
      <point x="196" y="754"/>
      <point x="154" y="754" type="curve" smooth="yes"/>
      <point x="126" y="754" type="line" smooth="yes"/>
      <point x="84" y="754"/>
      <point x="66" y="743"/>
      <point x="66" y="722" type="curve" smooth="yes"/>
      <point x="66" y="30" type="line" smooth="yes"/>
      <point x="66" y="9"/>
      <point x="84" y="-2"/>
    </contour>
  </outline>
</glyph>
<glyph name="k" format="2">
  <advance width="521"/>
  <unicode hex="006B"/>
  <anchor x="261" y="0" name="bottom"/>
  <outline>
    <contour>
      <point x="126" y="-2" type="curve" smooth="yes"/>
      <point x="154" y="-2" type="line" smooth="yes"/>
      <point x="196" y="-2"/>
      <point x="214" y="9"/>
      <point x="214" y="30" type="curve" smooth="yes"/>
      <point x="214" y="246" type="line"/>
      <point x="218" y="247" type="line"/>
      <point x="357" y="17" type="line" smooth="yes"/>
      <point x="366" y="2"/>
      <point x="388" y="-2"/>
      <point x="417" y="-2" type="curve" smooth="yes"/>
      <point x="459" y="-2" type="line" smooth="yes"/>
      <point x="498" y="-2"/>
      <point x="516" y="4"/>
      <point x="516" y="13" type="curve" smooth="yes"/>
      <point x="516" y="19"/>
      <point x="513.5" y="25"/>
      <point x="508" y="34" type="curve" smooth="yes"/>
      <point x="314" y="341" type="line"/>
      <point x="312" y="244" type="line"/>
      <point x="484" y="490" type="line" smooth="yes"/>
      <point x="490" y="498"/>
      <point x="493" y="505"/>
      <point x="493" y="510" type="curve" smooth="yes"/>
      <point x="493" y="519"/>
      <point x="475" y="525"/>
      <point x="437" y="525" type="curve" smooth="yes"/>
      <point x="400" y="525" type="line" smooth="yes"/>
      <point x="371" y="525"/>
      <point x="350.5" y="523"/>
      <point x="339" y="506" type="curve" smooth="yes"/>
      <point x="218" y="325" type="line"/>
      <point x="214" y="326" type="line"/>
      <point x="214" y="722" type="line" smooth="yes"/>
      <point x="214" y="743"/>
      <point x="196" y="754"/>
      <point x="154" y="754" type="curve" smooth="yes"/>
      <point x="126" y="754" type="line" smooth="yes"/>
      <point x="84" y="754"/>
      <point x="66" y="743"/>
      <point x="66" y="722" type="curve" smooth="yes"/>
      <point x="66" y="30" type="line" smooth="yes"/>
      <point x="66" y="9"/>
      <point x="84" y="-2"/>
    </contour>
  </outline>
</glyph>
<glyph name="l" format="2">
  <advance width="297"/>
  <unicode hex="006C"/>
  <anchor x="183" y="0" name="bottom"/>
  <anchor x="285" y="375" name="center"/>
  <anchor x="136" y="720" name="top"/>
  <anchor x="240" y="752" name="topright"/>
  <outline>
    <contour>
      <point x="209" y="-8" type="curve" smooth="yes"/>
      <point x="240" y="-8"/>
      <point x="305" y="-5"/>
      <point x="305" y="41" type="curve" smooth="yes"/>
      <point x="305" y="49"/>
      <point x="294" y="113"/>
      <point x="274" y="113" type="curve" smooth="yes"/>
      <point x="268" y="113"/>
      <point x="256" y="109"/>
      <point x="247" y="109" type="curve" smooth="yes"/>
      <point x="221" y="109"/>
      <point x="211" y="122"/>
      <point x="211" y="152" type="curve" smooth="yes"/>
      <point x="211" y="722" type="line" smooth="yes"/>
      <point x="211" y="743"/>
      <point x="193" y="754"/>
      <point x="151" y="754" type="curve" smooth="yes"/>
      <point x="123" y="754" type="line" smooth="yes"/>
      <point x="81" y="754"/>
      <point x="63" y="743"/>
      <point x="63" y="722" type="curve" smooth="yes"/>
      <point x="63" y="154" type="line" smooth="yes"/>
      <point x="63" y="43"/>
      <point x="115" y="-8"/>
    </contour>
  </outline>
</glyph>
<glyph name="n" format="2">
  <advance width="557"/>
  <unicode hex="006E"/>
  <anchor x="279" y="0" name="bottom"/>
  <anchor x="279" y="523" name="top"/>
  <outline>
    <contour>
      <point x="122" y="-2" type="curve" smooth="yes"/>
      <point x="150" y="-2" type="line" smooth="yes"/>
      <point x="192" y="-2"/>
      <point x="210" y="9"/>
      <point x="210" y="30" type="curve" smooth="yes"/>
      <point x="210" y="351" type="line"/>
      <point x="222" y="374"/>
      <point x="249" y="409"/>
      <point x="290" y="409" type="curve" smooth="yes"/>
      <point x="334" y="409"/>
      <point x="350" y="386"/>
      <point x="350" y="347" type="curve" smooth="yes"/>
      <point x="350" y="30" type="line" smooth="yes"/>
      <point x="350" y="9"/>
      <point x="368" y="-2"/>
      <point x="410" y="-2" type="curve" smooth="yes"/>
      <point x="438" y="-2" type="line" smooth="yes"/>
      <point x="480" y="-2"/>
      <point x="498" y="9"/>
      <point x="498" y="30" type="curve" smooth="yes"/>
      <point x="498" y="369" type="line" smooth="yes"/>
      <point x="498" y="480"/>
      <point x="451" y="531"/>
      <point x="351" y="531" type="curve" smooth="yes"/>
      <point x="286" y="531"/>
      <point x="231" y="493"/>
      <point x="202" y="455" type="curve"/>
      <point x="196" y="480"/>
      <point x="194" y="520"/>
      <point x="162" y="520" type="curve" smooth="yes"/>
      <point x="137" y="520"/>
      <point x="50" y="512"/>
      <point x="50" y="488" type="curve" smooth="yes"/>
      <point x="50" y="468"/>
      <point x="62" y="447"/>
      <point x="62" y="347" type="curve" smooth="yes"/>
      <point x="62" y="30" type="line" smooth="yes"/>
      <point x="62" y="9"/>
      <point x="80" y="-2"/>
    </contour>
  </outline>
</glyph>
<glyph name="o" format="2">
  <advance width="569"/>
  <unicode hex="006F"/>
  <anchor x="291" y="0" name="bottom"/>
  <anchor x="387" y="505" name="horn"/>
  <anchor x="336" y="0" name="ogonek"/>
  <anchor x="285" y="523" name="top"/>
  <outline>
    <contour>
      <point x="285" y="-8" type="curve" smooth="yes"/>
      <point x="444" y="-8"/>
      <point x="527" y="88"/>
      <point x="527" y="262" type="curve" smooth="yes"/>
      <point x="527" y="436"/>
      <point x="444" y="531"/>
      <point x="285" y="531" type="curve" smooth="yes"/>
      <point x="126" y="531"/>
      <point x="42" y="436"/>
      <point x="42" y="262" type="curve" smooth="yes"/>
      <point x="42" y="88"/>
      <point x="126" y="-8"/>
    </contour>
    <contour>
      <point x="285" y="109" type="curve" smooth="yes"/>
      <point x="221" y="109"/>
      <point x="192" y="162"/>
      <point x="192" y="262" type="curve" smooth="yes"/>
      <point x="192" y="362"/>
      <point x="221" y="414"/>
      <point x="285" y="414" type="curve" smooth="yes"/>
      <point x="349" y="414"/>
      <point x="377" y="362"/>
      <point x="377" y="262" type="curve" smooth="yes"/>
      <point x="377" y="162"/>
      <point x="349" y="109"/>
    </contour>
  </outline>
</glyph>
<glyph name="p" format="2">
  <advance width="573"/>
  <unicode hex="0070"/>
  <anchor x="287" y="0" name="bottom"/>
  <anchor x="287" y="523" name="top"/>
  <outline>
    <contour>
      <point x="130" y="-206" type="curve" smooth="yes"/>
      <point x="158" y="-206" type="line" smooth="yes"/>
      <point x="200" y="-206"/>
      <point x="218" y="-195"/>
      <point x="218" y="-174" type="curve" smooth="yes"/>
      <point x="218" y="23" type="line"/>
      <point x="239" y="8"/>
      <point x="273" y="-8"/>
      <point x="320" y="-8" type="curve" smooth="yes"/>
      <point x="455" y="-8"/>
      <point x="531" y="98"/>
      <point x="531" y="261" type="curve" smooth="yes"/>
      <point x="531" y="435"/>
      <point x="452" y="531"/>
      <point x="344" y="531" type="curve" smooth="yes"/>
      <point x="282" y="531"/>
      <point x="233" y="499"/>
      <point x="210" y="456" type="curve"/>
      <point x="204" y="480"/>
      <point x="202" y="520"/>
      <point x="170" y="520" type="curve" smooth="yes"/>
      <point x="145" y="520"/>
      <point x="58" y="512"/>
      <point x="58" y="488" type="curve" smooth="yes"/>
      <point x="58" y="468"/>
      <point x="70" y="447"/>
      <point x="70" y="347" type="curve" smooth="yes"/>
      <point x="70" y="-174" type="line" smooth="yes"/>
      <point x="70" y="-195"/>
      <point x="88" y="-206"/>
    </contour>
    <contour>
      <point x="288" y="109" type="curve" smooth="yes"/>
      <point x="257" y="109"/>
      <point x="234" y="119"/>
      <point x="218" y="128" type="curve"/>
      <point x="218" y="351" type="line"/>
      <point x="236" y="382"/>
      <point x="262" y="410"/>
      <point x="300" y="410" type="curve" smooth="yes"/>
      <point x="355" y="410"/>
      <point x="381" y="358"/>
      <point x="381" y="261" type="curve" smooth="yes"/>
      <point x="381" y="161"/>
      <point x="351" y="109"/>
    </contour>
  </outline>
</glyph>
<glyph name="r" format="2">
  <advance width="366"/>
  <unicode hex="0072"/>
  <anchor x="138" y="-2" name="bottom"/>
  <anchor x="196" y="523" name="top"/>
  <outline>
    <contour>
      <point x="122" y="-2" type="curve" smooth="yes"/>
      <point x="150" y="-2" type="line" smooth="yes"/>
      <point x="192" y="-2"/>
      <point x="210" y="9"/>
      <point x="210" y="30" type="curve" smooth="yes"/>
      <point x="210" y="351" type="line"/>
      <point x="222" y="371"/>
      <point x="249" y="401"/>
      <point x="290" y="401" type="curve" smooth="yes"/>
      <point x="310" y="401"/>
      <point x="323" y="393"/>
      <point x="337" y="393" type="curve" smooth="yes"/>
      <point x="357" y="393"/>
      <point x="368" y="458"/>
      <point x="368" y="477" type="curve" smooth="yes"/>
      <point x="368" y="509"/>
      <point x="360" y="531"/>
      <point x="311" y="531" type="curve" smooth="yes"/>
      <point x="253" y="531"/>
      <point x="223" y="493"/>
      <point x="202" y="455" type="curve"/>
      <point x="196" y="480"/>
      <point x="194" y="520"/>
      <point x="162" y="520" type="curve" smooth="yes"/>
      <point x="137" y="520"/>
      <point x="50" y="512"/>
      <point x="50" y="488" type="curve" smooth="yes"/>
      <point x="50" y="468"/>
      <point x="62" y="447"/>
      <point x="62" y="347" type="curve" smooth="yes"/>
      <point x="62" y="30" type="line" smooth="yes"/>
      <point x="62" y="9"/>
      <point x="80" y="-2"/>
    </contour>
  </outline>
</glyph>
<glyph name="s" format="2">
  <advance width="413"/>
  <unicode hex="0073"/>
  <anchor x="207" y="0" name="bottom"/>
  <anchor x="207" y="523" name="top"/>
  <outline>
    <contour>
      <point x="194" y="-8" type="curve" smooth="yes"/>
      <point x="319" y="-8"/>
      <point x="390" y="61"/>
      <point x="390" y="163" type="curve" smooth="yes"/>
      <point x="390" y="265"/>
      <point x="319" y="298"/>
      <point x="270" y="316" type="curve" smooth="yes"/>
      <point x="221" y="334"/>
      <point x="187" y="345"/>
      <point x="187" y="378" type="curve" smooth="yes"/>
      <point x="187" y="405"/>
      <point x="207" y="415"/>
      <point x="240" y="415" type="curve" smooth="yes"/>
      <point x="289" y="415"/>
      <point x="318" y="394"/>
      <point x="329" y="394" type="curve" smooth="yes"/>
      <point x="348" y="394"/>
      <point x="372" y="451"/>
      <point x="372" y="473" type="curve" smooth="yes"/>
      <point x="372" y="515"/>
      <point x="280" y="531"/>
      <point x="222" y="531" type="curve" smooth="yes"/>
      <point x="111" y="531"/>
      <point x="40" y="471"/>
      <point x="40" y="367" type="curve" smooth="yes"/>
      <point x="40" y="265"/>
      <point x="113" y="234"/>
      <point x="162" y="213" type="curve" smooth="yes"/>
      <point x="209" y="193"/>
      <point x="243" y="181"/>
      <point x="243" y="151" type="curve" smooth="yes"/>
      <point x="243" y="124"/>
      <point x="222" y="109"/>
      <point x="182" y="109" type="curve" smooth="yes"/>
      <point x="129" y="109"/>
      <point x="96" y="137"/>
      <point x="81" y="137" type="curve" smooth="yes"/>
      <point x="61" y="137"/>
      <point x="28" y="86"/>
      <point x="28" y="60" type="curve" smooth="yes"/>
      <point x="28" y="17"/>
      <point x="119" y="-8"/>
    </contour>
  </outline>
</glyph>
<glyph name="t" format="2">
  <advance width="342"/>
  <unicode hex="0074"/>
  <anchor x="201" y="0" name="bottom"/>
  <anchor x="169" y="270" name="center"/>
  <anchor x="156" y="641" name="top"/>
  <anchor x="258" y="750" name="topright"/>
  <outline>
    <contour>
      <point x="223" y="-8" type="curve" smooth="yes"/>
      <point x="254" y="-8"/>
      <point x="319" y="-5"/>
      <point x="319" y="41" type="curve" smooth="yes"/>
      <point x="319" y="49"/>
      <point x="308" y="113"/>
      <point x="288" y="113" type="curve" smooth="yes"/>
      <point x="282" y="113"/>
      <point x="270" y="109"/>
      <point x="261" y="109" type="curve" smooth="yes"/>
      <point x="235" y="109"/>
      <point x="225" y="122"/>
      <point x="225" y="152" type="curve" smooth="yes"/>
      <point x="225" y="406" type="line"/>
      <point x="274" y="406" type="line" smooth="yes"/>
      <point x="295" y="406"/>
      <point x="304" y="421"/>
      <point x="304" y="456" type="curve" smooth="yes"/>
      <point x="304" y="473" type="line" smooth="yes"/>
      <point x="304" y="508"/>
      <point x="295" y="523"/>
      <point x="274" y="523" type="curve" smooth="yes"/>
      <point x="225" y="523" type="line"/>
      <point x="225" y="618" type="line" smooth="yes"/>
      <point x="225" y="639"/>
      <point x="210" y="650"/>
      <point x="175" y="650" type="curve" smooth="yes"/>
      <point x="144" y="650" type="line" smooth="yes"/>
      <point x="111" y="650"/>
      <point x="93" y="639"/>
      <point x="90" y="618" type="curve" smooth="yes"/>
      <point x="77" y="523" type="line"/>
      <point x="61" y="523" type="line" smooth="yes"/>
      <point x="40" y="523"/>
      <point x="31" y="508"/>
      <point x="31" y="473" type="curve" smooth="yes"/>
      <point x="31" y="456" type="line" smooth="yes"/>
      <point x="31" y="421"/>
      <point x="40" y="406"/>
      <point x="61" y="406" type="curve" smooth="yes"/>
      <point x="77" y="406" type="line"/>
      <point x="77" y="154" type="line" smooth="yes"/>
      <point x="77" y="43"/>
      <point x="129" y="-8"/>
    </contour>
  </outline>
</glyph>
<glyph name="v" format="2">
  <advance width="485"/>
  <unicode hex="0076"/>
  <outline>
    <contour>
      <point x="227" y="-2" type="curve" smooth="yes"/>
      <point x="259" y="-2" type="line" smooth="yes"/>
      <point x="288" y="-2"/>
      <point x="310" y="3"/>
      <point x="315" y="19" type="curve" smooth="yes"/>
      <point x="474" y="485" type="line" smooth="yes"/>
      <point x="476" y="492"/>
      <point x="477" y="498"/>
      <point x="477" y="503" type="curve" smooth="yes"/>
      <point x="477" y="517"/>
      <point x="459" y="525"/>
      <point x="417" y="525" type="curve" smooth="yes"/>
      <point x="392" y="525" type="line" smooth="yes"/>
      <point x="363" y="525"/>
      <point x="341" y="520"/>
      <point x="336" y="504" type="curve" smooth="yes"/>
      <point x="286" y="346" type="line" smooth="yes"/>
      <point x="266" y="285"/>
      <point x="254" y="229"/>
      <point x="249" y="188" type="curve"/>
      <point x="245" y="188" type="line"/>
      <point x="239" y="231"/>
      <point x="227" y="288"/>
      <point x="208" y="346" type="curve" smooth="yes"/>
      <point x="158" y="504" type="line" smooth="yes"/>
      <point x="153" y="520"/>
      <point x="131" y="525"/>
      <point x="102" y="525" type="curve" smooth="yes"/>
      <point x="69" y="525" type="line" smooth="yes"/>
      <point x="27" y="525"/>
      <point x="8" y="517"/>
      <point x="8" y="503" type="curve" smooth="yes"/>
      <point x="8" y="498"/>
      <point x="10" y="492"/>
      <point x="12" y="485" type="curve" smooth="yes"/>
      <point x="171" y="19" type="line" smooth="yes"/>
      <point x="177" y="3"/>
      <point x="198" y="-2"/>
    </contour>
  </outline>
</glyph>
<glyph name="w" format="2">
  <advance width="747"/>
  <unicode hex="0077"/>
  <anchor x="374" y="523" name="top"/>
  <outline>
    <contour>
      <point x="201" y="-2" type="curve" smooth="yes"/>
      <point x="250" y="-2" type="line" smooth="yes"/>
      <point x="278" y="-2"/>
      <point x="302" y="5"/>
      <point x="305" y="19" type="curve" smooth="yes"/>
      <point x="358" y="238" type="line" smooth="yes"/>
      <point x="366" y="272"/>
      <point x="370" y="301"/>
      <point x="371" y="323" type="curve"/>
      <point x="375" y="323" type="line"/>
      <point x="377" y="299"/>
      <point x="381" y="271"/>
      <point x="389" y="239" type="curve" smooth="yes"/>
      <point x="445" y="19" type="line" smooth="yes"/>
      <point x="449" y="5"/>
      <point x="468" y="-2"/>
      <point x="500" y="-2" type="curve" smooth="yes"/>
      <point x="549" y="-2" type="line" smooth="yes"/>
      <point x="577" y="-2"/>
      <point x="601" y="5"/>
      <point x="604" y="19" type="curve" smooth="yes"/>
      <point x="722" y="484" type="line" smooth="yes"/>
      <point x="724" y="490"/>
      <point x="724" y="495"/>
      <point x="724" y="499" type="curve" smooth="yes"/>
      <point x="724" y="515"/>
      <point x="705" y="525"/>
      <point x="662" y="525" type="curve" smooth="yes"/>
      <point x="626" y="525"/>
      <point x="606" y="518"/>
      <point x="603" y="504" type="curve" smooth="yes"/>
      <point x="543" y="259" type="line" smooth="yes"/>
      <point x="535" y="228"/>
      <point x="530" y="198"/>
      <point x="526" y="171" type="curve"/>
      <point x="524" y="171" type="line"/>
      <point x="523" y="185"/>
      <point x="518" y="214"/>
      <point x="508" y="256" type="curve" smooth="yes"/>
      <point x="448" y="504" type="line" smooth="yes"/>
      <point x="445" y="518"/>
      <point x="421" y="525"/>
      <point x="393" y="525" type="curve" smooth="yes"/>
      <point x="369" y="525" type="line" smooth="yes"/>
      <point x="337" y="525"/>
      <point x="318" y="518"/>
      <point x="314" y="504" type="curve" smooth="yes"/>
      <point x="255" y="261" type="line" smooth="yes"/>
      <point x="243" y="214"/>
      <point x="238" y="184"/>
      <point x="237" y="175" type="curve"/>
      <point x="233" y="175" type="line"/>
      <point x="232" y="195"/>
      <point x="227" y="223"/>
      <point x="218" y="258" type="curve" smooth="yes"/>
      <point x="159" y="504" type="line" smooth="yes"/>
      <point x="155" y="519"/>
      <point x="134" y="525"/>
      <point x="80" y="525" type="curve" smooth="yes"/>
      <point x="37" y="525"/>
      <point x="18" y="515"/>
      <point x="18" y="499" type="curve" smooth="yes"/>
      <point x="18" y="495"/>
      <point x="18" y="490"/>
      <point x="20" y="484" type="curve" smooth="yes"/>
      <point x="146" y="19" type="line" smooth="yes"/>
      <point x="150" y="5"/>
      <point x="168" y="-2"/>
    </contour>
  </outline>
</glyph>
<glyph name="braceright" format="2">
  <advance width="274"/>
  <unicode hex="007D"/>
  <outline>
    <contour>
      <point x="49" y="-138" type="curve" smooth="yes"/>
      <point x="88" y="-138" type="line" smooth="yes"/>
      <point x="146" y="-138"/>
      <point x="187" y="-90"/>
      <point x="187" y="-22" type="curve" smooth="yes"/>
      <point x="187" y="146" type="line" smooth="yes"/>
      <point x="187" y="211"/>
      <point x="199" y="244"/>
      <point x="234" y="259" type="curve"/>
      <point x="253" y="270"/>
      <point x="263" y="283"/>
      <point x="263" y="309" type="curve" smooth="yes"/>
      <point x="263" y="321" type="line" smooth="yes"/>
      <point x="263" y="347"/>
      <point x="253" y="360"/>
      <point x="234" y="371" type="curve"/>
      <point x="199" y="386"/>
      <point x="187" y="419"/>
      <point x="187" y="484" type="curve" smooth="yes"/>
      <point x="187" y="652" type="line" smooth="yes"/>
      <point x="187" y="720"/>
      <point x="146" y="768"/>
      <point x="88" y="768" type="curve" smooth="yes"/>
      <point x="49" y="768" type="line" smooth="yes"/>
      <point x="28" y="768"/>
      <point x="19" y="756"/>
      <point x="19" y="728" type="curve" smooth="yes"/>
      <point x="19" y="714" type="line" smooth="yes"/>
      <point x="19" y="688"/>
      <point x="26" y="674"/>
      <point x="44" y="674" type="curve"/>
      <point x="45" y="674" type="line"/>
      <point x="66" y="674"/>
      <point x="72" y="664"/>
      <point x="72" y="638" type="curve" smooth="yes"/>
      <point x="72" y="468" type="line" smooth="yes"/>
      <point x="72" y="394"/>
      <point x="96" y="340"/>
      <point x="140" y="315" type="curve"/>
      <point x="96" y="290"/>
      <point x="72" y="236"/>
      <point x="72" y="162" type="curve" smooth="yes"/>
      <point x="72" y="-8" type="line" smooth="yes"/>
      <point x="72" y="-31"/>
      <point x="65" y="-44"/>
      <point x="48" y="-44" type="curve"/>
      <point x="47" y="-44" type="line"/>
      <point x="27" y="-44"/>
      <point x="19" y="-56"/>
      <point x="19" y="-84" type="curve"/>
      <point x="19" y="-98" type="line" smooth="yes"/>
      <point x="19" y="-126"/>
      <point x="28" y="-138"/>
    </contour>
  </outline>
</glyph>
<glyph name="asciitilde" format="2">
  <advance width="560"/>
  <unicode hex="007E"/>
  <outline>
    <contour>
      <point x="102" y="208" type="curve" smooth="yes"/>
      <point x="117" y="208"/>
      <point x="137" y="251"/>
      <point x="188" y="251" type="curve" smooth="yes"/>
      <point x="243" y="251"/>
      <point x="294" y="211"/>
      <point x="380" y="211" type="curve" smooth="yes"/>
      <point x="434" y="211"/>
      <point x="471" y="245"/>
      <point x="488" y="287" type="curve" smooth="yes"/>
      <point x="492" y="296"/>
      <point x="494" y="307"/>
      <point x="494" y="317" type="curve" smooth="yes"/>
      <point x="494" y="330"/>
      <point x="467" y="341"/>
      <point x="457" y="341" type="curve" smooth="yes"/>
      <point x="441" y="341"/>
      <point x="428" y="299"/>
      <point x="385" y="299" type="curve" smooth="yes"/>
      <point x="316" y="299"/>
      <point x="264" y="339"/>
      <point x="188" y="339" type="curve" smooth="yes"/>
      <point x="128" y="339"/>
      <point x="86" y="300"/>
      <point x="71" y="259" type="curve" smooth="yes"/>
      <point x="68" y="250"/>
      <point x="66" y="240"/>
      <point x="66" y="231" type="curve" smooth="yes"/>
      <point x="66" y="216"/>
      <point x="93" y="208"/>
    </contour>
  </outline>
</glyph>
<glyph name="exclamdown" format="2">
  <advance width="294"/>
  <unicode hex="00A1"/>
  <outline>
    <contour>
      <point x="104" y="-180" type="curve" smooth="yes"/>
      <point x="147" y="-180" type="line" smooth="yes"/>
      <point x="189" y="-180"/>
      <point x="207" y="-169"/>
      <point x="207" y="-148" type="curve" smooth="yes"/>
      <point x="207" y="268" type="line" smooth="yes"/>
      <point x="207" y="289"/>
      <point x="197" y="300"/>
      <point x="156" y="300" type="curve" smooth="yes"/>
      <point x="145" y="300" type="line" smooth="yes"/>
      <point x="104" y="300"/>
      <point x="97" y="289"/>
      <point x="94" y="268" type="curve"/>
      <point x="77" y="128"/>
      <point x="44" y="-131"/>
      <point x="44" y="-152" type="curve"/>
      <point x="44" y="-170"/>
      <point x="65" y="-180"/>
    </contour>
    <contour>
      <point x="135" y="369" type="curve" smooth="yes"/>
      <point x="167" y="369" type="line" smooth="yes"/>
      <point x="209" y="369"/>
      <point x="227" y="380"/>
      <point x="227" y="401" type="curve" smooth="yes"/>
      <point x="227" y="493" type="line" smooth="yes"/>
      <point x="227" y="514"/>
      <point x="209" y="525"/>
      <point x="167" y="525" type="curve" smooth="yes"/>
      <point x="135" y="525" type="line" smooth="yes"/>
      <point x="93" y="525"/>
      <point x="75" y="514"/>
      <point x="75" y="493" type="curve" smooth="yes"/>
      <point x="75" y="401" type="line" smooth="yes"/>
      <point x="75" y="380"/>
      <point x="93" y="369"/>
    </contour>
  </outline>
</glyph>
<glyph name="cent" format="2">
  <advance width="470"/>
  <unicode hex="00A2"/>
  <outline>
    <contour>
      <point x="294" y="-81" type="curve" smooth="yes"/>
      <point x="299" y="-81" type="line" smooth="yes"/>
      <point x="316" y="-81"/>
      <point x="325" y="-73"/>
      <point x="325" y="-56" type="curve" smooth="yes"/>
      <point x="325" y="562" type="line" smooth="yes"/>
      <point x="325" y="579"/>
      <point x="316" y="587"/>
      <point x="299" y="587" type="curve" smooth="yes"/>
      <point x="294" y="587" type="line" smooth="yes"/>
      <point x="277" y="587"/>
      <point x="268" y="579"/>
      <point x="268" y="562" type="curve" smooth="yes"/>
      <point x="268" y="-56" type="line" smooth="yes"/>
      <point x="268" y="-73"/>
      <point x="277" y="-81"/>
    </contour>
    <component base="c" xOffset="-17"/>
  </outline>
</glyph>
<glyph name="sterling" format="2">
  <advance width="530"/>
  <unicode hex="00A3"/>
  <outline>
    <contour>
      <point x="95" y="0" type="curve" smooth="yes"/>
      <point x="458" y="0" type="line" smooth="yes"/>
      <point x="479" y="0"/>
      <point x="488" y="15"/>
      <point x="488" y="50" type="curve" smooth="yes"/>
      <point x="488" y="67" type="line" smooth="yes"/>
      <point x="488" y="102"/>
      <point x="479" y="117"/>
      <point x="458" y="117" type="curve" smooth="yes"/>
      <point x="235" y="117" type="line"/>
      <point x="263" y="145"/>
      <point x="276" y="188"/>
      <point x="276" y="251" type="curve" smooth="yes"/>
      <point x="276" y="311" type="line"/>
      <point x="384" y="311" type="line" smooth="yes"/>
      <point x="405" y="311"/>
      <point x="414" y="326"/>
      <point x="414" y="361" type="curve" smooth="yes"/>
      <point x="414" y="378" type="line" smooth="yes"/>
      <point x="414" y="413"/>
      <point x="405" y="428"/>
      <point x="384" y="428" type="curve" smooth="yes"/>
      <point x="276" y="428" type="line"/>
      <point x="276" y="507" type="line" smooth="yes"/>
      <point x="276" y="570"/>
      <point x="307" y="596"/>
      <point x="367" y="596" type="curve" smooth="yes"/>
      <point x="401" y="596"/>
      <point x="426" y="588"/>
      <point x="431" y="588" type="curve" smooth="yes"/>
      <point x="448" y="588"/>
      <point x="471" y="627"/>
      <point x="471" y="663" type="curve" smooth="yes"/>
      <point x="471" y="708"/>
      <point x="384" y="708"/>
      <point x="361" y="708" type="curve" smooth="yes"/>
      <point x="209" y="708"/>
      <point x="131" y="640"/>
      <point x="131" y="502" type="curve" smooth="yes"/>
      <point x="131" y="428" type="line"/>
      <point x="98" y="428" type="line" smooth="yes"/>
      <point x="77" y="428"/>
      <point x="68" y="413"/>
      <point x="68" y="378" type="curve" smooth="yes"/>
      <point x="68" y="361" type="line" smooth="yes"/>
      <point x="68" y="326"/>
      <point x="77" y="311"/>
      <point x="98" y="311" type="curve" smooth="yes"/>
      <point x="131" y="311" type="line"/>
      <point x="131" y="175" type="line" smooth="yes"/>
      <point x="131" y="107"/>
      <point x="55" y="100"/>
      <point x="55" y="59" type="curve" smooth="yes"/>
      <point x="55" y="40" type="line" smooth="yes"/>
      <point x="55" y="12"/>
      <point x="67" y="0"/>
    </contour>
  </outline>
</glyph>
<glyph name="currency" format="2">
  <advance width="550"/>
  <unicode hex="00A4"/>
  <outline>
    <contour>
      <point x="123" y="72" type="curve" smooth="yes"/>
      <point x="132" y="72"/>
      <point x="140" y="76"/>
      <point x="148" y="84" type="curve" smooth="yes"/>
      <point x="169" y="105" type="line"/>
      <point x="200" y="88"/>
      <point x="236" y="78"/>
      <point x="274" y="78" type="curve" smooth="yes"/>
      <point x="312" y="78"/>
      <point x="349" y="88"/>
      <point x="380" y="107" type="curve"/>
      <point x="403" y="84" type="line" smooth="yes"/>
      <point x="411" y="76"/>
      <point x="420" y="72"/>
      <point x="428" y="72" type="curve" smooth="yes"/>
      <point x="437" y="72"/>
      <point x="445" y="76"/>
      <point x="453" y="84" type="curve" smooth="yes"/>
      <point x="483" y="114" type="line" smooth="yes"/>
      <point x="491" y="122"/>
      <point x="495" y="131"/>
      <point x="495" y="139" type="curve" smooth="yes"/>
      <point x="495" y="148"/>
      <point x="491" y="156"/>
      <point x="483" y="164" type="curve" smooth="yes"/>
      <point x="459" y="188" type="line"/>
      <point x="475" y="218"/>
      <point x="485" y="252"/>
      <point x="485" y="289" type="curve" smooth="yes"/>
      <point x="485" y="327"/>
      <point x="475" y="362"/>
      <point x="457" y="393" type="curve"/>
      <point x="486" y="422" type="line" smooth="yes"/>
      <point x="494" y="430"/>
      <point x="498" y="439"/>
      <point x="498" y="447" type="curve" smooth="yes"/>
      <point x="498" y="456"/>
      <point x="494" y="464"/>
      <point x="486" y="472" type="curve" smooth="yes"/>
      <point x="456" y="502" type="line" smooth="yes"/>
      <point x="448" y="510"/>
      <point x="440" y="514"/>
      <point x="431" y="514" type="curve" smooth="yes"/>
      <point x="423" y="514"/>
      <point x="414" y="510"/>
      <point x="406" y="502" type="curve" smooth="yes"/>
      <point x="377" y="473" type="line"/>
      <point x="346" y="490"/>
      <point x="311" y="500"/>
      <point x="274" y="500" type="curve" smooth="yes"/>
      <point x="237" y="500"/>
      <point x="203" y="490"/>
      <point x="173" y="474" type="curve"/>
      <point x="145" y="502" type="line" smooth="yes"/>
      <point x="137" y="510"/>
      <point x="129" y="514"/>
      <point x="120" y="514" type="curve" smooth="yes"/>
      <point x="112" y="514"/>
      <point x="103" y="510"/>
      <point x="95" y="502" type="curve" smooth="yes"/>
      <point x="65" y="472" type="line" smooth="yes"/>
      <point x="57" y="464"/>
      <point x="53" y="456"/>
      <point x="53" y="447" type="curve" smooth="yes"/>
      <point x="53" y="439"/>
      <point x="57" y="430"/>
      <point x="65" y="422" type="curve" smooth="yes"/>
      <point x="92" y="395" type="line"/>
      <point x="73" y="364"/>
      <point x="63" y="327"/>
      <point x="63" y="289" type="curve" smooth="yes"/>
      <point x="63" y="251"/>
      <point x="73" y="216"/>
      <point x="90" y="186" type="curve"/>
      <point x="68" y="164" type="line" smooth="yes"/>
      <point x="60" y="156"/>
      <point x="56" y="148"/>
      <point x="56" y="139" type="curve" smooth="yes"/>
      <point x="56" y="131"/>
      <point x="60" y="122"/>
      <point x="68" y="114" type="curve" smooth="yes"/>
      <point x="98" y="84" type="line" smooth="yes"/>
      <point x="106" y="76"/>
      <point x="115" y="72"/>
    </contour>
    <contour>
      <point x="274" y="192" type="curve" smooth="yes"/>
      <point x="220" y="192"/>
      <point x="177" y="235"/>
      <point x="177" y="289" type="curve" smooth="yes"/>
      <point x="177" y="343"/>
      <point x="220" y="386"/>
      <point x="274" y="386" type="curve" smooth="yes"/>
      <point x="328" y="386"/>
      <point x="371" y="343"/>
      <point x="371" y="289" type="curve" smooth="yes"/>
      <point x="371" y="235"/>
      <point x="328" y="192"/>
    </contour>
  </outline>
</glyph>
<glyph name="yen" format="2">
  <advance width="600"/>
  <unicode hex="00A5"/>
  <outline>
    <contour>
      <point x="91" y="332" type="curve"/>
      <point x="508" y="331" type="line"/>
      <point x="529" y="331"/>
      <point x="538" y="341"/>
      <point x="538" y="362" type="curve" smooth="yes"/>
      <point x="538" y="376" type="line" smooth="yes"/>
      <point x="538" y="397"/>
      <point x="529" y="406"/>
      <point x="508" y="406" type="curve"/>
      <point x="333" y="406" type="line"/>
      <point x="300" y="386" type="line"/>
      <point x="267" y="406" type="line"/>
      <point x="91" y="406" type="line"/>
      <point x="70" y="406"/>
      <point x="61" y="397"/>
      <point x="61" y="376" type="curve" smooth="yes"/>
      <point x="61" y="362" type="line" smooth="yes"/>
      <point x="61" y="341"/>
      <point x="70" y="332"/>
    </contour>
    <contour>
      <point x="91" y="194" type="curve"/>
      <point x="508" y="194" type="line"/>
      <point x="529" y="194"/>
      <point x="538" y="203"/>
      <point x="538" y="224" type="curve" smooth="yes"/>
      <point x="538" y="239" type="line" smooth="yes"/>
      <point x="538" y="260"/>
      <point x="529" y="269"/>
      <point x="508" y="269" type="curve"/>
      <point x="91" y="269" type="line"/>
      <point x="70" y="269"/>
      <point x="61" y="260"/>
      <point x="61" y="239" type="curve" smooth="yes"/>
      <point x="61" y="224" type="line" smooth="yes"/>
      <point x="61" y="203"/>
      <point x="70" y="194"/>
    </contour>
    <component base="Y" xOffset="21"/>
  </outline>
</glyph>
<glyph name="dieresis" format="2">
  <advance width="306"/>
  <unicode hex="00A8"/>
  <outline>
    <contour>
      <point x="244" y="581" type="curve" smooth="yes"/>
      <point x="288" y="581"/>
      <point x="306" y="591"/>
      <point x="306" y="613" type="curve" smooth="yes"/>
      <point x="306" y="677" type="line" smooth="yes"/>
      <point x="306" y="699"/>
      <point x="288" y="709"/>
      <point x="244" y="709" type="curve" smooth="yes"/>
      <point x="200" y="709"/>
      <point x="182" y="699"/>
      <point x="182" y="677" type="curve" smooth="yes"/>
      <point x="182" y="613" type="line" smooth="yes"/>
      <point x="182" y="591"/>
      <point x="200" y="581"/>
    </contour>
    <contour>
      <point x="62" y="581" type="curve" smooth="yes"/>
      <point x="106" y="581"/>
      <point x="124" y="591"/>
      <point x="124" y="613" type="curve" smooth="yes"/>
      <point x="124" y="677" type="line" smooth="yes"/>
      <point x="124" y="699"/>
      <point x="106" y="709"/>
      <point x="62" y="709" type="curve" smooth="yes"/>
      <point x="18" y="709"/>
      <point x="0" y="699"/>
      <point x="0" y="677" type="curve" smooth="yes"/>
      <point x="0" y="613" type="line" smooth="yes"/>
      <point x="0" y="591"/>
      <point x="18" y="581"/>
    </contour>
  </outline>
</glyph>
<glyph name="copyright" format="2">
  <advance width="739"/>
  <unicode hex="00A9"/>
  <outline>
    <contour>
      <point x="370" y="-8" type="curve" smooth="yes"/>
      <point x="568" y="-8"/>
      <point x="728" y="152"/>
      <point x="728" y="350" type="curve" smooth="yes"/>
      <point x="728" y="548"/>
      <point x="568" y="708"/>
      <point x="370" y="708" type="curve" smooth="yes"/>
      <point x="172" y="708"/>
      <point x="12" y="548"/>
      <point x="12" y="350" type="curve" smooth="yes"/>
      <point x="12" y="152"/>
      <point x="172" y="-8"/>
    </contour>
    <contour>
      <point x="383" y="152" type="curve" smooth="yes"/>
      <point x="427" y="152"/>
      <point x="507" y="165"/>
      <point x="507" y="199" type="curve" smooth="yes"/>
      <point x="507" y="208"/>
      <point x="492" y="248"/>
      <point x="474" y="248" type="curve" smooth="yes"/>
      <point x="466" y="248"/>
      <point x="436" y="225"/>
      <point x="383" y="225" type="curve" smooth="yes"/>
      <point x="318" y="225"/>
      <point x="287" y="269"/>
      <point x="287" y="353" type="curve" smooth="yes"/>
      <point x="287" y="436"/>
      <point x="318" y="478"/>
      <point x="384" y="478" type="curve" smooth="yes"/>
      <point x="437" y="478"/>
      <point x="459" y="460"/>
      <point x="466" y="460" type="curve" smooth="yes"/>
      <point x="480" y="460"/>
      <point x="502" y="497"/>
      <point x="502" y="513" type="curve" smooth="yes"/>
      <point x="502" y="536"/>
      <point x="435" y="552"/>
      <point x="385" y="552" type="curve" smooth="yes"/>
      <point x="261" y="552"/>
      <point x="199" y="486"/>
      <point x="199" y="353" type="curve" smooth="yes"/>
      <point x="199" y="215"/>
      <point x="258" y="152"/>
    </contour>
    <contour>
      <point x="370" y="56" type="curve" smooth="yes"/>
      <point x="208" y="56"/>
      <point x="76" y="188"/>
      <point x="76" y="350" type="curve" smooth="yes"/>
      <point x="76" y="512"/>
      <point x="208" y="644"/>
      <point x="370" y="644" type="curve" smooth="yes"/>
      <point x="532" y="644"/>
      <point x="664" y="512"/>
      <point x="664" y="350" type="curve" smooth="yes"/>
      <point x="664" y="188"/>
      <point x="532" y="56"/>
    </contour>
  </outline>
</glyph>
<glyph name="ordfeminine" format="2">
  <advance width="319"/>
  <unicode hex="00AA"/>
  <outline>
    <contour>
      <point x="113" y="440" type="curve" smooth="yes"/>
      <point x="161" y="440"/>
      <point x="186" y="471"/>
      <point x="189" y="477" type="curve"/>
      <point x="192" y="464"/>
      <point x="193" y="442"/>
      <point x="208" y="442" type="curve" smooth="yes"/>
      <point x="221" y="442"/>
      <point x="266" y="446"/>
      <point x="266" y="459" type="curve" smooth="yes"/>
      <point x="266" y="468"/>
      <point x="260" y="479"/>
      <point x="260" y="531" type="curve" smooth="yes"/>
      <point x="260" y="625" type="line" smooth="yes"/>
      <point x="260" y="673"/>
      <point x="231" y="708"/>
      <point x="155" y="708" type="curve" smooth="yes"/>
      <point x="96" y="708"/>
      <point x="57" y="690"/>
      <point x="57" y="674" type="curve" smooth="yes"/>
      <point x="57" y="663"/>
      <point x="71" y="633"/>
      <point x="82" y="633" type="curve" smooth="yes"/>
      <point x="91" y="633"/>
      <point x="109" y="646"/>
      <point x="146" y="646" type="curve" smooth="yes"/>
      <point x="171" y="646"/>
      <point x="182" y="639"/>
      <point x="182" y="621" type="curve" smooth="yes"/>
      <point x="182" y="605" type="line"/>
      <point x="58" y="605"/>
      <point x="41" y="553"/>
      <point x="41" y="514" type="curve" smooth="yes"/>
      <point x="41" y="471"/>
      <point x="61" y="440"/>
    </contour>
    <contour>
      <point x="140" y="502" type="curve" smooth="yes"/>
      <point x="126" y="502"/>
      <point x="119" y="511"/>
      <point x="119" y="522" type="curve" smooth="yes"/>
      <point x="119" y="545"/>
      <point x="140" y="556"/>
      <point x="182" y="556" type="curve"/>
      <point x="182" y="529" type="line"/>
      <point x="175" y="513"/>
      <point x="158" y="502"/>
    </contour>
  </outline>
</glyph>
<glyph name="guillemetleft" format="2">
  <advance width="470"/>
  <unicode hex="00AB"/>
  <outline>
    <contour>
      <point x="391" y="46" type="curve" smooth="yes"/>
      <point x="413" y="46"/>
      <point x="450" y="75"/>
      <point x="450" y="95" type="curve" smooth="yes"/>
      <point x="450" y="103"/>
      <point x="447" y="110"/>
      <point x="441" y="118" type="curve" smooth="yes"/>
      <point x="331" y="258" type="line"/>
      <point x="441" y="398" type="line" smooth="yes"/>
      <point x="447" y="406"/>
      <point x="450" y="413"/>
      <point x="450" y="420" type="curve" smooth="yes"/>
      <point x="450" y="443"/>
      <point x="410" y="469"/>
      <point x="391" y="469" type="curve" smooth="yes"/>
      <point x="381" y="469"/>
      <point x="373" y="465"/>
      <point x="364" y="455" type="curve" smooth="yes"/>
      <point x="237" y="302" type="line" smooth="yes"/>
      <point x="225" y="288"/>
      <point x="221" y="276"/>
      <point x="221" y="258" type="curve" smooth="yes"/>
      <point x="221" y="240"/>
      <point x="225" y="228"/>
      <point x="237" y="214" type="curve"/>
      <point x="364" y="61" type="line" smooth="yes"/>
      <point x="373" y="51"/>
      <point x="382" y="46"/>
    </contour>
    <contour>
      <point x="192" y="46" type="curve" smooth="yes"/>
      <point x="214" y="46"/>
      <point x="251" y="75"/>
      <point x="251" y="95" type="curve" smooth="yes"/>
      <point x="251" y="103"/>
      <point x="248" y="110"/>
      <point x="242" y="118" type="curve" smooth="yes"/>
      <point x="132" y="258" type="line"/>
      <point x="242" y="398" type="line" smooth="yes"/>
      <point x="248" y="406"/>
      <point x="251" y="413"/>
      <point x="251" y="420" type="curve" smooth="yes"/>
      <point x="251" y="443"/>
      <point x="211" y="469"/>
      <point x="192" y="469" type="curve" smooth="yes"/>
      <point x="182" y="469"/>
      <point x="174" y="465"/>
      <point x="165" y="455" type="curve" smooth="yes"/>
      <point x="38" y="302" type="line" smooth="yes"/>
      <point x="26" y="288"/>
      <point x="22" y="276"/>
      <point x="22" y="258" type="curve" smooth="yes"/>
      <point x="22" y="240"/>
      <point x="26" y="228"/>
      <point x="38" y="214" type="curve" smooth="yes"/>
      <point x="165" y="61" type="line" smooth="yes"/>
      <point x="174" y="51"/>
      <point x="183" y="46"/>
    </contour>
  </outline>
</glyph>
<glyph name="logicalnot" format="2">
  <advance width="560"/>
  <unicode hex="00AC"/>
  <outline>
    <contour>
      <point x="465" y="72" type="curve" smooth="yes"/>
      <point x="480" y="72" type="line" smooth="yes"/>
      <point x="518" y="72"/>
      <point x="530" y="86"/>
      <point x="530" y="104" type="curve" smooth="yes"/>
      <point x="530" y="309" type="line" smooth="yes"/>
      <point x="530" y="337"/>
      <point x="518" y="349"/>
      <point x="490" y="349" type="curve" smooth="yes"/>
      <point x="60" y="349" type="line" smooth="yes"/>
      <point x="39" y="349"/>
      <point x="30" y="334"/>
      <point x="30" y="299" type="curve" smooth="yes"/>
      <point x="30" y="292" type="line" smooth="yes"/>
      <point x="30" y="257"/>
      <point x="39" y="242"/>
      <point x="60" y="242" type="curve" smooth="yes"/>
      <point x="415" y="242" type="line"/>
      <point x="415" y="104" type="line" smooth="yes"/>
      <point x="415" y="86"/>
      <point x="427" y="72"/>
    </contour>
  </outline>
</glyph>
<glyph name="registered" format="2">
  <advance width="739"/>
  <unicode hex="00AE"/>
  <outline>
    <contour>
      <point x="277" y="156" type="curve" smooth="yes"/>
      <point x="295" y="156" type="line" smooth="yes"/>
      <point x="319" y="156"/>
      <point x="329" y="162"/>
      <point x="329" y="174" type="curve" smooth="yes"/>
      <point x="329" y="310" type="line"/>
      <point x="351" y="310" type="line" smooth="yes"/>
      <point x="387" y="310"/>
      <point x="396" y="299"/>
      <point x="407" y="277" type="curve"/>
      <point x="451" y="168" type="line" smooth="yes"/>
      <point x="455" y="159"/>
      <point x="467" y="156"/>
      <point x="484" y="156" type="curve" smooth="yes"/>
      <point x="507" y="156" type="line" smooth="yes"/>
      <point x="529" y="156"/>
      <point x="540" y="160"/>
      <point x="540" y="167" type="curve" smooth="yes"/>
      <point x="540" y="170"/>
      <point x="539" y="173"/>
      <point x="537" y="178" type="curve" smooth="yes"/>
      <point x="488" y="301" type="line" smooth="yes"/>
      <point x="479" y="325"/>
      <point x="461" y="344"/>
      <point x="447" y="350" type="curve"/>
      <point x="447" y="354" type="line"/>
      <point x="485" y="369"/>
      <point x="513" y="400"/>
      <point x="513" y="443" type="curve" smooth="yes"/>
      <point x="513" y="510"/>
      <point x="471" y="548"/>
      <point x="374" y="548" type="curve" smooth="yes"/>
      <point x="265" y="548" type="line" smooth="yes"/>
      <point x="250" y="548"/>
      <point x="243" y="541"/>
      <point x="243" y="526" type="curve" smooth="yes"/>
      <point x="243" y="174" type="line" smooth="yes"/>
      <point x="243" y="162"/>
      <point x="253" y="156"/>
    </contour>
    <contour>
      <point x="329" y="384" type="line"/>
      <point x="329" y="475" type="line"/>
      <point x="378" y="475" type="line" smooth="yes"/>
      <point x="407" y="475"/>
      <point x="425" y="458"/>
      <point x="425" y="432" type="curve" smooth="yes"/>
      <point x="425" y="406"/>
      <point x="405" y="384"/>
      <point x="382" y="384" type="curve" smooth="yes"/>
    </contour>
    <contour>
      <point x="370" y="-8" type="curve" smooth="yes"/>
      <point x="568" y="-8"/>
      <point x="728" y="152"/>
      <point x="728" y="350" type="curve" smooth="yes"/>
      <point x="728" y="548"/>
      <point x="568" y="708"/>
      <point x="370" y="708" type="curve" smooth="yes"/>
      <point x="172" y="708"/>
      <point x="12" y="548"/>
      <point x="12" y="350" type="curve" smooth="yes"/>
      <point x="12" y="152"/>
      <point x="172" y="-8"/>
    </contour>
    <contour>
      <point x="370" y="56" type="curve" smooth="yes"/>
      <point x="208" y="56"/>
      <point x="76" y="188"/>
      <point x="76" y="350" type="curve" smooth="yes"/>
      <point x="76" y="512"/>
      <point x="208" y="644"/>
      <point x="370" y="644" type="curve" smooth="yes"/>
      <point x="532" y="644"/>
      <point x="664" y="512"/>
      <point x="664" y="350" type="curve" smooth="yes"/>
      <point x="664" y="188"/>
      <point x="532" y="56"/>
    </contour>
  </outline>
</glyph>
<glyph name="macron" format="2">
  <advance width="305"/>
  <unicode hex="00AF"/>
  <outline>
    <contour>
      <point x="30" y="597" type="curve"/>
      <point x="275" y="597" type="line" smooth="yes"/>
      <point x="296" y="597"/>
      <point x="305" y="609"/>
      <point x="305" y="637" type="curve" smooth="yes"/>
      <point x="305" y="652" type="line" smooth="yes"/>
      <point x="305" y="680"/>
      <point x="296" y="692"/>
      <point x="275" y="692" type="curve" smooth="yes"/>
      <point x="30" y="692" type="line" smooth="yes"/>
      <point x="9" y="692"/>
      <point x="0" y="680"/>
      <point x="0" y="652" type="curve" smooth="yes"/>
      <point x="0" y="637" type="line" smooth="yes"/>
      <point x="0" y="609"/>
      <point x="9" y="597"/>
    </contour>
  </outline>
</glyph>
<glyph name="degree" format="2">
  <advance width="345"/>
  <unicode hex="00B0"/>
  <outline>
    <contour>
      <point x="172" y="443" type="curve" smooth="yes"/>
      <point x="245" y="443"/>
      <point x="305" y="502"/>
      <point x="305" y="575" type="curve" smooth="yes"/>
      <point x="305" y="648"/>
      <point x="245" y="708"/>
      <point x="172" y="708" type="curve" smooth="yes"/>
      <point x="99" y="708"/>
      <point x="40" y="648"/>
      <point x="40" y="575" type="curve" smooth="yes"/>
      <point x="40" y="502"/>
      <point x="99" y="443"/>
    </contour>
    <contour>
      <point x="172" y="505" type="curve" smooth="yes"/>
      <point x="135" y="505"/>
      <point x="105" y="536"/>
      <point x="105" y="575" type="curve" smooth="yes"/>
      <point x="105" y="614"/>
      <point x="135" y="646"/>
      <point x="172" y="646" type="curve" smooth="yes"/>
      <point x="209" y="646"/>
      <point x="240" y="614"/>
      <point x="240" y="575" type="curve" smooth="yes"/>
      <point x="240" y="536"/>
      <point x="209" y="505"/>
    </contour>
  </outline>
</glyph>
<glyph name="plusminus" format="2">
  <advance width="560"/>
  <unicode hex="00B1"/>
  <outline>
    <contour>
      <point x="272" y="140" type="curve" smooth="yes"/>
      <point x="286" y="140" type="line" smooth="yes"/>
      <point x="321" y="140"/>
      <point x="336" y="149"/>
      <point x="336" y="170" type="curve" smooth="yes"/>
      <point x="336" y="312" type="line"/>
      <point x="490" y="312" type="line" smooth="yes"/>
      <point x="511" y="312"/>
      <point x="520" y="327"/>
      <point x="520" y="362" type="curve" smooth="yes"/>
      <point x="520" y="369" type="line" smooth="yes"/>
      <point x="520" y="404"/>
      <point x="511" y="419"/>
      <point x="490" y="419" type="curve" smooth="yes"/>
      <point x="336" y="419" type="line"/>
      <point x="336" y="573" type="line" smooth="yes"/>
      <point x="336" y="594"/>
      <point x="321" y="603"/>
      <point x="286" y="603" type="curve" smooth="yes"/>
      <point x="272" y="603" type="line" smooth="yes"/>
      <point x="237" y="603"/>
      <point x="222" y="594"/>
      <point x="222" y="573" type="curve" smooth="yes"/>
      <point x="222" y="419" type="line"/>
      <point x="70" y="419" type="line" smooth="yes"/>
      <point x="49" y="419"/>
      <point x="40" y="404"/>
      <point x="40" y="369" type="curve" smooth="yes"/>
      <point x="40" y="362" type="line" smooth="yes"/>
      <point x="40" y="327"/>
      <point x="49" y="312"/>
      <point x="70" y="312" type="curve" smooth="yes"/>
      <point x="222" y="312" type="line"/>
      <point x="222" y="170" type="line" smooth="yes"/>
      <point x="222" y="149"/>
      <point x="237" y="140"/>
    </contour>
    <contour>
      <point x="70" y="0" type="curve" smooth="yes"/>
      <point x="490" y="0" type="line" smooth="yes"/>
      <point x="511" y="0"/>
      <point x="520" y="15"/>
      <point x="520" y="50" type="curve" smooth="yes"/>
      <point x="520" y="57" type="line" smooth="yes"/>
      <point x="520" y="92"/>
      <point x="511" y="107"/>
      <point x="490" y="107" type="curve" smooth="yes"/>
      <point x="70" y="107" type="line" smooth="yes"/>
      <point x="49" y="107"/>
      <point x="40" y="92"/>
      <point x="40" y="57" type="curve" smooth="yes"/>
      <point x="40" y="50" type="line" smooth="yes"/>
      <point x="40" y="15"/>
      <point x="49" y="0"/>
    </contour>
  </outline>
</glyph>
<glyph name="acute" format="2">
  <advance width="191"/>
  <unicode hex="00B4"/>
  <outline>
    <contour>
      <point x="41" y="572" type="curve" smooth="yes"/>
      <point x="70" y="572"/>
      <point x="94" y="579"/>
      <point x="115" y="602" type="curve" smooth="yes"/>
      <point x="172" y="665" type="line" smooth="yes"/>
      <point x="183" y="678"/>
      <point x="191" y="690"/>
      <point x="191" y="701" type="curve" smooth="yes"/>
      <point x="191" y="714"/>
      <point x="177" y="718"/>
      <point x="138" y="718" type="curve" smooth="yes"/>
      <point x="76" y="718"/>
      <point x="66" y="711"/>
      <point x="53" y="687" type="curve" smooth="yes"/>
      <point x="13" y="615" type="line" smooth="yes"/>
      <point x="5" y="600"/>
      <point x="0" y="594"/>
      <point x="0" y="587" type="curve" smooth="yes"/>
      <point x="0" y="578"/>
      <point x="7" y="572"/>
    </contour>
  </outline>
</glyph>
<glyph name="paragraph" format="2">
  <advance width="515"/>
  <unicode hex="00B6"/>
  <outline>
    <contour>
      <point x="273" y="-171" type="curve" smooth="yes"/>
      <point x="275" y="-171" type="line" smooth="yes"/>
      <point x="297" y="-171"/>
      <point x="305" y="-161"/>
      <point x="305" y="-141" type="curve" smooth="yes"/>
      <point x="305" y="638" type="line"/>
      <point x="383" y="638" type="line"/>
      <point x="383" y="-141" type="line" smooth="yes"/>
      <point x="383" y="-162"/>
      <point x="392" y="-171"/>
      <point x="413" y="-171" type="curve" smooth="yes"/>
      <point x="415" y="-171" type="line" smooth="yes"/>
      <point x="437" y="-171"/>
      <point x="445" y="-161"/>
      <point x="445" y="-141" type="curve" smooth="yes"/>
      <point x="445" y="638" type="line"/>
      <point x="471" y="638" type="line" smooth="yes"/>
      <point x="492" y="638"/>
      <point x="501" y="647"/>
      <point x="501" y="667" type="curve"/>
      <point x="501" y="668" type="line"/>
      <point x="501" y="691"/>
      <point x="492" y="700"/>
      <point x="471" y="700" type="curve" smooth="yes"/>
      <point x="268" y="700" type="line" smooth="yes"/>
      <point x="143" y="700"/>
      <point x="41" y="609"/>
      <point x="41" y="473" type="curve" smooth="yes"/>
      <point x="41" y="356"/>
      <point x="130" y="260"/>
      <point x="243" y="247" type="curve"/>
      <point x="243" y="-141" type="line" smooth="yes"/>
      <point x="243" y="-162"/>
      <point x="252" y="-171"/>
    </contour>
  </outline>
</glyph>
<glyph name="periodcentered" format="2">
  <advance width="267"/>
  <unicode hex="00B7"/>
  <anchor x="133" y="359" name="_center"/>
  <outline>
    <contour>
      <point x="134" y="289" type="curve" smooth="yes"/>
      <point x="173" y="289"/>
      <point x="204" y="320"/>
      <point x="204" y="359" type="curve" smooth="yes"/>
      <point x="204" y="398"/>
      <point x="173" y="429"/>
      <point x="134" y="429" type="curve" smooth="yes"/>
      <point x="95" y="429"/>
      <point x="64" y="398"/>
      <point x="64" y="359" type="curve" smooth="yes"/>
      <point x="64" y="320"/>
      <point x="95" y="289"/>
    </contour>
  </outline>
</glyph>
<glyph name="cedilla" format="2">
  <advance width="250"/>
  <unicode hex="00B8"/>
  <outline>
    <contour>
      <point x="131" y="-212" type="curve" smooth="yes"/>
      <point x="210" y="-212"/>
      <point x="250" y="-180"/>
      <point x="250" y="-120" type="curve" smooth="yes"/>
      <point x="250" y="-72"/>
      <point x="206" y="-45"/>
      <point x="140" y="-45" type="curve"/>
      <point x="165" y="-57" type="line"/>
      <point x="183" y="10" type="line"/>
      <point x="119" y="10" type="line"/>
      <point x="95" y="-64"/>
      <point x="94" y="-69"/>
      <point x="94" y="-75" type="curve" smooth="yes"/>
      <point x="94" y="-93"/>
      <point x="164" y="-89"/>
      <point x="164" y="-121" type="curve" smooth="yes"/>
      <point x="164" y="-137"/>
      <point x="155" y="-144"/>
      <point x="129" y="-144" type="curve" smooth="yes"/>
      <point x="86" y="-144"/>
      <point x="45" y="-122"/>
      <point x="28" y="-122" type="curve" smooth="yes"/>
      <point x="19" y="-122"/>
      <point x="0" y="-136"/>
      <point x="0" y="-162" type="curve" smooth="yes"/>
      <point x="0" y="-194"/>
      <point x="75" y="-212"/>
    </contour>
  </outline>
</glyph>
<glyph name="ordmasculine" format="2">
  <advance width="337"/>
  <unicode hex="00BA"/>
  <outline>
    <contour>
      <point x="169" y="441" type="curve" smooth="yes"/>
      <point x="248" y="441"/>
      <point x="289" y="488"/>
      <point x="289" y="575" type="curve" smooth="yes"/>
      <point x="289" y="661"/>
      <point x="248" y="708"/>
      <point x="169" y="708" type="curve" smooth="yes"/>
      <point x="90" y="708"/>
      <point x="48" y="661"/>
      <point x="48" y="575" type="curve" smooth="yes"/>
      <point x="48" y="488"/>
      <point x="90" y="441"/>
    </contour>
    <contour>
      <point x="169" y="504" type="curve" smooth="yes"/>
      <point x="140" y="504"/>
      <point x="128" y="528"/>
      <point x="128" y="575" type="curve" smooth="yes"/>
      <point x="128" y="621"/>
      <point x="140" y="645"/>
      <point x="169" y="645" type="curve" smooth="yes"/>
      <point x="197" y="645"/>
      <point x="209" y="621"/>
      <point x="209" y="575" type="curve" smooth="yes"/>
      <point x="209" y="528"/>
      <point x="197" y="504"/>
    </contour>
  </outline>
</glyph>
<glyph name="guillemetright" format="2">
  <advance width="470"/>
  <unicode hex="00BB"/>
  <outline>
    <contour>
      <point x="278" y="46" type="curve" smooth="yes"/>
      <point x="287" y="46"/>
      <point x="297" y="51"/>
      <point x="305" y="61" type="curve" smooth="yes"/>
      <point x="432" y="214" type="line" smooth="yes"/>
      <point x="444" y="228"/>
      <point x="448" y="240"/>
      <point x="448" y="258" type="curve" smooth="yes"/>
      <point x="448" y="276"/>
      <point x="444" y="288"/>
      <point x="432" y="302" type="curve" smooth="yes"/>
      <point x="305" y="455" type="line" smooth="yes"/>
      <point x="297" y="465"/>
      <point x="288" y="469"/>
      <point x="278" y="469" type="curve" smooth="yes"/>
      <point x="259" y="469"/>
      <point x="219" y="443"/>
      <point x="219" y="420" type="curve" smooth="yes"/>
      <point x="219" y="413"/>
      <point x="222" y="406"/>
      <point x="228" y="398" type="curve" smooth="yes"/>
      <point x="338" y="258" type="line"/>
      <point x="228" y="118" type="line" smooth="yes"/>
      <point x="222" y="110"/>
      <point x="219" y="103"/>
      <point x="219" y="95" type="curve" smooth="yes"/>
      <point x="219" y="75"/>
      <point x="256" y="46"/>
    </contour>
    <contour>
      <point x="79" y="46" type="curve" smooth="yes"/>
      <point x="88" y="46"/>
      <point x="98" y="51"/>
      <point x="106" y="61" type="curve" smooth="yes"/>
      <point x="233" y="214" type="line" smooth="yes"/>
      <point x="245" y="228"/>
      <point x="249" y="240"/>
      <point x="249" y="258" type="curve" smooth="yes"/>
      <point x="249" y="276"/>
      <point x="245" y="288"/>
      <point x="233" y="302" type="curve" smooth="yes"/>
      <point x="106" y="455" type="line" smooth="yes"/>
      <point x="98" y="465"/>
      <point x="89" y="469"/>
      <point x="79" y="469" type="curve" smooth="yes"/>
      <point x="60" y="469"/>
      <point x="20" y="443"/>
      <point x="20" y="420" type="curve" smooth="yes"/>
      <point x="20" y="413"/>
      <point x="23" y="406"/>
      <point x="29" y="398" type="curve" smooth="yes"/>
      <point x="139" y="258" type="line"/>
      <point x="29" y="118" type="line" smooth="yes"/>
      <point x="23" y="110"/>
      <point x="20" y="103"/>
      <point x="20" y="95" type="curve" smooth="yes"/>
      <point x="20" y="75"/>
      <point x="57" y="46"/>
    </contour>
  </outline>
</glyph>
<glyph name="questiondown" format="2">
  <advance width="425"/>
  <unicode hex="00BF"/>
  <outline>
    <contour>
      <point x="288" y="301" type="curve" smooth="yes"/>
      <point x="265" y="301" type="line" smooth="yes"/>
      <point x="232" y="301"/>
      <point x="216" y="295"/>
      <point x="212" y="274" type="curve" smooth="yes"/>
      <point x="203" y="229"/>
      <point x="161" y="198"/>
      <point x="120" y="161" type="curve" smooth="yes"/>
      <point x="74" y="120"/>
      <point x="26" y="74"/>
      <point x="26" y="-7" type="curve" smooth="yes"/>
      <point x="26" y="-117"/>
      <point x="109" y="-185"/>
      <point x="243" y="-185" type="curve" smooth="yes"/>
      <point x="321" y="-185"/>
      <point x="431" y="-163"/>
      <point x="431" y="-104" type="curve" smooth="yes"/>
      <point x="431" y="-83"/>
      <point x="396" y="-22"/>
      <point x="368" y="-22" type="curve" smooth="yes"/>
      <point x="354" y="-22"/>
      <point x="314" y="-53"/>
      <point x="256" y="-53" type="curve" smooth="yes"/>
      <point x="205" y="-53"/>
      <point x="182" y="-32"/>
      <point x="182" y="3" type="curve" smooth="yes"/>
      <point x="182" y="36"/>
      <point x="227" y="75"/>
      <point x="269" y="124" type="curve" smooth="yes"/>
      <point x="304" y="165"/>
      <point x="337" y="214"/>
      <point x="337" y="272" type="curve" smooth="yes"/>
      <point x="337" y="293"/>
      <point x="323" y="301"/>
    </contour>
    <contour>
      <point x="293" y="525" type="curve" smooth="yes"/>
      <point x="261" y="525" type="line" smooth="yes"/>
      <point x="219" y="525"/>
      <point x="201" y="514"/>
      <point x="201" y="493" type="curve" smooth="yes"/>
      <point x="201" y="401" type="line" smooth="yes"/>
      <point x="201" y="380"/>
      <point x="219" y="369"/>
      <point x="261" y="369" type="curve" smooth="yes"/>
      <point x="293" y="369" type="line" smooth="yes"/>
      <point x="335" y="369"/>
      <point x="353" y="380"/>
      <point x="353" y="401" type="curve" smooth="yes"/>
      <point x="353" y="493" type="line" smooth="yes"/>
      <point x="353" y="514"/>
      <point x="335" y="525"/>
    </contour>
  </outline>
</glyph>
<glyph name="Eth" format="2">
  <advance width="696"/>
  <unicode hex="00D0"/>
  <outline>
    <contour>
      <point x="42" y="291" type="curve" smooth="yes"/>
      <point x="325" y="291" type="line" smooth="yes"/>
      <point x="346" y="291"/>
      <point x="355" y="306"/>
      <point x="355" y="341" type="curve" smooth="yes"/>
      <point x="355" y="371" type="line" smooth="yes"/>
      <point x="355" y="406"/>
      <point x="346" y="421"/>
      <point x="325" y="421" type="curve" smooth="yes"/>
      <point x="42" y="421" type="line" smooth="yes"/>
      <point x="21" y="421"/>
      <point x="12" y="406"/>
      <point x="12" y="371" type="curve" smooth="yes"/>
      <point x="12" y="341" type="line" smooth="yes"/>
      <point x="12" y="306"/>
      <point x="21" y="291"/>
    </contour>
    <component base="D"/>
  </outline>
</glyph>
<glyph name="multiply" format="2">
  <advance width="560"/>
  <unicode hex="00D7"/>
  <outline>
    <contour>
      <point x="115" y="11" type="curve" smooth="yes"/>
      <point x="121" y="11"/>
      <point x="127" y="14"/>
      <point x="133" y="20" type="curve" smooth="yes"/>
      <point x="280" y="167" type="line"/>
      <point x="428" y="20" type="line" smooth="yes"/>
      <point x="434" y="14"/>
      <point x="439" y="11"/>
      <point x="446" y="11" type="curve" smooth="yes"/>
      <point x="464" y="11"/>
      <point x="512" y="53"/>
      <point x="512" y="77" type="curve" smooth="yes"/>
      <point x="512" y="83"/>
      <point x="509" y="89"/>
      <point x="503" y="95" type="curve" smooth="yes"/>
      <point x="356" y="242" type="line"/>
      <point x="503" y="390" type="line" smooth="yes"/>
      <point x="509" y="396"/>
      <point x="512" y="401"/>
      <point x="512" y="408" type="curve" smooth="yes"/>
      <point x="512" y="430"/>
      <point x="465" y="474"/>
      <point x="446" y="474" type="curve" smooth="yes"/>
      <point x="439" y="474"/>
      <point x="434" y="471"/>
      <point x="428" y="465" type="curve" smooth="yes"/>
      <point x="280" y="318" type="line"/>
      <point x="133" y="465" type="line" smooth="yes"/>
      <point x="127" y="471"/>
      <point x="121" y="474"/>
      <point x="115" y="474" type="curve" smooth="yes"/>
      <point x="93" y="474"/>
      <point x="49" y="428"/>
      <point x="49" y="408" type="curve" smooth="yes"/>
      <point x="49" y="401"/>
      <point x="52" y="396"/>
      <point x="58" y="390" type="curve" smooth="yes"/>
      <point x="205" y="242" type="line"/>
      <point x="58" y="95" type="line" smooth="yes"/>
      <point x="52" y="89"/>
      <point x="49" y="83"/>
      <point x="49" y="77" type="curve" smooth="yes"/>
      <point x="49" y="56"/>
      <point x="95" y="11"/>
    </contour>
  </outline>
</glyph>
<glyph name="Thorn" format="2">
  <advance width="570"/>
  <unicode hex="00DE"/>
  <anchor x="146" y="0" name="bottom"/>
  <anchor x="146" y="700" name="top"/>
  <outline>
    <contour>
      <point x="129" y="-2" type="curve" smooth="yes"/>
      <point x="163" y="-2" type="line" smooth="yes"/>
      <point x="205" y="-2"/>
      <point x="223" y="9"/>
      <point x="223" y="30" type="curve" smooth="yes"/>
      <point x="223" y="155" type="line"/>
      <point x="329" y="155" type="line" smooth="yes"/>
      <point x="383" y="155"/>
      <point x="557" y="181"/>
      <point x="557" y="374" type="curve" smooth="yes"/>
      <point x="557" y="567"/>
      <point x="408" y="593"/>
      <point x="319" y="593" type="curve" smooth="yes"/>
      <point x="223" y="593" type="line"/>
      <point x="223" y="670" type="line" smooth="yes"/>
      <point x="223" y="691"/>
      <point x="205" y="702"/>
      <point x="163" y="702" type="curve" smooth="yes"/>
      <point x="129" y="702" type="line" smooth="yes"/>
      <point x="87" y="702"/>
      <point x="69" y="691"/>
      <point x="69" y="670" type="curve" smooth="yes"/>
      <point x="69" y="30" type="line" smooth="yes"/>
      <point x="69" y="9"/>
      <point x="87" y="-2"/>
    </contour>
    <contour>
      <point x="223" y="287" type="line"/>
      <point x="223" y="462" type="line"/>
      <point x="312" y="462" type="line" smooth="yes"/>
      <point x="350" y="462"/>
      <point x="399" y="446"/>
      <point x="399" y="374" type="curve" smooth="yes"/>
      <point x="399" y="302"/>
      <point x="350" y="287"/>
      <point x="312" y="287" type="curve" smooth="yes"/>
    </contour>
  </outline>
</glyph>
<glyph name="divide" format="2">
  <advance width="560"/>
  <unicode hex="00F7"/>
  <outline>
    <contour>
      <point x="60" y="172" type="curve" smooth="yes"/>
      <point x="500" y="172" type="line" smooth="yes"/>
      <point x="521" y="172"/>
      <point x="530" y="187"/>
      <point x="530" y="222" type="curve" smooth="yes"/>
      <point x="530" y="229" type="line" smooth="yes"/>
      <point x="530" y="264"/>
      <point x="521" y="279"/>
      <point x="500" y="279" type="curve" smooth="yes"/>
      <point x="60" y="279" type="line" smooth="yes"/>
      <point x="39" y="279"/>
      <point x="30" y="264"/>
      <point x="30" y="229" type="curve" smooth="yes"/>
      <point x="30" y="222" type="line" smooth="yes"/>
      <point x="30" y="187"/>
      <point x="39" y="172"/>
    </contour>
    <contour>
      <point x="274" y="-2" type="curve" smooth="yes"/>
      <point x="285" y="-2" type="line" smooth="yes"/>
      <point x="327" y="-2"/>
      <point x="345" y="9"/>
      <point x="345" y="30" type="curve" smooth="yes"/>
      <point x="345" y="101" type="line" smooth="yes"/>
      <point x="345" y="122"/>
      <point x="327" y="133"/>
      <point x="285" y="133" type="curve" smooth="yes"/>
      <point x="274" y="133" type="line" smooth="yes"/>
      <point x="232" y="133"/>
      <point x="214" y="122"/>
      <point x="214" y="101" type="curve" smooth="yes"/>
      <point x="214" y="30" type="line" smooth="yes"/>
      <point x="214" y="9"/>
      <point x="232" y="-2"/>
    </contour>
    <contour>
      <point x="274" y="318" type="curve" smooth="yes"/>
      <point x="285" y="318" type="line" smooth="yes"/>
      <point x="327" y="318"/>
      <point x="345" y="329"/>
      <point x="345" y="350" type="curve" smooth="yes"/>
      <point x="345" y="421" type="line" smooth="yes"/>
      <point x="345" y="442"/>
      <point x="327" y="453"/>
      <point x="285" y="453" type="curve" smooth="yes"/>
      <point x="274" y="453" type="line" smooth="yes"/>
      <point x="232" y="453"/>
      <point x="214" y="442"/>
      <point x="214" y="421" type="curve" smooth="yes"/>
      <point x="214" y="350" type="line" smooth="yes"/>
      <point x="214" y="329"/>
      <point x="232" y="318"/>
    </contour>
  </outline>
</glyph>
<glyph name="thorn" format="2">
  <advance width="573"/>
  <unicode hex="00FE"/>
  <outline>
    <contour>
      <point x="130" y="-206" type="curve" smooth="yes"/>
      <point x="158" y="-206" type="line" smooth="yes"/>
      <point x="200" y="-206"/>
      <point x="218" y="-195"/>
      <point x="218" y="-174" type="curve" smooth="yes"/>
      <point x="218" y="23" type="line"/>
      <point x="239" y="8"/>
      <point x="273" y="-8"/>
      <point x="320" y="-8" type="curve" smooth="yes"/>
      <point x="455" y="-8"/>
      <point x="531" y="98"/>
      <point x="531" y="261" type="curve" smooth="yes"/>
      <point x="531" y="435"/>
      <point x="452" y="531"/>
      <point x="344" y="531" type="curve" smooth="yes"/>
      <point x="289" y="531"/>
      <point x="243" y="506"/>
      <point x="218" y="470" type="curve"/>
      <point x="218" y="722" type="line" smooth="yes"/>
      <point x="218" y="743"/>
      <point x="200" y="754"/>
      <point x="158" y="754" type="curve" smooth="yes"/>
      <point x="130" y="754" type="line" smooth="yes"/>
      <point x="88" y="754"/>
      <point x="70" y="743"/>
      <point x="70" y="722" type="curve" smooth="yes"/>
      <point x="70" y="-174" type="line" smooth="yes"/>
      <point x="70" y="-195"/>
      <point x="88" y="-206"/>
    </contour>
    <contour>
      <point x="288" y="109" type="curve" smooth="yes"/>
      <point x="257" y="109"/>
      <point x="234" y="119"/>
      <point x="218" y="128" type="curve"/>
      <point x="218" y="351" type="line"/>
      <point x="236" y="382"/>
      <point x="262" y="410"/>
      <point x="300" y="410" type="curve" smooth="yes"/>
      <point x="355" y="410"/>
      <point x="381" y="358"/>
      <point x="381" y="261" type="curve" smooth="yes"/>
      <point x="381" y="161"/>
      <point x="351" y="109"/>
    </contour>
  </outline>
</glyph>
<glyph name="dcroat" format="2">
  <advance width="565"/>
  <unicode hex="0111"/>
  <outline>
    <contour>
      <point x="205" y="585" type="curve"/>
      <point x="535" y="585" type="line" smooth="yes"/>
      <point x="556" y="585"/>
      <point x="565" y="597"/>
      <point x="565" y="625" type="curve" smooth="yes"/>
      <point x="565" y="640" type="line" smooth="yes"/>
      <point x="565" y="668"/>
      <point x="556" y="680"/>
      <point x="535" y="680" type="curve" smooth="yes"/>
      <point x="205" y="680" type="line" smooth="yes"/>
      <point x="184" y="680"/>
      <point x="175" y="668"/>
      <point x="175" y="640" type="curve" smooth="yes"/>
      <point x="175" y="625" type="line" smooth="yes"/>
      <point x="175" y="597"/>
      <point x="184" y="585"/>
    </contour>
    <component base="d"/>
  </outline>
</glyph>
<glyph name="hbar" format="2">
  <advance width="565"/>
  <unicode hex="0127"/>
  <outline>
    <contour>
      <point x="37" y="585" type="curve"/>
      <point x="340" y="585" type="line" smooth="yes"/>
      <point x="366" y="585"/>
      <point x="377" y="597"/>
      <point x="377" y="625" type="curve" smooth="yes"/>
      <point x="377" y="640" type="line" smooth="yes"/>
      <point x="377" y="668"/>
      <point x="366" y="680"/>
      <point x="340" y="680" type="curve" smooth="yes"/>
      <point x="37" y="680" type="line" smooth="yes"/>
      <point x="11" y="680"/>
      <point x="0" y="668"/>
      <point x="0" y="640" type="curve" smooth="yes"/>
      <point x="0" y="625" type="line" smooth="yes"/>
      <point x="0" y="597"/>
      <point x="11" y="585"/>
    </contour>
    <component base="h"/>
  </outline>
</glyph>
<glyph name="idotless" format="2">
  <advance width="265"/>
  <unicode hex="0131"/>
  <anchor x="131" y="0" name="bottom"/>
  <anchor x="186" y="0" name="ogonek"/>
  <anchor x="133" y="523" name="top"/>
  <outline>
    <contour>
      <point x="119" y="-2" type="curve" smooth="yes"/>
      <point x="147" y="-2" type="line" smooth="yes"/>
      <point x="189" y="-2"/>
      <point x="207" y="9"/>
      <point x="207" y="30" type="curve" smooth="yes"/>
      <point x="207" y="493" type="line" smooth="yes"/>
      <point x="207" y="514"/>
      <point x="189" y="525"/>
      <point x="147" y="525" type="curve" smooth="yes"/>
      <point x="119" y="525" type="line" smooth="yes"/>
      <point x="77" y="525"/>
      <point x="59" y="514"/>
      <point x="59" y="493" type="curve" smooth="yes"/>
      <point x="59" y="30" type="line" smooth="yes"/>
      <point x="59" y="9"/>
      <point x="77" y="-2"/>
    </contour>
  </outline>
</glyph>
<glyph name="kgreenlandic" format="2">
  <advance width="521"/>
  <unicode hex="0138"/>
  <outline>
    <contour>
      <point x="126" y="-2" type="curve" smooth="yes"/>
      <point x="154" y="-2" type="line" smooth="yes"/>
      <point x="196" y="-2"/>
      <point x="214" y="9"/>
      <point x="214" y="30" type="curve" smooth="yes"/>
      <point x="214" y="246" type="line"/>
      <point x="218" y="247" type="line"/>
      <point x="362" y="17" type="line" smooth="yes"/>
      <point x="371" y="2"/>
      <point x="393" y="-2"/>
      <point x="422" y="-2" type="curve" smooth="yes"/>
      <point x="464" y="-2" type="line" smooth="yes"/>
      <point x="503" y="-2"/>
      <point x="521" y="4"/>
      <point x="521" y="13" type="curve" smooth="yes"/>
      <point x="521" y="19"/>
      <point x="519" y="25"/>
      <point x="513" y="34" type="curve" smooth="yes"/>
      <point x="348" y="295" type="line"/>
      <point x="499" y="490" type="line" smooth="yes"/>
      <point x="505" y="498"/>
      <point x="508" y="505"/>
      <point x="508" y="510" type="curve" smooth="yes"/>
      <point x="508" y="519"/>
      <point x="490" y="525"/>
      <point x="452" y="525" type="curve" smooth="yes"/>
      <point x="415" y="525" type="line" smooth="yes"/>
      <point x="386" y="525"/>
      <point x="366" y="523"/>
      <point x="354" y="506" type="curve" smooth="yes"/>
      <point x="218" y="325" type="line"/>
      <point x="214" y="326" type="line"/>
      <point x="214" y="493" type="line" smooth="yes"/>
      <point x="214" y="514"/>
      <point x="196" y="525"/>
      <point x="154" y="525" type="curve" smooth="yes"/>
      <point x="126" y="525" type="line" smooth="yes"/>
      <point x="84" y="525"/>
      <point x="66" y="514"/>
      <point x="66" y="493" type="curve" smooth="yes"/>
      <point x="66" y="30" type="line" smooth="yes"/>
      <point x="66" y="9"/>
      <point x="84" y="-2"/>
    </contour>
  </outline>
</glyph>
<glyph name="ldot" format="2">
  <advance width="297"/>
  <unicode hex="0140"/>
  <outline>
    <contour>
      <point x="286.2" y="319.20000000000005" type="curve" smooth="yes"/>
      <point x="317.4" y="319.20000000000005"/>
      <point x="342.20000000000005" y="344.0"/>
      <point x="342.20000000000005" y="375.2" type="curve" smooth="yes"/>
      <point x="342.20000000000005" y="406.40000000000003"/>
      <point x="317.4" y="431.20000000000005"/>
      <point x="286.2" y="431.20000000000005" type="curve" smooth="yes"/>
      <point x="255.0" y="431.20000000000005"/>
      <point x="230.2" y="406.40000000000003"/>
      <point x="230.2" y="375.2" type="curve" smooth="yes"/>
      <point x="230.2" y="344.0"/>
      <point x="255.0" y="319.20000000000005"/>
    </contour>
    <component base="l"/>
  </outline>
</glyph>
<glyph name="Lslash" format="2">
  <advance width="486"/>
  <unicode hex="0141"/>
  <outline>
    <contour>
      <point x="11" y="202" type="curve" smooth="yes"/>
      <point x="15" y="202"/>
      <point x="20" y="203"/>
      <point x="26" y="207" type="curve" smooth="yes"/>
      <point x="328" y="392" type="line" smooth="yes"/>
      <point x="346" y="403"/>
      <point x="354" y="417"/>
      <point x="354" y="438" type="curve" smooth="yes"/>
      <point x="354" y="458" type="line" smooth="yes"/>
      <point x="354" y="471"/>
      <point x="350" y="478"/>
      <point x="343" y="478" type="curve" smooth="yes"/>
      <point x="339" y="478"/>
      <point x="334" y="476"/>
      <point x="328" y="472" type="curve" smooth="yes"/>
      <point x="26" y="287" type="line" smooth="yes"/>
      <point x="8" y="276"/>
      <point x="0" y="264"/>
      <point x="0" y="242" type="curve" smooth="yes"/>
      <point x="0" y="222" type="line" smooth="yes"/>
      <point x="0" y="208"/>
      <point x="3" y="202"/>
    </contour>
    <component base="L"/>
  </outline>
</glyph>
<glyph name="lslash" format="2">
  <advance width="297"/>
  <unicode hex="0142"/>
  <outline>
    <contour>
      <point x="37" y="310" type="curve" smooth="yes"/>
      <point x="241" y="434" type="line" smooth="yes"/>
      <point x="259" y="445"/>
      <point x="267" y="457"/>
      <point x="267" y="479" type="curve" smooth="yes"/>
      <point x="267" y="499" type="line" smooth="yes"/>
      <point x="267" y="513"/>
      <point x="263" y="519"/>
      <point x="256" y="519" type="curve" smooth="yes"/>
      <point x="252" y="519"/>
      <point x="247" y="518"/>
      <point x="241" y="514" type="curve" smooth="yes"/>
      <point x="37" y="390" type="line" smooth="yes"/>
      <point x="19" y="379"/>
      <point x="11" y="365"/>
      <point x="11" y="344" type="curve" smooth="yes"/>
      <point x="11" y="324" type="line" smooth="yes"/>
      <point x="11" y="310"/>
      <point x="14" y="304"/>
      <point x="21" y="304" type="curve" smooth="yes"/>
      <point x="25" y="304"/>
      <point x="30" y="306"/>
    </contour>
    <component base="l"/>
  </outline>
</glyph>
<glyph name="eng" format="2">
  <advance width="557"/>
  <unicode hex="014B"/>
  <outline>
    <contour>
      <point x="354" y="-212" type="curve" smooth="yes"/>
      <point x="437" y="-212"/>
      <point x="500" y="-159"/>
      <point x="500" y="-50" type="curve" smooth="yes"/>
      <point x="500" y="369" type="line" smooth="yes"/>
      <point x="500" y="480"/>
      <point x="453" y="531"/>
      <point x="353" y="531" type="curve" smooth="yes"/>
      <point x="288" y="531"/>
      <point x="233" y="493"/>
      <point x="204" y="455" type="curve"/>
      <point x="198" y="480"/>
      <point x="196" y="520"/>
      <point x="164" y="520" type="curve" smooth="yes"/>
      <point x="139" y="520"/>
      <point x="52" y="512"/>
      <point x="52" y="488" type="curve" smooth="yes"/>
      <point x="52" y="468"/>
      <point x="64" y="447"/>
      <point x="64" y="347" type="curve" smooth="yes"/>
      <point x="64" y="30" type="line" smooth="yes"/>
      <point x="64" y="9"/>
      <point x="82" y="-2"/>
      <point x="124" y="-2" type="curve" smooth="yes"/>
      <point x="152" y="-2" type="line" smooth="yes"/>
      <point x="194" y="-2"/>
      <point x="212" y="9"/>
      <point x="212" y="30" type="curve" smooth="yes"/>
      <point x="212" y="351" type="line"/>
      <point x="224" y="374"/>
      <point x="251" y="409"/>
      <point x="292" y="409" type="curve" smooth="yes"/>
      <point x="336" y="409"/>
      <point x="352" y="386"/>
      <point x="352" y="347" type="curve" smooth="yes"/>
      <point x="352" y="-52" type="line" smooth="yes"/>
      <point x="352" y="-82"/>
      <point x="342" y="-95"/>
      <point x="316" y="-95" type="curve" smooth="yes"/>
      <point x="305" y="-95"/>
      <point x="292" y="-91"/>
      <point x="286" y="-91" type="curve" smooth="yes"/>
      <point x="265" y="-91"/>
      <point x="250" y="-137"/>
      <point x="250" y="-160" type="curve" smooth="yes"/>
      <point x="250" y="-199"/>
      <point x="275" y="-212"/>
    </contour>
  </outline>
</glyph>
<glyph name="OE" format="2">
  <advance width="1015"/>
  <unicode hex="0152"/>
  <anchor x="508" y="0" name="bottom"/>
  <anchor x="508" y="700" name="top"/>
  <outline>
    <contour>
      <point x="356" y="-8" type="curve" smooth="yes"/>
      <point x="439" y="-8"/>
      <point x="509" y="15"/>
      <point x="564" y="62" type="curve"/>
      <point x="530" y="116" type="line"/>
      <point x="530" y="41" type="line"/>
      <point x="530" y="12"/>
      <point x="542" y="0"/>
      <point x="570" y="0" type="curve" smooth="yes"/>
      <point x="937" y="0" type="line" smooth="yes"/>
      <point x="958" y="0"/>
      <point x="967" y="15"/>
      <point x="967" y="50" type="curve" smooth="yes"/>
      <point x="967" y="81" type="line" smooth="yes"/>
      <point x="967" y="116"/>
      <point x="958" y="131"/>
      <point x="937" y="131" type="curve" smooth="yes"/>
      <point x="684" y="131" type="line"/>
      <point x="684" y="293" type="line"/>
      <point x="909" y="293" type="line" smooth="yes"/>
      <point x="930" y="293"/>
      <point x="939" y="308"/>
      <point x="939" y="343" type="curve" smooth="yes"/>
      <point x="939" y="374" type="line" smooth="yes"/>
      <point x="939" y="409"/>
      <point x="930" y="424"/>
      <point x="909" y="424" type="curve" smooth="yes"/>
      <point x="684" y="424" type="line"/>
      <point x="684" y="569" type="line"/>
      <point x="936" y="569" type="line" smooth="yes"/>
      <point x="957" y="569"/>
      <point x="966" y="584"/>
      <point x="966" y="619" type="curve" smooth="yes"/>
      <point x="966" y="650" type="line" smooth="yes"/>
      <point x="966" y="685"/>
      <point x="957" y="700"/>
      <point x="936" y="700" type="curve" smooth="yes"/>
      <point x="570" y="700" type="line" smooth="yes"/>
      <point x="542" y="700"/>
      <point x="530" y="688"/>
      <point x="530" y="662" type="curve" smooth="yes"/>
      <point x="530" y="587" type="line"/>
      <point x="564" y="637" type="line"/>
      <point x="508" y="685"/>
      <point x="441" y="708"/>
      <point x="356" y="708" type="curve" smooth="yes"/>
      <point x="156" y="708"/>
      <point x="45" y="581"/>
      <point x="45" y="350" type="curve" smooth="yes"/>
      <point x="45" y="119"/>
      <point x="156" y="-8"/>
    </contour>
    <contour>
      <point x="366" y="123" type="curve" smooth="yes"/>
      <point x="259" y="123"/>
      <point x="203" y="203"/>
      <point x="203" y="350" type="curve" smooth="yes"/>
      <point x="203" y="497"/>
      <point x="259" y="576"/>
      <point x="366" y="576" type="curve" smooth="yes"/>
      <point x="473" y="576"/>
      <point x="528" y="497"/>
      <point x="528" y="350" type="curve" smooth="yes"/>
      <point x="528" y="203"/>
      <point x="473" y="123"/>
    </contour>
  </outline>
</glyph>
<glyph name="tbar" format="2">
  <advance width="342"/>
  <unicode hex="0167"/>
  <outline>
    <contour>
      <point x="61" y="220" type="curve"/>
      <point x="267" y="220" type="line" smooth="yes"/>
      <point x="288" y="220"/>
      <point x="297" y="232"/>
      <point x="297" y="260" type="curve" smooth="yes"/>
      <point x="297" y="275" type="line" smooth="yes"/>
      <point x="297" y="303"/>
      <point x="288" y="315"/>
      <point x="267" y="315" type="curve" smooth="yes"/>
      <point x="61" y="315" type="line" smooth="yes"/>
      <point x="40" y="315"/>
      <point x="31" y="303"/>
      <point x="31" y="275" type="curve" smooth="yes"/>
      <point x="31" y="260" type="line" smooth="yes"/>
      <point x="31" y="232"/>
      <point x="40" y="220"/>
    </contour>
    <component base="t"/>
  </outline>
</glyph>
<glyph name="Schwa" format="2">
  <advance width="672"/>
  <unicode hex="018F"/>
  <outline>
    <contour>
      <point x="324" y="-1" type="curve" smooth="yes"/>
      <point x="497" y="-1"/>
      <point x="617" y="93"/>
      <point x="617" y="332" type="curve" smooth="yes"/>
      <point x="617" y="559"/>
      <point x="525" y="708"/>
      <point x="316" y="708" type="curve" smooth="yes"/>
      <point x="242" y="708"/>
      <point x="76" y="680"/>
      <point x="76" y="616" type="curve" smooth="yes"/>
      <point x="76" y="596"/>
      <point x="106" y="540"/>
      <point x="128" y="540" type="curve" smooth="yes"/>
      <point x="148" y="540"/>
      <point x="216" y="591"/>
      <point x="309" y="591" type="curve" smooth="yes"/>
      <point x="398" y="591"/>
      <point x="453" y="544"/>
      <point x="464" y="376" type="curve"/>
      <point x="109" y="376" type="line" smooth="yes"/>
      <point x="96" y="376"/>
      <point x="58" y="334"/>
      <point x="58" y="317" type="curve" smooth="yes"/>
      <point x="58" y="148"/>
      <point x="132" y="-1"/>
    </contour>
    <contour>
      <point x="324" y="116" type="curve" smooth="yes"/>
      <point x="239" y="116"/>
      <point x="202" y="183"/>
      <point x="202" y="277" type="curve"/>
      <point x="464" y="277" type="line"/>
      <point x="447" y="152"/>
      <point x="391" y="116"/>
    </contour>
  </outline>
</glyph>
<glyph name="florin" format="2">
  <advance width="370"/>
  <unicode hex="0192"/>
  <outline>
    <contour>
      <point x="71" y="-207" type="curve" smooth="yes"/>
      <point x="99" y="-207" type="line" smooth="yes"/>
      <point x="141" y="-207"/>
      <point x="160" y="-196"/>
      <point x="163" y="-175" type="curve" smooth="yes"/>
      <point x="244" y="406" type="line"/>
      <point x="294" y="406" type="line" smooth="yes"/>
      <point x="335" y="406"/>
      <point x="335" y="489"/>
      <point x="335" y="492" type="curve" smooth="yes"/>
      <point x="335" y="513"/>
      <point x="328" y="523"/>
      <point x="311" y="523" type="curve" smooth="yes"/>
      <point x="261" y="523" type="line"/>
      <point x="272" y="600" type="line" smooth="yes"/>
      <point x="276" y="630"/>
      <point x="288" y="643"/>
      <point x="314" y="643" type="curve" smooth="yes"/>
      <point x="324" y="643"/>
      <point x="337" y="639"/>
      <point x="344" y="639" type="curve" smooth="yes"/>
      <point x="364" y="639"/>
      <point x="385" y="695"/>
      <point x="385" y="711" type="curve" smooth="yes"/>
      <point x="385" y="757"/>
      <point x="328" y="760"/>
      <point x="292" y="760" type="curve" smooth="yes"/>
      <point x="199" y="760"/>
      <point x="138" y="709"/>
      <point x="123" y="598" type="curve" smooth="yes"/>
      <point x="113" y="523" type="line"/>
      <point x="95" y="523" type="line" smooth="yes"/>
      <point x="54" y="523"/>
      <point x="53" y="443"/>
      <point x="53" y="437" type="curve" smooth="yes"/>
      <point x="53" y="415"/>
      <point x="61" y="406"/>
      <point x="78" y="406" type="curve" smooth="yes"/>
      <point x="96" y="406" type="line"/>
      <point x="69" y="212"/>
      <point x="15" y="-164"/>
      <point x="15" y="-175" type="curve"/>
      <point x="15" y="-197"/>
      <point x="26" y="-207"/>
    </contour>
  </outline>
</glyph>
<glyph name="Nhookleft" format="2">
  <advance width="719"/>
  <unicode hex="019D"/>
  <outline>
    <contour>
      <point x="12" y="-212" type="curve" smooth="yes"/>
      <point x="157" y="-212"/>
      <point x="218" y="-129"/>
      <point x="218" y="-2" type="curve" smooth="yes"/>
      <point x="218" y="367" type="line" smooth="yes"/>
      <point x="218" y="396"/>
      <point x="218" y="412"/>
      <point x="216" y="435" type="curve"/>
      <point x="220" y="436" type="line"/>
      <point x="231" y="415"/>
      <point x="242" y="397"/>
      <point x="256" y="377" type="curve" smooth="yes"/>
      <point x="486" y="25" type="line" smooth="yes"/>
      <point x="501" y="2"/>
      <point x="523" y="-2"/>
      <point x="552" y="-2" type="curve" smooth="yes"/>
      <point x="590" y="-2" type="line" smooth="yes"/>
      <point x="632" y="-2"/>
      <point x="650" y="9"/>
      <point x="650" y="30" type="curve" smooth="yes"/>
      <point x="650" y="670" type="line" smooth="yes"/>
      <point x="650" y="691"/>
      <point x="632" y="702"/>
      <point x="590" y="702" type="curve" smooth="yes"/>
      <point x="561" y="702" type="line" smooth="yes"/>
      <point x="519" y="702"/>
      <point x="501" y="691"/>
      <point x="501" y="670" type="curve" smooth="yes"/>
      <point x="501" y="338" type="line" smooth="yes"/>
      <point x="501" y="309"/>
      <point x="501" y="293"/>
      <point x="503" y="270" type="curve"/>
      <point x="499" y="269" type="line"/>
      <point x="488" y="290"/>
      <point x="477" y="308"/>
      <point x="463" y="328" type="curve"/>
      <point x="238" y="675" type="line" smooth="yes"/>
      <point x="223" y="698"/>
      <point x="201" y="702"/>
      <point x="172" y="702" type="curve" smooth="yes"/>
      <point x="129" y="702" type="line" smooth="yes"/>
      <point x="87" y="702"/>
      <point x="69" y="691"/>
      <point x="69" y="670" type="curve" smooth="yes"/>
      <point x="69" y="23" type="line" smooth="yes"/>
      <point x="69" y="-50"/>
      <point x="51" y="-81"/>
      <point x="5" y="-81" type="curve" smooth="yes"/>
      <point x="-27" y="-81"/>
      <point x="-41" y="-73"/>
      <point x="-51" y="-73" type="curve"/>
      <point x="-82" y="-76"/>
      <point x="-92" y="-148"/>
      <point x="-92" y="-166" type="curve" smooth="yes"/>
      <point x="-92" y="-209"/>
      <point x="8" y="-212"/>
    </contour>
  </outline>
</glyph>
<glyph name="Ohorn" format="2">
  <advance width="731"/>
  <unicode hex="01A0"/>
  <anchor x="367" y="0" name="bottom"/>
  <anchor x="366" y="700" name="top"/>
  <outline>
    <contour>
      <point x="366" y="-8" type="curve" smooth="yes"/>
      <point x="572" y="-8"/>
      <point x="686" y="119"/>
      <point x="686" y="350" type="curve" smooth="yes"/>
      <point x="686" y="500"/>
      <point x="637" y="607"/>
      <point x="548" y="662" type="curve"/>
      <point x="514" y="634" type="line"/>
      <point x="622" y="632"/>
      <point x="669" y="671"/>
      <point x="669" y="733" type="curve" smooth="yes"/>
      <point x="669" y="763"/>
      <point x="644" y="816"/>
      <point x="612" y="816" type="curve" smooth="yes"/>
      <point x="606" y="816"/>
      <point x="601" y="815"/>
      <point x="596" y="811" type="curve"/>
      <point x="564" y="789" type="line"/>
      <point x="556" y="784"/>
      <point x="553" y="777"/>
      <point x="553" y="770" type="curve" smooth="yes"/>
      <point x="553" y="757"/>
      <point x="579" y="740"/>
      <point x="579" y="718" type="curve" smooth="yes"/>
      <point x="579" y="695"/>
      <point x="566" y="682"/>
      <point x="537" y="682" type="curve" smooth="yes"/>
      <point x="517" y="682"/>
      <point x="496" y="688"/>
      <point x="474" y="694" type="curve" smooth="yes"/>
      <point x="442" y="703"/>
      <point x="406" y="708"/>
      <point x="366" y="708" type="curve" smooth="yes"/>
      <point x="160" y="708"/>
      <point x="45" y="581"/>
      <point x="45" y="350" type="curve" smooth="yes"/>
      <point x="45" y="119"/>
      <point x="160" y="-8"/>
    </contour>
    <contour>
      <point x="366" y="123" type="curve" smooth="yes"/>
      <point x="259" y="123"/>
      <point x="203" y="203"/>
      <point x="203" y="350" type="curve" smooth="yes"/>
      <point x="203" y="497"/>
      <point x="259" y="576"/>
      <point x="366" y="576" type="curve" smooth="yes"/>
      <point x="473" y="576"/>
      <point x="528" y="497"/>
      <point x="528" y="350" type="curve" smooth="yes"/>
      <point x="528" y="203"/>
      <point x="473" y="123"/>
    </contour>
  </outline>
</glyph>
<glyph name="ohorn" format="2">
  <advance width="569"/>
  <unicode hex="01A1"/>
  <anchor x="291" y="0" name="bottom"/>
  <anchor x="353" y="0" name="ogonek"/>
  <anchor x="285" y="523" name="top"/>
  <outline>
    <contour>
      <point x="285" y="-8" type="curve" smooth="yes"/>
      <point x="444" y="-8"/>
      <point x="527" y="88"/>
      <point x="527" y="262" type="curve" smooth="yes"/>
      <point x="527" y="350"/>
      <point x="506" y="417"/>
      <point x="465" y="463" type="curve"/>
      <point x="539" y="469"/>
      <point x="572" y="504"/>
      <point x="572" y="556" type="curve" smooth="yes"/>
      <point x="572" y="586"/>
      <point x="551" y="639"/>
      <point x="525" y="639" type="curve" smooth="yes"/>
      <point x="519" y="639"/>
      <point x="514" y="638"/>
      <point x="509" y="634" type="curve"/>
      <point x="477" y="612" type="line"/>
      <point x="469" y="607"/>
      <point x="466" y="600"/>
      <point x="466" y="593" type="curve" smooth="yes"/>
      <point x="466" y="580"/>
      <point x="492" y="563"/>
      <point x="492" y="541" type="curve" smooth="yes"/>
      <point x="492" y="518"/>
      <point x="479" y="505"/>
      <point x="445" y="505" type="curve" smooth="yes"/>
      <point x="428" y="505"/>
      <point x="407" y="509"/>
      <point x="379" y="517" type="curve" smooth="yes"/>
      <point x="351" y="526"/>
      <point x="320" y="531"/>
      <point x="285" y="531" type="curve" smooth="yes"/>
      <point x="126" y="531"/>
      <point x="42" y="436"/>
      <point x="42" y="262" type="curve" smooth="yes"/>
      <point x="42" y="88"/>
      <point x="126" y="-8"/>
    </contour>
    <contour>
      <point x="285" y="109" type="curve" smooth="yes"/>
      <point x="221" y="109"/>
      <point x="192" y="162"/>
      <point x="192" y="262" type="curve" smooth="yes"/>
      <point x="192" y="362"/>
      <point x="221" y="414"/>
      <point x="285" y="414" type="curve" smooth="yes"/>
      <point x="349" y="414"/>
      <point x="377" y="362"/>
      <point x="377" y="262" type="curve" smooth="yes"/>
      <point x="377" y="162"/>
      <point x="349" y="109"/>
    </contour>
  </outline>
</glyph>
<glyph name="Uhorn" format="2">
  <advance width="712"/>
  <unicode hex="01AF"/>
  <anchor x="356" y="0" name="bottom"/>
  <anchor x="447" y="0" name="ogonek"/>
  <anchor x="356" y="700" name="top"/>
  <outline>
    <contour>
      <point x="748" y="753" type="curve" smooth="yes"/>
      <point x="748" y="783"/>
      <point x="723" y="836"/>
      <point x="691" y="836" type="curve" smooth="yes"/>
      <point x="685" y="836"/>
      <point x="680" y="835"/>
      <point x="675" y="831" type="curve"/>
      <point x="643" y="809" type="line"/>
      <point x="635" y="804"/>
      <point x="632" y="797"/>
      <point x="632" y="790" type="curve" smooth="yes"/>
      <point x="632" y="777"/>
      <point x="658" y="760"/>
      <point x="658" y="738" type="curve" smooth="yes"/>
      <point x="658" y="715"/>
      <point x="645" y="702"/>
      <point x="611" y="702" type="curve" smooth="yes"/>
      <point x="553" y="702" type="line" smooth="yes"/>
      <point x="511" y="702"/>
      <point x="493" y="691"/>
      <point x="493" y="670" type="curve" smooth="yes"/>
      <point x="493" y="244" type="line" smooth="yes"/>
      <point x="493" y="174"/>
      <point x="437" y="123"/>
      <point x="356" y="123" type="curve" smooth="yes"/>
      <point x="275" y="123"/>
      <point x="220" y="174"/>
      <point x="220" y="244" type="curve" smooth="yes"/>
      <point x="220" y="670" type="line" smooth="yes"/>
      <point x="220" y="691"/>
      <point x="202" y="702"/>
      <point x="160" y="702" type="curve" smooth="yes"/>
      <point x="126" y="702" type="line" smooth="yes"/>
      <point x="84" y="702"/>
      <point x="66" y="691"/>
      <point x="66" y="670" type="curve" smooth="yes"/>
      <point x="66" y="234" type="line" smooth="yes"/>
      <point x="66" y="80"/>
      <point x="173" y="-8"/>
      <point x="356" y="-8" type="curve" smooth="yes"/>
      <point x="539" y="-8"/>
      <point x="646" y="80"/>
      <point x="646" y="234" type="curve" smooth="yes"/>
      <point x="646" y="657" type="line"/>
      <point x="717" y="666"/>
      <point x="748" y="702"/>
    </contour>
  </outline>
</glyph>
<glyph name="uhorn" format="2">
  <advance width="557"/>
  <unicode hex="01B0"/>
  <anchor x="251" y="0" name="bottom"/>
  <anchor x="477" y="0" name="ogonek"/>
  <anchor x="278" y="523" name="top"/>
  <outline>
    <contour>
      <point x="592" y="576" type="curve" smooth="yes"/>
      <point x="592" y="606"/>
      <point x="571" y="659"/>
      <point x="545" y="659" type="curve" smooth="yes"/>
      <point x="539" y="659"/>
      <point x="534" y="658"/>
      <point x="529" y="654" type="curve"/>
      <point x="497" y="632" type="line"/>
      <point x="489" y="627"/>
      <point x="486" y="620"/>
      <point x="486" y="613" type="curve" smooth="yes"/>
      <point x="486" y="600"/>
      <point x="512" y="583"/>
      <point x="512" y="561" type="curve" smooth="yes"/>
      <point x="512" y="538"/>
      <point x="499" y="525"/>
      <point x="465" y="525" type="curve" smooth="yes"/>
      <point x="407" y="525" type="line" smooth="yes"/>
      <point x="365" y="525"/>
      <point x="347" y="514"/>
      <point x="347" y="493" type="curve" smooth="yes"/>
      <point x="347" y="172" type="line"/>
      <point x="335" y="149"/>
      <point x="308" y="114"/>
      <point x="267" y="114" type="curve" smooth="yes"/>
      <point x="223" y="114"/>
      <point x="207" y="137"/>
      <point x="207" y="176" type="curve" smooth="yes"/>
      <point x="207" y="493" type="line" smooth="yes"/>
      <point x="207" y="514"/>
      <point x="189" y="525"/>
      <point x="147" y="525" type="curve" smooth="yes"/>
      <point x="119" y="525" type="line" smooth="yes"/>
      <point x="77" y="525"/>
      <point x="59" y="514"/>
      <point x="59" y="493" type="curve" smooth="yes"/>
      <point x="59" y="154" type="line" smooth="yes"/>
      <point x="59" y="43"/>
      <point x="106" y="-8"/>
      <point x="206" y="-8" type="curve" smooth="yes"/>
      <point x="271" y="-8"/>
      <point x="326" y="30"/>
      <point x="355" y="68" type="curve"/>
      <point x="361" y="41"/>
      <point x="363" y="-1"/>
      <point x="395" y="-1" type="curve" smooth="yes"/>
      <point x="420" y="-1"/>
      <point x="507" y="7"/>
      <point x="507" y="31" type="curve" smooth="yes"/>
      <point x="507" y="52"/>
      <point x="495" y="73"/>
      <point x="495" y="176" type="curve" smooth="yes"/>
      <point x="495" y="484" type="line"/>
      <point x="562" y="493"/>
      <point x="592" y="527"/>
    </contour>
  </outline>
</glyph>
<glyph name="LJ" format="2">
  <advance width="725"/>
  <unicode hex="01C7"/>
  <outline>
    <contour>
      <point x="455" y="-181" type="curve" smooth="yes"/>
      <point x="604" y="-181"/>
      <point x="667" y="-85"/>
      <point x="667" y="42" type="curve" smooth="yes"/>
      <point x="667" y="670" type="line" smooth="yes"/>
      <point x="667" y="691"/>
      <point x="649" y="703"/>
      <point x="607" y="703" type="curve" smooth="yes"/>
      <point x="572" y="703" type="line" smooth="yes"/>
      <point x="530" y="703"/>
      <point x="512" y="691"/>
      <point x="512" y="670" type="curve" smooth="yes"/>
      <point x="512" y="54" type="line" smooth="yes"/>
      <point x="512" y="-19"/>
      <point x="488" y="-50"/>
      <point x="428" y="-50" type="curve" smooth="yes"/>
      <point x="396" y="-50"/>
      <point x="382" y="-42"/>
      <point x="372" y="-42" type="curve"/>
      <point x="341" y="-45"/>
      <point x="331" y="-117"/>
      <point x="331" y="-135" type="curve" smooth="yes"/>
      <point x="331" y="-178"/>
      <point x="431" y="-181"/>
    </contour>
    <contour>
      <point x="116" y="0" type="curve" smooth="yes"/>
      <point x="383" y="0" type="line" smooth="yes"/>
      <point x="404" y="0"/>
      <point x="413" y="15"/>
      <point x="413" y="50" type="curve" smooth="yes"/>
      <point x="413" y="81" type="line" smooth="yes"/>
      <point x="413" y="116"/>
      <point x="404" y="131"/>
      <point x="383" y="131" type="curve" smooth="yes"/>
      <point x="230" y="131" type="line"/>
      <point x="230" y="670" type="line" smooth="yes"/>
      <point x="230" y="691"/>
      <point x="212" y="702"/>
      <point x="170" y="702" type="curve" smooth="yes"/>
      <point x="136" y="702" type="line" smooth="yes"/>
      <point x="94" y="702"/>
      <point x="76" y="691"/>
      <point x="76" y="670" type="curve" smooth="yes"/>
      <point x="76" y="40" type="line" smooth="yes"/>
      <point x="76" y="12"/>
      <point x="88" y="0"/>
    </contour>
  </outline>
</glyph>
<glyph name="Aringacute" format="2">
  <advance width="613"/>
  <unicode hex="01FA"/>
  <outline>
    <contour>
      <point x="61" y="-2" type="curve" smooth="yes"/>
      <point x="101" y="-2" type="line" smooth="yes"/>
      <point x="125" y="-2"/>
      <point x="142" y="4"/>
      <point x="147" y="19" type="curve" smooth="yes"/>
      <point x="187" y="141" type="line"/>
      <point x="423" y="141" type="line"/>
      <point x="463" y="19" type="line" smooth="yes"/>
      <point x="468" y="3"/>
      <point x="490" y="-2"/>
      <point x="519" y="-2" type="curve" smooth="yes"/>
      <point x="563" y="-2" type="line" smooth="yes"/>
      <point x="598" y="-2"/>
      <point x="613" y="6"/>
      <point x="613" y="20" type="curve" smooth="yes"/>
      <point x="613" y="25"/>
      <point x="612" y="31"/>
      <point x="610" y="38" type="curve" smooth="yes"/>
      <point x="395" y="666" type="line" smooth="yes"/>
      <point x="387" y="690"/>
      <point x="354" y="656"/>
      <point x="333" y="656" type="curve" smooth="yes"/>
      <point x="281" y="656" type="line" smooth="yes"/>
      <point x="260" y="656"/>
      <point x="230" y="700"/>
      <point x="218" y="666" type="curve" smooth="yes"/>
      <point x="4" y="38" type="line" smooth="yes"/>
      <point x="2" y="31"/>
      <point x="0" y="25"/>
      <point x="0" y="20" type="curve" smooth="yes"/>
      <point x="0" y="6"/>
      <point x="19" y="-2"/>
    </contour>
    <contour>
      <point x="230" y="273" type="line"/>
      <point x="289" y="451" type="line" smooth="yes"/>
      <point x="296.5" y="472"/>
      <point x="300" y="494"/>
      <point x="304" y="515" type="curve"/>
      <point x="308" y="515" type="line"/>
      <point x="312" y="494"/>
      <point x="316" y="472"/>
      <point x="323" y="451" type="curve" smooth="yes"/>
      <point x="380" y="273" type="line"/>
    </contour>
    <component base="ringcomb.case" xOffset="209" yOffset="55"/>
    <component base="acutecomb.case" xOffset="227" yOffset="250"/>
  </outline>
</glyph>
<glyph name="nhookleft" format="2">
  <advance width="557"/>
  <unicode hex="0272"/>
  <outline>
    <contour>
      <point x="64" y="-212" type="curve" smooth="yes"/>
      <point x="147" y="-212"/>
      <point x="210" y="-159"/>
      <point x="210" y="-50" type="curve" smooth="yes"/>
      <point x="210" y="351" type="line"/>
      <point x="222" y="374"/>
      <point x="249" y="409"/>
      <point x="290" y="409" type="curve" smooth="yes"/>
      <point x="334" y="409"/>
      <point x="350" y="386"/>
      <point x="350" y="347" type="curve" smooth="yes"/>
      <point x="350" y="30" type="line" smooth="yes"/>
      <point x="350" y="9"/>
      <point x="368" y="-2"/>
      <point x="410" y="-2" type="curve" smooth="yes"/>
      <point x="438" y="-2" type="line" smooth="yes"/>
      <point x="480" y="-2"/>
      <point x="498" y="9"/>
      <point x="498" y="30" type="curve" smooth="yes"/>
      <point x="498" y="369" type="line" smooth="yes"/>
      <point x="498" y="480"/>
      <point x="451" y="531"/>
      <point x="351" y="531" type="curve" smooth="yes"/>
      <point x="286" y="531"/>
      <point x="231" y="493"/>
      <point x="202" y="455" type="curve"/>
      <point x="196" y="480"/>
      <point x="194" y="520"/>
      <point x="162" y="520" type="curve" smooth="yes"/>
      <point x="137" y="520"/>
      <point x="50" y="512"/>
      <point x="50" y="488" type="curve" smooth="yes"/>
      <point x="50" y="468"/>
      <point x="62" y="447"/>
      <point x="62" y="347" type="curve" smooth="yes"/>
      <point x="62" y="-52" type="line" smooth="yes"/>
      <point x="62" y="-82"/>
      <point x="52" y="-95"/>
      <point x="26" y="-95" type="curve" smooth="yes"/>
      <point x="15" y="-95"/>
      <point x="2" y="-91"/>
      <point x="-4" y="-91" type="curve" smooth="yes"/>
      <point x="-25" y="-91"/>
      <point x="-40" y="-137"/>
      <point x="-40" y="-160" type="curve" smooth="yes"/>
      <point x="-40" y="-199"/>
      <point x="-15" y="-212"/>
    </contour>
  </outline>
</glyph>
<glyph name="primemod" format="2">
  <advance width="156"/>
  <unicode hex="02B9"/>
  <outline>
    <contour>
      <point x="31" y="484" type="curve" smooth="yes"/>
      <point x="56" y="484" type="line" smooth="yes"/>
      <point x="77" y="484"/>
      <point x="83" y="494"/>
      <point x="90" y="514" type="curve" smooth="yes"/>
      <point x="151" y="699" type="line" smooth="yes"/>
      <point x="154" y="709"/>
      <point x="156" y="717"/>
      <point x="156" y="722" type="curve" smooth="yes"/>
      <point x="156" y="743"/>
      <point x="138" y="754"/>
      <point x="96" y="754" type="curve" smooth="yes"/>
      <point x="86" y="754" type="line" smooth="yes"/>
      <point x="44" y="754"/>
      <point x="29" y="743"/>
      <point x="26" y="722" type="curve" smooth="yes"/>
      <point x="3" y="563"/>
      <point x="0" y="515"/>
      <point x="0" y="508" type="curve" smooth="yes"/>
      <point x="0" y="491"/>
      <point x="12" y="484"/>
    </contour>
  </outline>
</glyph>
<glyph name="circumflex" format="2">
  <advance width="274"/>
  <unicode hex="02C6"/>
  <outline>
    <contour>
      <point x="41" y="572" type="curve" smooth="yes"/>
      <point x="76" y="572"/>
      <point x="88" y="582"/>
      <point x="101" y="597" type="curve" smooth="yes"/>
      <point x="137" y="636" type="line"/>
      <point x="173" y="597" type="line" smooth="yes"/>
      <point x="186" y="582"/>
      <point x="198" y="572"/>
      <point x="233" y="572" type="curve" smooth="yes"/>
      <point x="262" y="572"/>
      <point x="274" y="576"/>
      <point x="274" y="587" type="curve" smooth="yes"/>
      <point x="274" y="593"/>
      <point x="269" y="601"/>
      <point x="261" y="615" type="curve" smooth="yes"/>
      <point x="217" y="692" type="line" smooth="yes"/>
      <point x="207" y="711"/>
      <point x="192" y="718"/>
      <point x="151" y="718" type="curve" smooth="yes"/>
      <point x="123" y="718" type="line" smooth="yes"/>
      <point x="82" y="718"/>
      <point x="68" y="712"/>
      <point x="57" y="692" type="curve" smooth="yes"/>
      <point x="13" y="615" type="line" smooth="yes"/>
      <point x="5" y="601"/>
      <point x="0" y="593"/>
      <point x="0" y="587" type="curve" smooth="yes"/>
      <point x="0" y="576"/>
      <point x="12" y="572"/>
    </contour>
  </outline>
</glyph>
<glyph name="breve" format="2">
  <advance width="274"/>
  <unicode hex="02D8"/>
  <outline>
    <contour>
      <point x="137" y="575" type="curve" smooth="yes"/>
      <point x="218" y="575"/>
      <point x="274" y="630"/>
      <point x="274" y="687" type="curve" smooth="yes"/>
      <point x="274" y="705"/>
      <point x="261" y="715"/>
      <point x="239" y="715" type="curve" smooth="yes"/>
      <point x="223" y="715"/>
      <point x="216" y="708"/>
      <point x="208" y="699" type="curve" smooth="yes"/>
      <point x="196" y="685"/>
      <point x="184" y="666"/>
      <point x="137" y="666" type="curve" smooth="yes"/>
      <point x="96" y="666"/>
      <point x="81" y="683"/>
      <point x="68" y="697" type="curve" smooth="yes"/>
      <point x="59" y="707"/>
      <point x="52" y="715"/>
      <point x="35" y="715" type="curve" smooth="yes"/>
      <point x="13" y="715"/>
      <point x="0" y="705"/>
      <point x="0" y="687" type="curve" smooth="yes"/>
      <point x="0" y="630"/>
      <point x="56" y="575"/>
    </contour>
  </outline>
</glyph>
<glyph name="dotaccent" format="2">
  <advance width="148"/>
  <unicode hex="02D9"/>
  <outline>
    <contour>
      <point x="74" y="574" type="curve" smooth="yes"/>
      <point x="126" y="574"/>
      <point x="148" y="585"/>
      <point x="148" y="606" type="curve" smooth="yes"/>
      <point x="148" y="684" type="line" smooth="yes"/>
      <point x="148" y="705"/>
      <point x="126" y="716"/>
      <point x="74" y="716" type="curve" smooth="yes"/>
      <point x="22" y="716"/>
      <point x="0" y="705"/>
      <point x="0" y="684" type="curve" smooth="yes"/>
      <point x="0" y="606" type="line" smooth="yes"/>
      <point x="0" y="585"/>
      <point x="22" y="574"/>
    </contour>
  </outline>
</glyph>
<glyph name="ring" format="2">
  <advance width="205"/>
  <unicode hex="02DA"/>
  <outline>
    <contour>
      <point x="102" y="541" type="curve" smooth="yes"/>
      <point x="161" y="541"/>
      <point x="205" y="584"/>
      <point x="205" y="640" type="curve" smooth="yes"/>
      <point x="205" y="697"/>
      <point x="161" y="740"/>
      <point x="102" y="740" type="curve" smooth="yes"/>
      <point x="44" y="740"/>
      <point x="0" y="697"/>
      <point x="0" y="640" type="curve" smooth="yes"/>
      <point x="0" y="584"/>
      <point x="44" y="541"/>
    </contour>
    <contour>
      <point x="102" y="605" type="curve" smooth="yes"/>
      <point x="83" y="605"/>
      <point x="68" y="620"/>
      <point x="68" y="639" type="curve" smooth="yes"/>
      <point x="68" y="659"/>
      <point x="83" y="674"/>
      <point x="102" y="674" type="curve" smooth="yes"/>
      <point x="122" y="674"/>
      <point x="137" y="659"/>
      <point x="137" y="639" type="curve" smooth="yes"/>
      <point x="137" y="620"/>
      <point x="122" y="605"/>
    </contour>
  </outline>
</glyph>
<glyph name="ogonek" format="2">
  <advance width="195"/>
  <unicode hex="02DB"/>
  <outline>
    <contour>
      <point x="107" y="-196" type="curve" smooth="yes"/>
      <point x="158" y="-196"/>
      <point x="195" y="-179"/>
      <point x="195" y="-151" type="curve" smooth="yes"/>
      <point x="195" y="-133"/>
      <point x="190" y="-99"/>
      <point x="173" y="-99" type="curve" smooth="yes"/>
      <point x="158" y="-99"/>
      <point x="147" y="-108"/>
      <point x="120" y="-108" type="curve" smooth="yes"/>
      <point x="97" y="-108"/>
      <point x="85" y="-96"/>
      <point x="85" y="-79" type="curve" smooth="yes"/>
      <point x="85" y="-53"/>
      <point x="109" y="-15"/>
      <point x="154" y="10" type="curve"/>
      <point x="99" y="17" type="line"/>
      <point x="32" y="-10"/>
      <point x="0" y="-60"/>
      <point x="0" y="-103" type="curve" smooth="yes"/>
      <point x="0" y="-164"/>
      <point x="40" y="-196"/>
    </contour>
  </outline>
</glyph>
<glyph name="tilde" format="2">
  <advance width="350"/>
  <unicode hex="02DC"/>
  <outline>
    <contour>
      <point x="46" y="582" type="curve" smooth="yes"/>
      <point x="63" y="582"/>
      <point x="75" y="612"/>
      <point x="114" y="612" type="curve" smooth="yes"/>
      <point x="144" y="612"/>
      <point x="196" y="586"/>
      <point x="238" y="586" type="curve" smooth="yes"/>
      <point x="300" y="586"/>
      <point x="330" y="620"/>
      <point x="342" y="646" type="curve" smooth="yes"/>
      <point x="349" y="661"/>
      <point x="350" y="666"/>
      <point x="350" y="671" type="curve" smooth="yes"/>
      <point x="350" y="686"/>
      <point x="314" y="706"/>
      <point x="304" y="706" type="curve" smooth="yes"/>
      <point x="284" y="706"/>
      <point x="279" y="678"/>
      <point x="238" y="678" type="curve" smooth="yes"/>
      <point x="207" y="678"/>
      <point x="155" y="704"/>
      <point x="106" y="704" type="curve" smooth="yes"/>
      <point x="55" y="704"/>
      <point x="21" y="671"/>
      <point x="5" y="635" type="curve" smooth="yes"/>
      <point x="2" y="628"/>
      <point x="0" y="618"/>
      <point x="0" y="612" type="curve" smooth="yes"/>
      <point x="0" y="595"/>
      <point x="35" y="582"/>
    </contour>
  </outline>
</glyph>
<glyph name="hookabovecomb" format="2">
  <unicode hex="0309"/>
  <anchor x="96" y="523" name="_top"/>
  <anchor x="97" y="700" name="top"/>
  <outline>
    <contour>
      <point x="91" y="570" type="curve" smooth="yes"/>
      <point x="109" y="570"/>
      <point x="191" y="619"/>
      <point x="191" y="672" type="curve" smooth="yes"/>
      <point x="191" y="721"/>
      <point x="152" y="751"/>
      <point x="80" y="751" type="curve" smooth="yes"/>
      <point x="45" y="751"/>
      <point x="0" y="733"/>
      <point x="0" y="720" type="curve" smooth="yes"/>
      <point x="0" y="705"/>
      <point x="22" y="678"/>
      <point x="30" y="678" type="curve" smooth="yes"/>
      <point x="39" y="678"/>
      <point x="50" y="690"/>
      <point x="72" y="690" type="curve" smooth="yes"/>
      <point x="88" y="690"/>
      <point x="104" y="682"/>
      <point x="104" y="668" type="curve" smooth="yes"/>
      <point x="104" y="638"/>
      <point x="37" y="610"/>
      <point x="37" y="593" type="curve" smooth="yes"/>
      <point x="37" y="585"/>
      <point x="67" y="570"/>
    </contour>
  </outline>
</glyph>
<glyph name="breveinvertedcomb" format="2">
  <unicode hex="0311"/>
  <anchor x="137" y="523" name="_top"/>
  <anchor x="137" y="700" name="top"/>
  <outline>
    <contour>
      <point x="137" y="715" type="curve" smooth="yes"/>
      <point x="218" y="715"/>
      <point x="274" y="660"/>
      <point x="274" y="603" type="curve" smooth="yes"/>
      <point x="274" y="585"/>
      <point x="261" y="575"/>
      <point x="239" y="575" type="curve" smooth="yes"/>
      <point x="223" y="575"/>
      <point x="216" y="582"/>
      <point x="208" y="591" type="curve" smooth="yes"/>
      <point x="196" y="605"/>
      <point x="184" y="624"/>
      <point x="137" y="624" type="curve" smooth="yes"/>
      <point x="96" y="624"/>
      <point x="81" y="607"/>
      <point x="68" y="593" type="curve" smooth="yes"/>
      <point x="59" y="583"/>
      <point x="52" y="575"/>
      <point x="35" y="575" type="curve" smooth="yes"/>
      <point x="13" y="575"/>
      <point x="0" y="585"/>
      <point x="0" y="603" type="curve" smooth="yes"/>
      <point x="0" y="660"/>
      <point x="56" y="715"/>
    </contour>
  </outline>
</glyph>
<glyph name="commaturnedabovecomb" format="2">
  <unicode hex="0312"/>
  <anchor x="77" y="523" name="_top"/>
  <anchor x="77" y="755" name="top"/>
  <outline>
    <contour>
      <point x="50" y="578" type="curve" smooth="yes"/>
      <point x="69" y="578" type="line" smooth="yes"/>
      <point x="111" y="578"/>
      <point x="129" y="595"/>
      <point x="129" y="622" type="curve" smooth="yes"/>
      <point x="129" y="702"/>
      <point x="153" y="727"/>
      <point x="153" y="745" type="curve" smooth="yes"/>
      <point x="153" y="761"/>
      <point x="126" y="767"/>
      <point x="108" y="767" type="curve" smooth="yes"/>
      <point x="73" y="767"/>
      <point x="0" y="689"/>
      <point x="0" y="622" type="curve" smooth="yes"/>
      <point x="0" y="597"/>
      <point x="15" y="578"/>
    </contour>
  </outline>
</glyph>
<glyph name="horncomb" format="2">
  <unicode hex="031B"/>
  <anchor x="0" y="523" name="_topright"/>
  <anchor x="0" y="635" name="topright"/>
  <outline>
    <contour>
      <point x="53" y="480" type="line"/>
      <point x="145" y="480"/>
      <point x="185" y="517"/>
      <point x="185" y="574" type="curve" smooth="yes"/>
      <point x="185" y="604"/>
      <point x="164" y="657"/>
      <point x="138" y="657" type="curve" smooth="yes"/>
      <point x="132" y="657"/>
      <point x="127" y="656"/>
      <point x="122" y="652" type="curve" smooth="yes"/>
      <point x="90" y="630" type="line" smooth="yes"/>
      <point x="82" y="625"/>
      <point x="79" y="618"/>
      <point x="79" y="611" type="curve" smooth="yes"/>
      <point x="79" y="598"/>
      <point x="105" y="581"/>
      <point x="105" y="559" type="curve" smooth="yes"/>
      <point x="105" y="536"/>
      <point x="92" y="523"/>
      <point x="58" y="523" type="curve"/>
      <point x="0" y="523" type="line"/>
    </contour>
  </outline>
</glyph>
<glyph name="dotbelowcomb" format="2">
  <unicode hex="0323"/>
  <anchor x="60" y="0" name="_bottom"/>
  <anchor x="60" y="-185" name="bottom"/>
  <outline>
    <contour>
      <point x="60" y="-204" type="curve" smooth="yes"/>
      <point x="102" y="-204"/>
      <point x="120" y="-193"/>
      <point x="120" y="-172" type="curve" smooth="yes"/>
      <point x="120" y="-112" type="line" smooth="yes"/>
      <point x="120" y="-91"/>
      <point x="102" y="-80"/>
      <point x="60" y="-80" type="curve" smooth="yes"/>
      <point x="18" y="-80"/>
      <point x="0" y="-91"/>
      <point x="0" y="-112" type="curve" smooth="yes"/>
      <point x="0" y="-172" type="line" smooth="yes"/>
      <point x="0" y="-193"/>
      <point x="18" y="-204"/>
    </contour>
  </outline>
</glyph>
